<svg width="13" height="15" viewBox="0 0 13 15" fill="none" xmlns="http://www.w3.org/2000/svg">
<path fill-rule="evenodd" clip-rule="evenodd" d="M12.3835 7.86625C12.6178 8.10066 12.7495 8.41854 12.7495 8.75C12.7495 9.08146 12.6178 9.39934 12.3835 9.63375L7.38348 14.6337C7.14908 14.8681 6.83119 14.9997 6.49973 14.9997C6.16828 14.9997 5.8504 14.8681 5.61599 14.6337L0.615986 9.63375C0.496598 9.51844 0.40137 9.38051 0.335859 9.22801C0.270347 9.0755 0.235864 8.91148 0.234422 8.7455C0.23298 8.57953 0.264607 8.41493 0.327458 8.26131C0.390309 8.10769 0.483125 7.96812 0.600491 7.85076C0.717857 7.73339 0.857422 7.64057 1.01104 7.57772C1.16466 7.51487 1.32926 7.48324 1.49524 7.48469C1.66121 7.48613 1.82524 7.52061 1.97774 7.58612C2.13025 7.65163 2.26818 7.74686 2.38349 7.86625L5.24973 10.7325V1.25C5.24973 0.918479 5.38143 0.600537 5.61585 0.366117C5.85027 0.131696 6.16821 0 6.49973 0C6.83126 0 7.1492 0.131696 7.38362 0.366117C7.61804 0.600537 7.74973 0.918479 7.74973 1.25V10.7325L10.616 7.86625C10.8504 7.63191 11.1683 7.50027 11.4997 7.50027C11.8312 7.50027 12.1491 7.63191 12.3835 7.86625Z" fill="#E6E5E7"/>
</svg>
