<svg width="25" height="25" viewBox="0 0 25 25" fill="none" xmlns="http://www.w3.org/2000/svg">
<path fill-rule="evenodd" clip-rule="evenodd" d="M18.3835 12.8663C18.6178 13.1007 18.7495 13.4185 18.7495 13.75C18.7495 14.0815 18.6178 14.3993 18.3835 14.6337L13.3835 19.6337C13.1491 19.8681 12.8312 19.9997 12.4997 19.9997C12.1683 19.9997 11.8504 19.8681 11.616 19.6337L6.61599 14.6337C6.4966 14.5184 6.40137 14.3805 6.33586 14.228C6.27035 14.0755 6.23586 13.9115 6.23442 13.7455C6.23298 13.5795 6.26461 13.4149 6.32746 13.2613C6.39031 13.1077 6.48313 12.9681 6.60049 12.8508C6.71786 12.7334 6.85742 12.6406 7.01104 12.5777C7.16466 12.5149 7.32926 12.4832 7.49524 12.4847C7.66121 12.4861 7.82524 12.5206 7.97774 12.5861C8.13025 12.6516 8.26818 12.7469 8.38349 12.8663L11.2497 15.7325V6.25C11.2497 5.91848 11.3814 5.60054 11.6159 5.36612C11.8503 5.1317 12.1682 5 12.4997 5C12.8313 5 13.1492 5.1317 13.3836 5.36612C13.618 5.60054 13.7497 5.91848 13.7497 6.25V15.7325L16.616 12.8663C16.8504 12.6319 17.1683 12.5003 17.4997 12.5003C17.8312 12.5003 18.1491 12.6319 18.3835 12.8663Z" fill="#E6E5E7"/>
</svg>
