<svg width="26" height="28" viewBox="0 0 26 28" fill="none" xmlns="http://www.w3.org/2000/svg">
<path fill-rule="evenodd" clip-rule="evenodd" d="M13.1066 2.386C7.18247 2.33278 2.33247 7.37153 2.27345 13.6407C2.21442 19.91 6.96874 25.035 12.8929 25.0882C18.817 25.1414 23.667 20.1027 23.726 13.8335C23.785 7.56425 19.0307 2.43922 13.1066 2.386ZM12.4579 17.7395C12.3055 17.8976 12.1002 17.9853 11.887 17.9834C11.6738 17.9815 11.4702 17.8901 11.3209 17.7293L8.13506 14.2951C7.98591 14.1341 7.90333 13.9169 7.90545 13.6913C7.90758 13.4657 7.99423 13.2501 8.14639 13.0918L11.3963 9.71542C11.4708 9.63244 11.5602 9.56615 11.6593 9.52051C11.7585 9.47486 11.8652 9.4508 11.9732 9.44975C12.0813 9.44871 12.1884 9.4707 12.2881 9.51442C12.3879 9.55813 12.4783 9.62268 12.5539 9.70421C12.6296 9.78574 12.6889 9.88257 12.7283 9.98894C12.7678 10.0953 12.7866 10.209 12.7836 10.3233C12.7806 10.4376 12.7559 10.5501 12.711 10.6542C12.666 10.7582 12.6018 10.8516 12.522 10.9289L10.6587 12.8647L17.2983 12.9243C17.5116 12.9262 17.7154 13.0178 17.8648 13.1788C18.0141 13.3398 18.0968 13.5571 18.0947 13.7829C18.0926 14.0087 18.0058 14.2244 17.8534 14.3827C17.701 14.541 17.4956 14.6289 17.2822 14.627L10.6427 14.5673L12.4692 16.5363C12.6183 16.6973 12.7009 16.9144 12.6988 17.14C12.6967 17.3656 12.61 17.5812 12.4579 17.7395Z" fill="#D4C6D6" fill-opacity="0.75"/>
</svg>
