<svg width="34" height="37" viewBox="0 0 34 37" fill="none" xmlns="http://www.w3.org/2000/svg">
<path d="M4.77913 4.625C3.31288 4.625 2.125 5.92 2.125 7.51562V29.4728C2.125 31.0684 3.315 32.3634 4.77913 32.3634H5.84163C7.30788 32.3634 8.49575 31.0684 8.49575 29.4728V7.51331C8.49575 5.91769 7.30575 4.625 5.8395 4.625H4.77913ZM13.2727 4.625C11.8065 4.625 10.6165 5.92 10.6165 7.51562V29.4728C10.6165 31.0684 11.8065 32.3634 13.2727 32.3634H14.3352C15.039 32.3622 15.7135 32.0571 16.2108 31.5152C16.708 30.9732 16.9873 30.2387 16.9872 29.4728V7.51331C16.9867 6.74747 16.7069 6.01317 16.2093 5.47164C15.7116 4.93011 15.0369 4.62561 14.3331 4.625H13.2727ZM25.4405 11.0468C25.1853 10.3578 24.6962 9.80219 24.0746 9.49518C23.453 9.18818 22.7467 9.15338 22.1021 9.398L20.8654 9.86975C20.527 9.99904 20.2161 10.2016 19.9516 10.4651C19.687 10.7287 19.4743 11.0479 19.3261 11.4033C19.178 11.7588 19.0976 12.1432 19.0897 12.5334C19.0817 12.9237 19.1465 13.3116 19.2801 13.6738L25.5213 30.5643C26.0504 31.9981 27.5188 32.7219 28.8596 32.2131L30.0964 31.7414C30.4351 31.6121 30.7461 31.4095 31.0109 31.1458C31.2756 30.882 31.4885 30.5627 31.6366 30.2069C31.7848 29.8512 31.8651 29.4665 31.8729 29.076C31.8806 28.6855 31.8156 28.2974 31.6816 27.935L25.4405 11.0468Z" fill="#E6E5E7"/>
</svg>
