<svg width="230" height="231" viewBox="0 0 230 231" fill="none" xmlns="http://www.w3.org/2000/svg">
<path d="M61.5706 14.1818H51.957C51.8888 13.3864 51.707 12.6648 51.4115 12.017C51.1274 11.3693 50.7297 10.8125 50.2183 10.3466C49.7183 9.86932 49.1104 9.50568 48.3945 9.25568C47.6786 8.99432 46.8661 8.86364 45.957 8.86364C44.3661 8.86364 43.0195 9.25 41.9172 10.0227C40.8263 10.7955 39.9967 11.9034 39.4286 13.3466C38.8717 14.7898 38.5933 16.5227 38.5933 18.5455C38.5933 20.6818 38.8774 22.4716 39.4456 23.9148C40.0251 25.3466 40.8604 26.4261 41.9513 27.1534C43.0422 27.8693 44.3547 28.2273 45.8888 28.2273C46.7638 28.2273 47.5479 28.1193 48.2411 27.9034C48.9342 27.6761 49.5365 27.3523 50.0479 26.9318C50.5592 26.5114 50.974 26.0057 51.2922 25.4148C51.6217 24.8125 51.8433 24.1364 51.957 23.3864L61.5706 23.4545C61.457 24.9318 61.0422 26.4375 60.3263 27.9716C59.6104 29.4943 58.5933 30.9034 57.2751 32.1989C55.9683 33.483 54.349 34.517 52.4172 35.3011C50.4854 36.0852 48.2411 36.4773 45.6842 36.4773C42.4797 36.4773 39.6047 35.7898 37.0592 34.4148C34.5251 33.0398 32.5195 31.017 31.0422 28.3466C29.5763 25.6761 28.8433 22.4091 28.8433 18.5455C28.8433 14.6591 29.5933 11.3864 31.0933 8.72727C32.5933 6.05682 34.6161 4.03977 37.1615 2.67614C39.707 1.30114 42.5479 0.613635 45.6842 0.613635C47.8888 0.613635 49.9172 0.914771 51.7695 1.51704C53.6217 2.11932 55.2467 3 56.6445 4.15909C58.0422 5.30682 59.1672 6.72159 60.0195 8.40341C60.8717 10.0852 61.3888 12.0114 61.5706 14.1818ZM68.4067 36V9.81818H77.543V14.7955H77.8158C78.293 12.9545 79.0487 11.608 80.0828 10.7557C81.1283 9.90341 82.3499 9.47727 83.7476 9.47727C84.1567 9.47727 84.5601 9.51136 84.9578 9.57955C85.3669 9.63636 85.759 9.72159 86.134 9.83523V17.8636C85.668 17.7045 85.0942 17.5852 84.4124 17.5057C83.7305 17.4261 83.1453 17.3864 82.6567 17.3864C81.7362 17.3864 80.9067 17.5966 80.168 18.017C79.4408 18.4261 78.8669 19.0057 78.4465 19.7557C78.026 20.4943 77.8158 21.3636 77.8158 22.3636V36H68.4067ZM102.665 36.4773C99.8692 36.4773 97.4601 35.9432 95.4374 34.875C93.426 33.7955 91.8749 32.25 90.784 30.2386C89.7044 28.2159 89.1646 25.7955 89.1646 22.9773C89.1646 20.2727 89.7101 17.9091 90.801 15.8864C91.8919 13.8636 93.4317 12.2898 95.4203 11.1648C97.409 10.0398 99.7555 9.47727 102.46 9.47727C104.437 9.47727 106.227 9.78409 107.829 10.3977C109.432 11.0114 110.801 11.9034 111.937 13.0739C113.074 14.233 113.949 15.642 114.562 17.3011C115.176 18.9602 115.483 20.8295 115.483 22.9091V25.0909H92.0965V19.9091H106.824C106.812 19.1591 106.619 18.5 106.244 17.9318C105.881 17.3523 105.386 16.9034 104.761 16.5852C104.148 16.2557 103.449 16.0909 102.665 16.0909C101.903 16.0909 101.204 16.2557 100.568 16.5852C99.9317 16.9034 99.4203 17.3466 99.034 17.9148C98.659 18.483 98.4601 19.1477 98.4374 19.9091V25.5C98.4374 26.3409 98.6135 27.0909 98.9658 27.75C99.318 28.4091 99.8237 28.9261 100.483 29.3011C101.142 29.6761 101.937 29.8636 102.869 29.8636C103.517 29.8636 104.108 29.7727 104.642 29.5909C105.187 29.4091 105.653 29.1477 106.04 28.8068C106.426 28.4545 106.71 28.0341 106.892 27.5455H115.483C115.187 29.3636 114.489 30.9432 113.386 32.2841C112.284 33.6136 110.824 34.6477 109.006 35.3864C107.199 36.1136 105.085 36.4773 102.665 36.4773ZM129.018 36.4091C127.347 36.4091 125.87 36.1364 124.586 35.5909C123.313 35.0341 122.313 34.1932 121.586 33.0682C120.859 31.9432 120.495 30.5114 120.495 28.7727C120.495 27.3409 120.739 26.1193 121.228 25.108C121.717 24.0852 122.398 23.25 123.273 22.6023C124.148 21.9545 125.165 21.4602 126.325 21.1193C127.495 20.7784 128.756 20.5568 130.109 20.4545C131.575 20.3409 132.751 20.2045 133.637 20.0455C134.535 19.875 135.183 19.642 135.58 19.3466C135.978 19.0398 136.177 18.6364 136.177 18.1364V18.0682C136.177 17.3864 135.915 16.8636 135.393 16.5C134.87 16.1364 134.2 15.9545 133.381 15.9545C132.484 15.9545 131.751 16.1534 131.183 16.5511C130.626 16.9375 130.29 17.5341 130.177 18.3409H121.518C121.631 16.75 122.137 15.2841 123.035 13.9432C123.944 12.5909 125.268 11.5114 127.006 10.7045C128.745 9.88636 130.915 9.47727 133.518 9.47727C135.393 9.47727 137.075 9.69886 138.563 10.142C140.052 10.5739 141.319 11.1818 142.364 11.9659C143.41 12.7386 144.205 13.6477 144.751 14.6932C145.308 15.7273 145.586 16.8523 145.586 18.0682V36H136.79V32.3182H136.586C136.063 33.2955 135.427 34.0852 134.677 34.6875C133.938 35.2898 133.092 35.7273 132.137 36C131.194 36.2727 130.154 36.4091 129.018 36.4091ZM132.086 30.4773C132.802 30.4773 133.472 30.3295 134.097 30.0341C134.734 29.7386 135.251 29.3125 135.648 28.7557C136.046 28.1989 136.245 27.5227 136.245 26.7273V24.5455C135.995 24.6477 135.728 24.7443 135.444 24.8352C135.171 24.9261 134.876 25.0114 134.558 25.0909C134.251 25.1705 133.921 25.2443 133.569 25.3125C133.228 25.3807 132.87 25.4432 132.495 25.5C131.768 25.6136 131.171 25.8011 130.705 26.0625C130.251 26.3125 129.91 26.625 129.683 27C129.467 27.3636 129.359 27.7727 129.359 28.2273C129.359 28.9545 129.614 29.5114 130.126 29.8977C130.637 30.2841 131.29 30.4773 132.086 30.4773ZM168.095 9.81818V16.6364H150.845V9.81818H168.095ZM154.186 3.54545H163.595V27.5795C163.595 27.9432 163.658 28.25 163.783 28.5C163.908 28.7386 164.101 28.9205 164.362 29.0455C164.624 29.1591 164.959 29.2159 165.368 29.2159C165.652 29.2159 165.982 29.1818 166.357 29.1136C166.743 29.0455 167.027 28.9886 167.209 28.9432L168.573 35.5568C168.152 35.6818 167.55 35.8352 166.766 36.017C165.993 36.1989 165.073 36.3182 164.004 36.375C161.845 36.4886 160.033 36.267 158.567 35.7102C157.101 35.142 155.999 34.25 155.26 33.0341C154.521 31.8182 154.163 30.2955 154.186 28.4659V3.54545ZM186.599 36.4773C183.804 36.4773 181.394 35.9432 179.372 34.875C177.36 33.7955 175.809 32.25 174.718 30.2386C173.639 28.2159 173.099 25.7955 173.099 22.9773C173.099 20.2727 173.644 17.9091 174.735 15.8864C175.826 13.8636 177.366 12.2898 179.355 11.1648C181.343 10.0398 183.69 9.47727 186.394 9.47727C188.372 9.47727 190.162 9.78409 191.764 10.3977C193.366 11.0114 194.735 11.9034 195.872 13.0739C197.008 14.233 197.883 15.642 198.497 17.3011C199.11 18.9602 199.417 20.8295 199.417 22.9091V25.0909H176.031V19.9091H190.758C190.747 19.1591 190.554 18.5 190.179 17.9318C189.815 17.3523 189.321 16.9034 188.696 16.5852C188.082 16.2557 187.383 16.0909 186.599 16.0909C185.838 16.0909 185.139 16.2557 184.502 16.5852C183.866 16.9034 183.355 17.3466 182.968 17.9148C182.593 18.483 182.394 19.1477 182.372 19.9091V25.5C182.372 26.3409 182.548 27.0909 182.9 27.75C183.252 28.4091 183.758 28.9261 184.417 29.3011C185.076 29.6761 185.872 29.8636 186.804 29.8636C187.451 29.8636 188.042 29.7727 188.576 29.5909C189.122 29.4091 189.588 29.1477 189.974 28.8068C190.36 28.4545 190.644 28.0341 190.826 27.5455H199.417C199.122 29.3636 198.423 30.9432 197.321 32.2841C196.218 33.6136 194.758 34.6477 192.94 35.3864C191.133 36.1136 189.019 36.4773 186.599 36.4773ZM64.3886 82.8182C63.3091 82.8182 62.2807 82.733 61.3034 82.5625C60.3261 82.4034 59.4682 82.1818 58.7295 81.8977L60.775 75.2159C61.5477 75.4886 62.2523 75.6648 62.8886 75.7443C63.5364 75.8239 64.0875 75.7784 64.542 75.608C65.008 75.4375 65.3432 75.1136 65.5477 74.6364L65.7523 74.1591L56.5477 46.8182H66.3659L70.5932 64.9545H70.8659L75.1614 46.8182H85.0477L75.5023 75.1818C75.025 76.625 74.3318 77.9205 73.4227 79.0682C72.525 80.2273 71.3432 81.142 69.8773 81.8125C68.4114 82.483 66.5818 82.8182 64.3886 82.8182ZM101.941 73.4773C99.0997 73.4773 96.6679 72.9148 94.6452 71.7898C92.6224 70.6534 91.0713 69.0739 89.9918 67.0511C88.9122 65.017 88.3724 62.6591 88.3724 59.9773C88.3724 57.2955 88.9122 54.9432 89.9918 52.9205C91.0713 50.8864 92.6224 49.3068 94.6452 48.1818C96.6679 47.0455 99.0997 46.4773 101.941 46.4773C104.782 46.4773 107.213 47.0455 109.236 48.1818C111.259 49.3068 112.81 50.8864 113.889 52.9205C114.969 54.9432 115.509 57.2955 115.509 59.9773C115.509 62.6591 114.969 65.017 113.889 67.0511C112.81 69.0739 111.259 70.6534 109.236 71.7898C107.213 72.9148 104.782 73.4773 101.941 73.4773ZM102.009 66.5227C102.804 66.5227 103.492 66.2557 104.071 65.7216C104.651 65.1875 105.1 64.4261 105.418 63.4375C105.736 62.4489 105.895 61.2727 105.895 59.9091C105.895 58.5341 105.736 57.358 105.418 56.3807C105.1 55.392 104.651 54.6307 104.071 54.0966C103.492 53.5625 102.804 53.2955 102.009 53.2955C101.168 53.2955 100.446 53.5625 99.844 54.0966C99.2418 54.6307 98.7815 55.392 98.4634 56.3807C98.1452 57.358 97.9861 58.5341 97.9861 59.9091C97.9861 61.2727 98.1452 62.4489 98.4634 63.4375C98.7815 64.4261 99.2418 65.1875 99.844 65.7216C100.446 66.2557 101.168 66.5227 102.009 66.5227ZM138.704 61.5455V46.8182H148.113V73H139.182V68.0227H138.909C138.341 69.6932 137.346 71 135.926 71.9432C134.505 72.875 132.818 73.3409 130.863 73.3409C129.034 73.3409 127.432 72.9205 126.057 72.0795C124.693 71.2386 123.63 70.0795 122.869 68.6023C122.119 67.125 121.738 65.4318 121.727 63.5227V46.8182H131.136V61.5455C131.147 62.8409 131.477 63.858 132.125 64.5966C132.784 65.3352 133.704 65.7045 134.886 65.7045C135.67 65.7045 136.346 65.5398 136.914 65.2102C137.494 64.8693 137.937 64.392 138.244 63.7784C138.562 63.1534 138.716 62.4091 138.704 61.5455ZM155.299 73V46.8182H164.435V51.7955H164.708C165.185 49.9545 165.941 48.608 166.975 47.7557C168.02 46.9034 169.242 46.4773 170.64 46.4773C171.049 46.4773 171.452 46.5114 171.85 46.5795C172.259 46.6364 172.651 46.7216 173.026 46.8352V54.8636C172.56 54.7045 171.986 54.5852 171.305 54.5057C170.623 54.4261 170.038 54.3864 169.549 54.3864C168.628 54.3864 167.799 54.5966 167.06 55.017C166.333 55.4261 165.759 56.0057 165.339 56.7557C164.918 57.4943 164.708 58.3636 164.708 59.3636V73H155.299ZM13.8344 110.477C10.9935 110.477 8.56165 109.915 6.53892 108.79C4.51619 107.653 2.96506 106.074 1.88551 104.051C0.805964 102.017 0.266192 99.6591 0.266192 96.9773C0.266192 94.2955 0.805964 91.9432 1.88551 89.9205C2.96506 87.8864 4.51619 86.3068 6.53892 85.1818C8.56165 84.0455 10.9935 83.4773 13.8344 83.4773C16.6753 83.4773 19.1071 84.0455 21.1298 85.1818C23.1526 86.3068 24.7037 87.8864 25.7832 89.9205C26.8628 91.9432 27.4026 94.2955 27.4026 96.9773C27.4026 99.6591 26.8628 102.017 25.7832 104.051C24.7037 106.074 23.1526 107.653 21.1298 108.79C19.1071 109.915 16.6753 110.477 13.8344 110.477ZM13.9026 103.523C14.698 103.523 15.3855 103.256 15.9651 102.722C16.5446 102.187 16.9935 101.426 17.3116 100.438C17.6298 99.4489 17.7889 98.2727 17.7889 96.9091C17.7889 95.5341 17.6298 94.358 17.3116 93.3807C16.9935 92.392 16.5446 91.6307 15.9651 91.0966C15.3855 90.5625 14.698 90.2955 13.9026 90.2955C13.0616 90.2955 12.3401 90.5625 11.7378 91.0966C11.1355 91.6307 10.6753 92.392 10.3571 93.3807C10.0389 94.358 9.87983 95.5341 9.87983 96.9091C9.87983 98.2727 10.0389 99.4489 10.3571 100.438C10.6753 101.426 11.1355 102.187 11.7378 102.722C12.3401 103.256 13.0616 103.523 13.9026 103.523ZM37.7884 110L31.2429 83.8182H40.652L43.652 99.7727H43.8565L47.1974 83.8182H56.3338L59.8111 99.6364H60.0156L62.8793 83.8182H72.2884L65.7429 110H55.5838L51.902 95.9545H51.6293L47.9474 110H37.7884ZM86.9611 95.2727V110H77.552V83.8182H86.4838V88.7955H86.7565C87.3247 87.1364 88.3247 85.8352 89.7565 84.892C91.1997 83.9489 92.8815 83.4773 94.802 83.4773C96.6543 83.4773 98.2622 83.9034 99.6259 84.7557C101.001 85.5966 102.063 86.7557 102.813 88.233C103.575 89.7102 103.95 91.3977 103.938 93.2955V110H94.5293V95.2727C94.5406 93.9773 94.2111 92.9602 93.5406 92.2216C92.8815 91.483 91.9611 91.1136 90.7793 91.1136C90.0065 91.1136 89.3304 91.2841 88.7509 91.625C88.1827 91.9545 87.7452 92.4318 87.4384 93.0568C87.1315 93.6705 86.9724 94.4091 86.9611 95.2727ZM149.332 83.8182L140.537 110H129.628L120.832 83.8182H130.718L134.946 101.136H135.218L139.446 83.8182H149.332ZM154.408 110V83.8182H163.817V110H154.408ZM159.113 81.0909C157.84 81.0909 156.749 80.6705 155.84 79.8295C154.931 78.9886 154.476 77.9773 154.476 76.7955C154.476 75.6136 154.931 74.6023 155.84 73.7614C156.749 72.9205 157.84 72.5 159.113 72.5C160.397 72.5 161.488 72.9205 162.386 73.7614C163.295 74.6023 163.749 75.6136 163.749 76.7955C163.749 77.9773 163.295 78.9886 162.386 79.8295C161.488 80.6705 160.397 81.0909 159.113 81.0909ZM170.875 110V75.0909H180.284V88.3864H180.42C180.761 87.5 181.261 86.6875 181.92 85.9489C182.58 85.1989 183.398 84.6023 184.375 84.1591C185.352 83.7045 186.489 83.4773 187.784 83.4773C189.511 83.4773 191.153 83.9375 192.71 84.858C194.278 85.7784 195.551 87.2273 196.528 89.2045C197.517 91.1818 198.011 93.75 198.011 96.9091C198.011 99.9318 197.54 102.437 196.597 104.426C195.665 106.415 194.415 107.898 192.847 108.875C191.29 109.852 189.58 110.341 187.716 110.341C186.489 110.341 185.392 110.142 184.426 109.744C183.472 109.335 182.653 108.784 181.972 108.091C181.301 107.386 180.784 106.591 180.42 105.705H180.216V110H170.875ZM180.08 96.9091C180.08 98.1818 180.244 99.2841 180.574 100.216C180.915 101.136 181.392 101.852 182.006 102.364C182.631 102.864 183.375 103.114 184.239 103.114C185.102 103.114 185.835 102.869 186.438 102.381C187.051 101.881 187.517 101.17 187.835 100.25C188.165 99.3182 188.33 98.2045 188.33 96.9091C188.33 95.6136 188.165 94.5057 187.835 93.5852C187.517 92.6534 187.051 91.9432 186.438 91.4545C185.835 90.9545 185.102 90.7045 184.239 90.7045C183.375 90.7045 182.631 90.9545 182.006 91.4545C181.392 91.9432 180.915 92.6534 180.574 93.5852C180.244 94.5057 180.08 95.6136 180.08 96.9091ZM216.894 110.477C214.099 110.477 211.69 109.943 209.667 108.875C207.656 107.795 206.105 106.25 205.014 104.239C203.934 102.216 203.394 99.7955 203.394 96.9773C203.394 94.2727 203.94 91.9091 205.031 89.8864C206.122 87.8636 207.661 86.2898 209.65 85.1648C211.639 84.0398 213.985 83.4773 216.69 83.4773C218.667 83.4773 220.457 83.7841 222.059 84.3977C223.661 85.0114 225.031 85.9034 226.167 87.0739C227.303 88.233 228.178 89.642 228.792 91.3011C229.406 92.9602 229.712 94.8295 229.712 96.9091V99.0909H206.326V93.9091H221.053C221.042 93.1591 220.849 92.5 220.474 91.9318C220.11 91.3523 219.616 90.9034 218.991 90.5852C218.377 90.2557 217.678 90.0909 216.894 90.0909C216.133 90.0909 215.434 90.2557 214.798 90.5852C214.161 90.9034 213.65 91.3466 213.264 91.9148C212.889 92.483 212.69 93.1477 212.667 93.9091V99.5C212.667 100.341 212.843 101.091 213.195 101.75C213.548 102.409 214.053 102.926 214.712 103.301C215.372 103.676 216.167 103.864 217.099 103.864C217.747 103.864 218.337 103.773 218.872 103.591C219.417 103.409 219.883 103.148 220.269 102.807C220.656 102.455 220.94 102.034 221.122 101.545H229.712C229.417 103.364 228.718 104.943 227.616 106.284C226.514 107.614 225.053 108.648 223.235 109.386C221.428 110.114 219.315 110.477 216.894 110.477ZM64.7977 147L58.2523 120.818H67.6614L70.6614 136.773H70.8659L74.2068 120.818H83.3432L86.8205 136.636H87.025L89.8886 120.818H99.2977L92.7523 147H82.5932L78.9114 132.955H78.6386L74.9568 147H64.7977ZM104.561 147V120.818H113.97V147H104.561ZM109.266 118.091C107.993 118.091 106.902 117.67 105.993 116.83C105.084 115.989 104.63 114.977 104.63 113.795C104.63 112.614 105.084 111.602 105.993 110.761C106.902 109.92 107.993 109.5 109.266 109.5C110.55 109.5 111.641 109.92 112.539 110.761C113.448 111.602 113.902 112.614 113.902 113.795C113.902 114.977 113.448 115.989 112.539 116.83C111.641 117.67 110.55 118.091 109.266 118.091ZM136.778 120.818V127.636H119.528V120.818H136.778ZM122.869 114.545H132.278V138.58C132.278 138.943 132.341 139.25 132.466 139.5C132.591 139.739 132.784 139.92 133.045 140.045C133.307 140.159 133.642 140.216 134.051 140.216C134.335 140.216 134.664 140.182 135.039 140.114C135.426 140.045 135.71 139.989 135.892 139.943L137.255 146.557C136.835 146.682 136.233 146.835 135.449 147.017C134.676 147.199 133.755 147.318 132.687 147.375C130.528 147.489 128.716 147.267 127.25 146.71C125.784 146.142 124.682 145.25 123.943 144.034C123.204 142.818 122.846 141.295 122.869 139.466V114.545ZM152.989 132.273V147H143.58V112.091H152.648V125.795H152.921C153.512 124.125 154.495 122.824 155.87 121.892C157.245 120.949 158.898 120.477 160.83 120.477C162.682 120.477 164.29 120.898 165.654 121.739C167.029 122.58 168.091 123.739 168.841 125.216C169.603 126.693 169.978 128.386 169.966 130.295V147H160.557V132.273C160.569 130.977 160.245 129.96 159.586 129.222C158.938 128.483 158.012 128.114 156.807 128.114C156.046 128.114 155.376 128.284 154.796 128.625C154.228 128.955 153.785 129.432 153.466 130.057C153.16 130.67 153.001 131.409 152.989 132.273ZM29.0266 184.477C26.1857 184.477 23.7538 183.915 21.7311 182.79C19.7084 181.653 18.1572 180.074 17.0777 178.051C15.9982 176.017 15.4584 173.659 15.4584 170.977C15.4584 168.295 15.9982 165.943 17.0777 163.92C18.1572 161.886 19.7084 160.307 21.7311 159.182C23.7538 158.045 26.1857 157.477 29.0266 157.477C31.5947 157.477 33.8163 157.943 35.6913 158.875C37.5777 159.795 39.0379 161.102 40.072 162.795C41.1061 164.477 41.6288 166.455 41.6402 168.727H32.9129C32.7879 167.352 32.3902 166.307 31.7197 165.591C31.0607 164.864 30.2084 164.5 29.1629 164.5C28.3447 164.5 27.6288 164.739 27.0152 165.216C26.4016 165.682 25.9243 166.392 25.5834 167.347C25.2425 168.29 25.072 169.477 25.072 170.909C25.072 172.341 25.2425 173.534 25.5834 174.489C25.9243 175.432 26.4016 176.142 27.0152 176.619C27.6288 177.085 28.3447 177.318 29.1629 177.318C29.8561 177.318 30.4697 177.159 31.0038 176.841C31.5379 176.511 31.9697 176.034 32.2993 175.409C32.6402 174.773 32.8447 174 32.9129 173.091H41.6402C41.6061 175.398 41.0777 177.409 40.055 179.125C39.0322 180.83 37.5834 182.148 35.7084 183.08C33.8447 184.011 31.6175 184.477 29.0266 184.477ZM64.8996 172.545V157.818H74.3087V184H65.3769V179.023H65.1041C64.5359 180.693 63.5416 182 62.1212 182.943C60.7007 183.875 59.0132 184.341 57.0587 184.341C55.2291 184.341 53.6269 183.92 52.2519 183.08C50.8882 182.239 49.8257 181.08 49.0644 179.602C48.3144 178.125 47.9337 176.432 47.9223 174.523V157.818H57.3314V172.545C57.3428 173.841 57.6723 174.858 58.32 175.597C58.9791 176.335 59.8996 176.705 61.0814 176.705C61.8655 176.705 62.5416 176.54 63.1098 176.21C63.6894 175.869 64.1325 175.392 64.4394 174.778C64.7575 174.153 64.9109 173.409 64.8996 172.545ZM81.4942 184V157.818H90.6305V162.795H90.9033C91.3805 160.955 92.1362 159.608 93.1703 158.756C94.2158 157.903 95.4374 157.477 96.8351 157.477C97.2442 157.477 97.6476 157.511 98.0453 157.58C98.4544 157.636 98.8465 157.722 99.2215 157.835V165.864C98.7555 165.705 98.1817 165.585 97.4999 165.506C96.818 165.426 96.2328 165.386 95.7442 165.386C94.8237 165.386 93.9942 165.597 93.2555 166.017C92.5283 166.426 91.9544 167.006 91.534 167.756C91.1135 168.494 90.9033 169.364 90.9033 170.364V184H81.4942ZM110.783 184.409C109.113 184.409 107.636 184.136 106.352 183.591C105.079 183.034 104.079 182.193 103.352 181.068C102.624 179.943 102.261 178.511 102.261 176.773C102.261 175.341 102.505 174.119 102.994 173.108C103.482 172.085 104.164 171.25 105.039 170.602C105.914 169.955 106.931 169.46 108.09 169.119C109.261 168.778 110.522 168.557 111.874 168.455C113.34 168.341 114.516 168.205 115.403 168.045C116.3 167.875 116.948 167.642 117.346 167.347C117.744 167.04 117.942 166.636 117.942 166.136V166.068C117.942 165.386 117.681 164.864 117.158 164.5C116.636 164.136 115.965 163.955 115.147 163.955C114.249 163.955 113.516 164.153 112.948 164.551C112.391 164.937 112.056 165.534 111.942 166.341H103.283C103.397 164.75 103.903 163.284 104.8 161.943C105.71 160.591 107.033 159.511 108.772 158.705C110.511 157.886 112.681 157.477 115.283 157.477C117.158 157.477 118.84 157.699 120.329 158.142C121.817 158.574 123.085 159.182 124.13 159.966C125.175 160.739 125.971 161.648 126.516 162.693C127.073 163.727 127.352 164.852 127.352 166.068V184H118.556V180.318H118.352C117.829 181.295 117.192 182.085 116.442 182.688C115.704 183.29 114.857 183.727 113.903 184C112.96 184.273 111.92 184.409 110.783 184.409ZM113.852 178.477C114.567 178.477 115.238 178.33 115.863 178.034C116.499 177.739 117.016 177.312 117.414 176.756C117.812 176.199 118.011 175.523 118.011 174.727V172.545C117.761 172.648 117.494 172.744 117.21 172.835C116.937 172.926 116.641 173.011 116.323 173.091C116.016 173.17 115.687 173.244 115.335 173.312C114.994 173.381 114.636 173.443 114.261 173.5C113.533 173.614 112.937 173.801 112.471 174.062C112.016 174.312 111.675 174.625 111.448 175C111.232 175.364 111.124 175.773 111.124 176.227C111.124 176.955 111.38 177.511 111.891 177.898C112.403 178.284 113.056 178.477 113.852 178.477ZM149.861 157.818V164.636H132.611V157.818H149.861ZM135.952 151.545H145.361V175.58C145.361 175.943 145.423 176.25 145.548 176.5C145.673 176.739 145.867 176.92 146.128 177.045C146.389 177.159 146.725 177.216 147.134 177.216C147.418 177.216 147.747 177.182 148.122 177.114C148.509 177.045 148.793 176.989 148.975 176.943L150.338 183.557C149.918 183.682 149.315 183.835 148.531 184.017C147.759 184.199 146.838 184.318 145.77 184.375C143.611 184.489 141.798 184.267 140.333 183.71C138.867 183.142 137.764 182.25 137.026 181.034C136.287 179.818 135.929 178.295 135.952 176.466V151.545ZM168.365 184.477C165.569 184.477 163.16 183.943 161.137 182.875C159.126 181.795 157.575 180.25 156.484 178.239C155.404 176.216 154.865 173.795 154.865 170.977C154.865 168.273 155.41 165.909 156.501 163.886C157.592 161.864 159.132 160.29 161.12 159.165C163.109 158.04 165.456 157.477 168.16 157.477C170.137 157.477 171.927 157.784 173.529 158.398C175.132 159.011 176.501 159.903 177.637 161.074C178.774 162.233 179.649 163.642 180.262 165.301C180.876 166.96 181.183 168.83 181.183 170.909V173.091H157.796V167.909H172.524C172.512 167.159 172.319 166.5 171.944 165.932C171.581 165.352 171.086 164.903 170.461 164.585C169.848 164.256 169.149 164.091 168.365 164.091C167.603 164.091 166.904 164.256 166.268 164.585C165.632 164.903 165.12 165.347 164.734 165.915C164.359 166.483 164.16 167.148 164.137 167.909V173.5C164.137 174.341 164.313 175.091 164.666 175.75C165.018 176.409 165.524 176.926 166.183 177.301C166.842 177.676 167.637 177.864 168.569 177.864C169.217 177.864 169.808 177.773 170.342 177.591C170.887 177.409 171.353 177.148 171.74 176.807C172.126 176.455 172.41 176.034 172.592 175.545H181.183C180.887 177.364 180.188 178.943 179.086 180.284C177.984 181.614 176.524 182.648 174.706 183.386C172.899 184.114 170.785 184.477 168.365 184.477ZM196.9 184.341C195.036 184.341 193.32 183.852 191.752 182.875C190.195 181.898 188.945 180.415 188.002 178.426C187.07 176.437 186.604 173.932 186.604 170.909C186.604 167.75 187.093 165.182 188.07 163.205C189.059 161.227 190.331 159.778 191.888 158.858C193.456 157.938 195.104 157.477 196.831 157.477C198.127 157.477 199.263 157.705 200.24 158.159C201.218 158.602 202.036 159.199 202.695 159.949C203.354 160.687 203.854 161.5 204.195 162.386H204.331V149.091H213.74V184H204.4V179.705H204.195C203.831 180.591 203.309 181.386 202.627 182.091C201.956 182.784 201.138 183.335 200.172 183.744C199.218 184.142 198.127 184.341 196.9 184.341ZM200.377 177.114C201.24 177.114 201.979 176.864 202.593 176.364C203.218 175.852 203.695 175.136 204.025 174.216C204.365 173.284 204.536 172.182 204.536 170.909C204.536 169.614 204.365 168.506 204.025 167.585C203.695 166.653 203.218 165.943 202.593 165.455C201.979 164.955 201.24 164.705 200.377 164.705C199.513 164.705 198.775 164.955 198.161 165.455C197.559 165.943 197.093 166.653 196.763 167.585C196.445 168.506 196.286 169.614 196.286 170.909C196.286 172.205 196.445 173.318 196.763 174.25C197.093 175.17 197.559 175.881 198.161 176.381C198.775 176.869 199.513 177.114 200.377 177.114ZM4.54844 221V186.091H19.6166C22.2075 186.091 24.4746 186.602 26.4178 187.625C28.3609 188.648 29.8723 190.085 30.9518 191.938C32.0314 193.79 32.5712 195.955 32.5712 198.432C32.5712 200.932 32.0143 203.097 30.9007 204.926C29.7984 206.756 28.2473 208.165 26.2473 209.153C24.2587 210.142 21.9348 210.636 19.2757 210.636H10.2757V203.273H17.3666C18.4803 203.273 19.4291 203.08 20.2132 202.693C21.0087 202.295 21.6166 201.733 22.0371 201.006C22.4689 200.278 22.6848 199.42 22.6848 198.432C22.6848 197.432 22.4689 196.58 22.0371 195.875C21.6166 195.159 21.0087 194.614 20.2132 194.239C19.4291 193.852 18.4803 193.659 17.3666 193.659H14.0257V221H4.54844ZM47.9939 186.091V221H38.5848V186.091H47.9939ZM62.4834 221.409C60.8129 221.409 59.3357 221.136 58.0516 220.591C56.7788 220.034 55.7788 219.193 55.0516 218.068C54.3243 216.943 53.9607 215.511 53.9607 213.773C53.9607 212.341 54.205 211.119 54.6936 210.108C55.1822 209.085 55.8641 208.25 56.7391 207.602C57.6141 206.955 58.6311 206.46 59.7902 206.119C60.9607 205.778 62.222 205.557 63.5743 205.455C65.0402 205.341 66.2163 205.205 67.1027 205.045C68.0004 204.875 68.6482 204.642 69.0459 204.347C69.4436 204.04 69.6425 203.636 69.6425 203.136V203.068C69.6425 202.386 69.3811 201.864 68.8584 201.5C68.3357 201.136 67.6652 200.955 66.847 200.955C65.9493 200.955 65.2163 201.153 64.6482 201.551C64.0913 201.937 63.7561 202.534 63.6425 203.341H54.9834C55.097 201.75 55.6027 200.284 56.5004 198.943C57.4095 197.591 58.7334 196.511 60.472 195.705C62.2107 194.886 64.3811 194.477 66.9834 194.477C68.8584 194.477 70.5402 194.699 72.0288 195.142C73.5175 195.574 74.7845 196.182 75.83 196.966C76.8754 197.739 77.6709 198.648 78.2163 199.693C78.7732 200.727 79.0516 201.852 79.0516 203.068V221H70.2561V217.318H70.0516C69.5288 218.295 68.8925 219.085 68.1425 219.688C67.4038 220.29 66.5572 220.727 65.6027 221C64.6595 221.273 63.6197 221.409 62.4834 221.409ZM65.5516 215.477C66.2675 215.477 66.9379 215.33 67.5629 215.034C68.1993 214.739 68.7163 214.312 69.1141 213.756C69.5118 213.199 69.7107 212.523 69.7107 211.727V209.545C69.4607 209.648 69.1936 209.744 68.9095 209.835C68.6368 209.926 68.3413 210.011 68.0232 210.091C67.7163 210.17 67.3868 210.244 67.0345 210.312C66.6936 210.381 66.3357 210.443 65.9607 210.5C65.2334 210.614 64.6368 210.801 64.1709 211.062C63.7163 211.312 63.3754 211.625 63.1482 212C62.9322 212.364 62.8243 212.773 62.8243 213.227C62.8243 213.955 63.08 214.511 63.5913 214.898C64.1027 215.284 64.7561 215.477 65.5516 215.477ZM90.7371 230.818C89.6575 230.818 88.6291 230.733 87.6518 230.562C86.6746 230.403 85.8166 230.182 85.078 229.898L87.1234 223.216C87.8962 223.489 88.6007 223.665 89.2371 223.744C89.8848 223.824 90.4359 223.778 90.8905 223.608C91.3564 223.438 91.6916 223.114 91.8962 222.636L92.1007 222.159L82.8962 194.818H92.7143L96.9416 212.955H97.2143L101.51 194.818H111.396L101.851 223.182C101.373 224.625 100.68 225.92 99.7712 227.068C98.8734 228.227 97.6916 229.142 96.2257 229.812C94.7598 230.483 92.9303 230.818 90.7371 230.818ZM125.881 186.091V221H116.472V186.091H125.881ZM133.075 221V194.818H142.485V221H133.075ZM137.78 192.091C136.507 192.091 135.416 191.67 134.507 190.83C133.598 189.989 133.144 188.977 133.144 187.795C133.144 186.614 133.598 185.602 134.507 184.761C135.416 183.92 136.507 183.5 137.78 183.5C139.064 183.5 140.155 183.92 141.053 184.761C141.962 185.602 142.416 186.614 142.416 187.795C142.416 188.977 141.962 189.989 141.053 190.83C140.155 191.67 139.064 192.091 137.78 192.091ZM173.61 203.341H164.951C164.906 202.807 164.718 202.347 164.389 201.96C164.059 201.574 163.633 201.278 163.11 201.074C162.599 200.858 162.031 200.75 161.406 200.75C160.599 200.75 159.906 200.898 159.326 201.193C158.747 201.489 158.463 201.909 158.474 202.455C158.463 202.841 158.627 203.199 158.968 203.528C159.321 203.858 159.997 204.114 160.997 204.295L166.315 205.25C168.997 205.739 170.991 206.562 172.298 207.722C173.616 208.869 174.281 210.409 174.292 212.341C174.281 214.205 173.724 215.824 172.622 217.199C171.531 218.562 170.036 219.619 168.139 220.369C166.252 221.108 164.099 221.477 161.679 221.477C157.679 221.477 154.548 220.659 152.286 219.023C150.036 217.386 148.781 215.227 148.519 212.545H157.86C157.985 213.375 158.394 214.017 159.088 214.472C159.792 214.915 160.679 215.136 161.747 215.136C162.61 215.136 163.321 214.989 163.877 214.693C164.446 214.398 164.735 213.977 164.747 213.432C164.735 212.932 164.485 212.534 163.997 212.239C163.519 211.943 162.769 211.705 161.747 211.523L157.11 210.705C154.44 210.239 152.44 209.352 151.11 208.045C149.781 206.739 149.122 205.057 149.133 203C149.122 201.182 149.599 199.642 150.565 198.381C151.542 197.108 152.934 196.142 154.741 195.483C156.559 194.812 158.713 194.477 161.201 194.477C164.985 194.477 167.968 195.261 170.15 196.83C172.343 198.398 173.497 200.568 173.61 203.341ZM195.911 194.818V201.636H178.661V194.818H195.911ZM182.002 188.545H191.411V212.58C191.411 212.943 191.473 213.25 191.598 213.5C191.723 213.739 191.917 213.92 192.178 214.045C192.439 214.159 192.775 214.216 193.184 214.216C193.468 214.216 193.797 214.182 194.172 214.114C194.559 214.045 194.843 213.989 195.025 213.943L196.388 220.557C195.968 220.682 195.365 220.835 194.581 221.017C193.809 221.199 192.888 221.318 191.82 221.375C189.661 221.489 187.848 221.267 186.383 220.71C184.917 220.142 183.814 219.25 183.076 218.034C182.337 216.818 181.979 215.295 182.002 213.466V188.545ZM225.801 203.341H217.142C217.096 202.807 216.909 202.347 216.579 201.96C216.25 201.574 215.824 201.278 215.301 201.074C214.79 200.858 214.221 200.75 213.596 200.75C212.79 200.75 212.096 200.898 211.517 201.193C210.937 201.489 210.653 201.909 210.665 202.455C210.653 202.841 210.818 203.199 211.159 203.528C211.511 203.858 212.187 204.114 213.187 204.295L218.506 205.25C221.187 205.739 223.182 206.562 224.489 207.722C225.807 208.869 226.471 210.409 226.483 212.341C226.471 214.205 225.915 215.824 224.812 217.199C223.721 218.562 222.227 219.619 220.329 220.369C218.443 221.108 216.29 221.477 213.869 221.477C209.869 221.477 206.739 220.659 204.477 219.023C202.227 217.386 200.971 215.227 200.71 212.545H210.051C210.176 213.375 210.585 214.017 211.278 214.472C211.983 214.915 212.869 215.136 213.937 215.136C214.801 215.136 215.511 214.989 216.068 214.693C216.636 214.398 216.926 213.977 216.937 213.432C216.926 212.932 216.676 212.534 216.187 212.239C215.71 211.943 214.96 211.705 213.937 211.523L209.301 210.705C206.631 210.239 204.631 209.352 203.301 208.045C201.971 206.739 201.312 205.057 201.324 203C201.312 201.182 201.79 199.642 202.756 198.381C203.733 197.108 205.125 196.142 206.932 195.483C208.75 194.812 210.903 194.477 213.392 194.477C217.176 194.477 220.159 195.261 222.341 196.83C224.534 198.398 225.687 200.568 225.801 203.341Z" fill="white"/>
</svg>
