<svg width="300" height="289" viewBox="0 0 300 289" fill="none" xmlns="http://www.w3.org/2000/svg">
<path d="M210.833 240.343C211.297 242.448 211.648 253.138 211.072 257.295C210.497 261.453 209.345 262.835 209.374 266.764C209.402 270.694 210.763 274.946 211.198 275.764C211.634 276.582 216.463 277.467 218.105 277.454C219.747 277.454 249.746 273.511 251.922 273.671C254.098 273.846 269.652 272.25 271.294 271.874C272.951 271.485 272.151 268.266 271.154 265.973C270.157 263.68 267.771 262.727 266.072 262.325C264.388 261.923 248.932 259.213 246.209 257.591C243.499 255.968 237.744 249.53 237.154 248.095C236.565 246.646 235.989 235.957 235.989 235.957L210.805 240.343H210.833Z" fill="#F8BFB5"/>
<path d="M139.156 187.607L200.165 190.142L200.824 203.286C200.824 203.286 207.927 221.781 208.461 226.69C208.994 231.598 209.107 240.973 209.107 240.973C209.107 240.973 215.353 242.811 223.074 242.69C230.795 242.569 237.898 237.768 237.898 237.768C237.898 237.768 230.177 177.092 227.749 168.294C225.32 159.496 220.056 155.137 215.62 154.962C211.184 154.788 145.01 151.006 145.01 151.006L139.156 187.62V187.607Z" fill="#5D6CAF"/>
<path d="M93.2383 149.182L93.4769 155.244C93.4769 155.244 95.6949 154.56 109.761 166.336C123.841 178.111 127.996 186.413 127.996 186.413L139.998 188.304C139.998 188.304 143.353 179.291 145.992 173.873C148.617 168.455 150.821 154.976 150.821 154.976L149.179 146.258L93.9261 148.135L93.2383 149.182Z" fill="#5D6CAF"/>
<path d="M210.65 253.097C213.935 254.613 228.52 253.258 228.52 253.258L229.966 257.899L230.079 252.426C230.079 252.426 231.735 252.346 234.332 251.984C236.929 251.608 238.796 249.892 238.796 249.892C238.796 249.892 241.028 253.191 243.429 254.747C245.829 256.289 252.286 259.039 257.172 259.454C262.057 259.857 269.848 261.694 271.28 263.33C272.711 264.967 273.217 272.223 273.217 272.223C273.217 272.223 271.659 273.067 270.381 273.336C269.104 273.604 246.643 275.227 244.79 275.374C242.937 275.522 239.61 278.66 239.161 278.754C238.698 278.848 215.788 279.586 213.753 279.17C211.703 278.754 210.847 278.419 210.159 275.455C209.457 272.491 208.741 268.695 208.727 266.053C208.713 263.411 208.966 263.076 209.92 259.723C210.861 256.37 210.664 253.111 210.664 253.111L210.65 253.097Z" fill="#221D31"/>
<path d="M231.189 252.347C230.473 252.414 230.066 252.427 230.066 252.427L229.953 257.899L228.508 253.259C228.508 253.259 227.707 253.326 226.57 253.42C227.778 258.905 228.423 271.767 228.423 271.767L232.691 271.646C232.691 271.646 233.014 266.054 232.508 261.52C232.143 258.221 231.512 254.265 231.203 252.36L231.189 252.347Z" fill="#221D31"/>
<path d="M238.783 249.879C238.783 249.879 237.295 251.247 235.119 251.81C237.477 254.412 238.895 256.88 245.1 259.093C251.796 261.493 258.169 263.022 262.619 263.519C266.915 264.001 270.158 263.572 269.54 262.231C266.606 260.944 260.977 259.736 257.144 259.428C252.259 259.026 245.802 256.276 243.401 254.72C241.001 253.178 238.769 249.865 238.769 249.865L238.783 249.879Z" fill="white"/>
<path d="M213.318 178.567C213.219 178.567 213.135 178.581 213.065 178.634C209.359 181.424 205.569 184.321 202.817 188.103C202.705 188.251 202.747 188.465 202.902 188.573C203.056 188.68 203.281 188.653 203.393 188.506C206.074 184.831 209.794 181.974 213.5 179.184C213.64 179.064 213.669 178.862 213.556 178.715C213.5 178.648 213.416 178.594 213.332 178.581L213.318 178.567Z" fill="#232763"/>
<path d="M210.791 188.156C208.293 188.854 205.541 189.404 203.351 191.04C203.197 191.147 203.169 191.362 203.281 191.509C203.408 191.657 203.618 191.67 203.773 191.563C205.794 190.048 208.433 189.498 210.974 188.8C211.156 188.747 211.269 188.559 211.213 188.384C211.156 188.21 210.96 188.103 210.777 188.156H210.791Z" fill="#232763"/>
<path d="M209.219 192.838C209.036 192.825 208.868 192.945 208.84 193.12C208.811 193.307 208.952 193.468 209.134 193.495C210.538 193.656 210.889 193.75 211.268 193.777C211.647 193.79 211.9 193.723 213.023 193.576C213.219 193.549 213.346 193.388 213.318 193.2C213.29 193.012 213.121 192.892 212.925 192.918C211.787 193.066 211.549 193.12 211.282 193.106C211.015 193.106 210.608 192.999 209.205 192.838H209.219Z" fill="#232763"/>
<path d="M230.037 212.688C229.84 212.688 229.7 212.848 229.7 213.036C229.925 218.455 228.296 222.492 225.517 225.939C222.751 229.385 218.821 232.229 214.413 235.179C214.258 235.287 214.216 235.488 214.315 235.649C214.427 235.81 214.637 235.85 214.806 235.743C219.214 232.779 223.201 229.895 226.064 226.354C228.914 222.814 230.612 218.589 230.388 213.023C230.388 212.835 230.219 212.688 230.023 212.701C230.023 212.701 230.023 212.701 230.009 212.701L230.037 212.688Z" fill="#232763"/>
<path d="M220.42 226.327C220.336 226.327 220.252 226.367 220.182 226.434C218.806 227.937 217.416 229.439 216.04 230.941C215.914 231.088 215.928 231.29 216.082 231.41C216.223 231.531 216.447 231.518 216.574 231.383C217.95 229.881 219.339 228.379 220.715 226.877C220.841 226.743 220.827 226.528 220.687 226.408C220.617 226.354 220.518 226.327 220.434 226.327H220.42Z" fill="#232763"/>
<path d="M154.891 78.7021C161.573 84.2011 166.852 92.0202 168.171 94.877C169.491 97.7337 168.578 105.258 167.497 110.314C166.43 115.384 168.522 119.327 168.62 120.494C168.719 121.661 165.097 134.201 165.757 137.862C166.416 141.524 165.7 145.708 159.945 147.143C154.189 148.578 145.949 145.708 145.57 141.551C145.191 137.393 143.563 118.348 143.633 111.253C143.703 104.158 144.475 94.9977 145.121 91.0277C145.767 87.0578 146.581 85.9312 148.139 83.1013C149.697 80.2713 154.891 78.7021 154.891 78.7021Z" fill="#221D31"/>
<path d="M153.77 129.546C156.55 121.955 159.919 118.736 165.071 117.113C170.222 115.491 179.544 108.369 182.772 106.491C185.987 104.614 188.949 103.031 190.661 104.238C192.374 105.445 195.898 111.494 197.708 115.786C199.519 120.077 200.516 125.791 200.53 127.333C200.53 128.862 179.768 147.344 172.061 149.114C164.369 150.885 159.119 153.272 154.739 148.269C150.359 143.267 149.938 144.259 150.148 139.659C150.359 135.059 153.784 129.56 153.784 129.56L153.77 129.546Z" fill="white"/>
<path d="M189.51 103.89C185.453 104.614 186.871 110.797 188.949 116.604C191.04 122.425 194.578 127.213 197.329 128.031C200.081 128.849 200.361 128.259 199.828 125.067C199.295 121.875 196.922 112.125 194.115 108.034C191.307 103.943 189.51 103.89 189.51 103.89Z" fill="white"/>
<path d="M214.313 94.6355C212.418 94.6891 209.625 96.0169 206.003 96.607C206.003 96.607 200.29 99.8393 195.826 103.702C194.689 104.694 193.678 105.513 192.765 106.264C190.73 107.927 189.102 109.228 187.305 111.079C187.305 111.132 187.319 111.172 187.333 111.226C187.375 111.4 187.403 111.575 187.445 111.736C187.487 111.91 187.529 112.084 187.571 112.259C187.614 112.433 187.656 112.607 187.712 112.795C187.754 112.97 187.81 113.157 187.866 113.332C187.922 113.506 187.979 113.694 188.035 113.868C188.091 114.043 188.147 114.23 188.203 114.418C188.315 114.78 188.442 115.142 188.568 115.518C188.694 115.88 188.821 116.242 188.947 116.604C189.017 116.792 189.073 116.966 189.144 117.141C189.214 117.315 189.284 117.503 189.354 117.677C189.424 117.852 189.495 118.026 189.565 118.2C189.635 118.375 189.705 118.549 189.789 118.723C189.86 118.898 189.944 119.072 190.014 119.233C190.098 119.407 190.168 119.568 190.253 119.729C190.337 119.89 190.407 120.065 190.491 120.225C190.576 120.386 190.66 120.547 190.744 120.708C190.828 120.869 190.912 121.03 190.997 121.178C191.081 121.339 191.165 121.486 191.249 121.647C191.334 121.795 191.418 121.956 191.516 122.103C191.6 122.251 191.699 122.398 191.783 122.546C191.867 122.693 191.965 122.827 192.049 122.975C192.134 123.109 192.232 123.257 192.33 123.391C192.414 123.525 192.513 123.659 192.611 123.793C192.709 123.927 192.793 124.048 192.892 124.182C192.99 124.303 193.074 124.437 193.173 124.558C193.271 124.678 193.355 124.799 193.453 124.92C193.552 125.04 193.636 125.148 193.734 125.255C193.79 125.322 193.846 125.389 193.902 125.456C194.211 125.268 194.534 125.094 194.843 124.92C195.741 124.437 197.454 123.994 199.532 123.605C205.077 122.532 213.218 121.741 215.479 121.272C218.581 120.628 219.03 118.12 219.381 115.303C219.732 112.487 218.721 109.295 218.511 105.378C218.3 101.462 217.107 95.3329 215.254 94.7428C214.959 94.6489 214.65 94.6221 214.299 94.6221L214.313 94.6355Z" fill="white"/>
<path d="M213.585 85.1132C213.164 85.14 212.715 85.6496 211.886 86.6555C210.328 88.5332 205.668 91.9533 203.548 92.7178C201.442 93.4822 197.399 95.4001 196.431 97.1973C195.476 99.008 194.409 102.589 193.623 103.689C193.399 104.011 192.739 104.614 191.911 105.325C190.072 106.908 187.587 108.826 187.025 109.268C187.039 109.416 187.053 109.563 187.082 109.711C187.11 109.872 187.124 110.033 187.166 110.194C187.194 110.354 187.222 110.529 187.264 110.69C187.292 110.851 187.334 111.025 187.376 111.199C187.418 111.374 187.447 111.548 187.489 111.709C187.531 111.883 187.573 112.058 187.615 112.232C187.657 112.407 187.699 112.581 187.755 112.769C187.797 112.943 187.854 113.131 187.91 113.305C187.966 113.479 188.022 113.667 188.078 113.842C188.134 114.016 188.191 114.204 188.247 114.391C188.359 114.754 188.485 115.116 188.612 115.491C188.738 115.853 188.864 116.215 188.991 116.578C189.061 116.765 189.117 116.94 189.187 117.114C189.257 117.288 189.328 117.476 189.398 117.651C189.44 117.758 189.496 117.879 189.538 117.986C191.419 116.926 194.072 115.438 196.866 113.815C201.905 110.891 207.113 107.712 207.759 106.733C209.037 104.789 209.233 100.336 209.57 98.6056C209.921 96.862 213.599 94.4211 215.438 92.5032C217.277 90.5718 216.252 87.7419 214.961 86.1593C214.357 85.4217 213.992 85.0595 213.613 85.0863L213.585 85.1132Z" fill="#F8BFB5"/>
<path d="M157.041 151.837C134.608 156.263 105.719 149.154 105.719 149.154L101.002 67.0732L143.593 75.5898C143.593 75.5898 146.428 99.4765 149.362 116.402C152.296 133.328 157.055 151.837 157.055 151.837H157.041Z" fill="#FBD69D"/>
<path d="M138.539 70.3458C142.329 79.9622 145.404 120.6 145.404 120.6C145.404 120.6 142.399 162.714 141.375 166.55C140.35 170.386 144.112 172.156 147.481 172.062C150.85 171.955 157.041 169.769 159.329 166.147C161.617 162.526 165.871 158.476 167.162 156.638C168.454 154.801 166.839 154.104 164.018 149.061C161.196 144.018 157.364 135.528 158.206 129.707C159.048 123.873 158.936 101.408 158.894 95.0373C158.852 88.6666 157.56 81.8265 156.564 80.0561C155.553 78.2723 150.878 74.8254 145.53 71.7943C140.182 68.7498 138.539 70.3458 138.539 70.3458Z" fill="#221D31"/>
<path d="M127.35 115.183C127.35 115.183 122.872 165.424 122.142 170.44C121.412 175.456 84.2823 169.032 77.9513 168.214C71.6202 167.382 70.8201 167.65 71.4939 164.338C72.1677 161.025 75.5508 132.323 76.7721 117.718C77.9934 103.125 72.7433 84.0669 70.8903 76.7843C69.0232 69.4882 73.1644 58.0612 74.0628 56.4249C74.9612 54.7887 83.033 53.1524 89.1535 53.8901C95.288 54.6411 98.6851 56.3042 98.6851 56.3042C98.6851 56.3042 104.904 60.1937 109.298 65.1561C113.692 70.1185 114.323 77.7902 116.892 82.4978C119.447 87.2054 123.588 98.5116 124.388 100.765C125.189 103.018 127.35 115.169 127.35 115.169V115.183Z" fill="#221D31"/>
<path d="M115.544 37.1918C115.544 37.1918 109.62 49.8527 107.346 51.8243C105.072 53.7824 101.871 55.365 101.871 55.365C101.871 55.365 105.212 59.9251 108.328 64.2974C111.445 68.6697 112.68 70.9899 117.214 75.0672C121.749 79.1578 130.298 84.1739 130.298 84.1739C130.298 84.1739 134.677 78.9566 135.983 76.3815C137.274 73.8199 137.906 71.8483 137.387 71.1911C136.853 70.5473 129.68 67.3687 129.441 66.6579C129.203 65.947 134.818 53.1386 134.818 53.1386C134.818 53.1386 126.746 41.2288 123.124 38.3318C119.489 35.4348 115.544 37.1784 115.544 37.1784V37.1918Z" fill="#F8BFB5"/>
<path d="M116.106 37.0039C115.755 37.1112 115.545 37.2051 115.545 37.2051C115.545 37.2051 114.927 38.5195 114.057 40.2898C115.741 43.616 120.275 52.4411 122.746 56.0891C125.329 59.8981 128.221 60.837 131.632 60.6626C133.12 57.0548 134.833 53.1653 134.833 53.1653C134.833 53.1653 129.751 45.668 125.848 41.1348C124.529 40.5715 122.844 39.8472 120.542 38.7206C118.619 37.7818 117.187 37.2587 116.134 37.0173L116.106 37.0039Z" fill="#C66A6A"/>
<path d="M127.349 115.183C127.349 115.183 124.724 90.1694 119.797 77.7902C114.87 65.411 105.773 55.2716 103.836 53.9572C101.899 52.6428 94.9501 52.8842 93.2235 52.6965C91.5109 52.5087 90.051 60.918 91.0898 61.2801C92.1286 61.6422 103.499 62.9566 105.24 64.043C106.981 65.1293 102.222 72.1974 102.559 73.8874C102.896 75.5907 113.213 84.7108 118.211 92.3556C123.194 100 127.335 115.169 127.335 115.169L127.349 115.183Z" fill="#221D31"/>
<path d="M144.982 120.494C144.982 120.494 143.592 105.043 139.844 89.7267C136.096 74.4102 133.387 69.8234 132.362 68.6833C131.337 67.5433 129.653 68.12 129.512 66.6715C129.372 65.2231 130.706 63.4795 130.706 63.4795C130.706 63.4795 148.323 72.774 151.074 74.826C153.826 76.8915 153.952 77.3877 153.124 79.319C152.296 81.2369 150.176 85.5288 150.176 85.5288C150.176 85.5288 156.872 93.254 156.479 95.9767C156.086 98.6993 144.968 120.507 144.968 120.507L144.982 120.494Z" fill="#221D31"/>
<path d="M96.6914 119.541C96.6914 119.541 98.4321 92.6768 98.5725 88.2241C98.7269 83.7713 96.1159 73.31 95.3859 71.2043C94.6419 69.0986 83.1589 57.1083 79.1863 55.7403C75.1995 54.3723 72.9535 54.6539 70.5109 57.9265C68.0683 61.199 60.7266 74.7987 60.4318 79.9489C60.137 85.0991 68.1525 140.209 69.1211 144.688C70.0757 149.155 80.1689 147.277 87.0755 145.01C93.9821 142.757 96.1158 131.048 96.6914 119.554V119.541Z" fill="#221D31"/>
<path d="M73.7672 138.251C73.9076 130.82 80.758 122.867 80.758 122.867C80.758 122.867 96.7752 114.404 101.001 115.33C105.226 116.242 110.785 120.989 111.838 129.774C112.891 138.559 106.503 143.951 106.503 143.951C106.503 143.951 83.5796 151.582 79.4104 152.347C75.2412 153.111 70.7912 148.792 69.612 145.949C68.4328 143.106 73.7532 138.264 73.7532 138.264L73.7672 138.251Z" fill="white"/>
<path d="M101.029 115.692C94.923 116.229 94.6282 121.607 93.421 125.523C92.2137 129.44 94.909 139.257 97.7166 140.746C100.51 142.235 104.188 143.951 106.981 142.959C109.775 141.966 112.119 134.348 111.726 130.7C111.333 127.052 109.508 120.762 106.308 117.959C103.093 115.169 101.044 115.692 101.044 115.692H101.029Z" fill="white"/>
<path d="M91.6386 126.837L98.2083 121.861L105.297 128.742L95.1761 142.704C95.1761 142.704 92.8458 144.46 90.1786 138.076C87.4974 131.692 91.6526 126.824 91.6526 126.824L91.6386 126.837Z" fill="white"/>
<path d="M97.3092 122.868C97.3092 122.868 99.6536 116.819 100.215 115.88C100.777 114.941 101.815 115.786 101.886 113.855C101.942 111.924 101.829 111.696 103.219 110.77C104.609 109.845 105.325 110.019 105.521 108.329C105.732 106.626 107.164 105.714 108.582 105.017C109.985 104.319 109.831 103.058 110.673 101.757C111.515 100.456 115.685 98.7933 117.945 99.759C120.205 100.725 119.896 105.432 119.812 107.565C119.728 109.697 115.811 114.043 113.663 116.926C111.515 119.81 112.203 125.121 109.466 127.508C106.729 129.896 105.858 128.568 103.458 130.405C101.057 132.243 101.015 132.86 97.955 129.855C94.8947 126.865 96.6214 125.175 97.3092 122.854V122.868Z" fill="#F8BFB5"/>
<path d="M105.24 121.057L149.024 74.3161C149.024 74.3161 149.614 74.0612 150.428 74.7318C151.242 75.4024 150.821 75.8987 150.821 75.8987L108.609 126.743C108.609 126.743 108.09 127.347 106.083 125.496C104.061 123.659 105.24 121.057 105.24 121.057Z" fill="#D47D22"/>
<path d="M115.952 99.4367C115.952 99.4367 118.436 98.5381 120.289 98.7393C122.142 98.9405 125.596 101.14 127.393 102.468C129.189 103.796 129.919 107.591 131.239 109.268C132.558 110.944 131.141 111.923 129.035 111.923C126.929 111.923 125.006 108.959 123.869 108.101C122.732 107.242 118.212 106.223 116.443 106.25C114.66 106.29 113.032 106.491 112.793 104.117C112.555 101.744 115.966 99.4233 115.966 99.4233L115.952 99.4367Z" fill="#F8BFB5"/>
<path d="M148.953 75.9795C148.953 75.9795 147.887 74.6383 148.701 72.6533C149.515 70.6683 154.021 65.5047 156.927 67.9859C159.833 70.4671 154.077 78.9435 148.953 75.966V75.9795Z" fill="#D47D22"/>
<path d="M114.309 103.89C114.309 103.89 124.697 113.372 125.259 114.646C125.82 115.934 122.592 118.375 121.623 118.187C120.655 117.999 112.12 111.199 112.12 111.199C112.12 111.199 111.319 109.08 111.755 106.988C112.204 104.896 114.309 103.89 114.309 103.89Z" fill="#F8BFB5"/>
<path d="M113.201 110.716C113.201 110.716 120.992 117.221 121.469 118.133C121.96 119.045 120.023 120.815 118.732 121.606C117.44 122.398 116.668 121.633 115.573 121.016C114.478 120.399 108.975 117.1 108.863 115.812C108.765 114.525 113.187 110.716 113.187 110.716H113.201Z" fill="#F8BFB5"/>
<path d="M109.972 115.424C109.972 115.424 117.061 120.668 117.257 122.291C117.454 123.913 113.748 126.663 112.723 127.253C111.698 127.843 110.309 126.891 110.309 126.891C110.309 126.891 111.937 126.167 110.716 124.557C109.494 122.934 106.869 120.815 105.789 119.394C104.708 117.972 104.736 117.274 106.125 115.813C107.515 114.364 109.972 115.424 109.972 115.424Z" fill="white"/>
<path d="M218.933 63.5197C218.287 63.6404 218.203 64.2439 218.203 64.2439L203.084 122.425C203.084 122.425 203.73 124.075 206.102 124.531C208.474 124.987 209.738 123.86 209.738 123.86L220.659 64.7402C220.659 64.7402 220.617 63.7477 219.466 63.5331C219.256 63.4929 219.073 63.4928 218.919 63.5197H218.933Z" fill="#D47D22"/>
<path d="M221.531 112.299C223.636 115.196 221.91 118.857 221.095 119.421C220.295 119.984 214.413 121.821 211.648 121.084C208.882 120.359 204.699 119.273 204.432 116.899C204.166 114.512 207.212 113.104 208.532 113.399C209.851 113.68 221.531 112.312 221.531 112.312V112.299Z" fill="white"/>
<path d="M219.859 105.727C223.158 108.235 222.47 109.294 222.596 111.185C222.722 113.076 221.613 114.525 219.802 115.249C217.992 115.96 215.352 116.979 212.924 116.751C210.495 116.523 206.172 115.383 205.259 113.908C204.347 112.433 205.61 110.26 207.744 109.576C209.878 108.892 219.873 105.727 219.873 105.727H219.859Z" fill="white"/>
<path d="M219.704 100.631C221.052 103.031 220.813 105.969 220.644 106.894C220.476 107.82 215.212 111.494 214.384 111.857C213.555 112.232 205.287 113.573 204.08 113.385C202.873 113.198 202.213 111.615 202.395 109.912C202.578 108.208 205.259 106.988 206.873 106.76C208.488 106.545 213.92 102.844 215.829 100.926C217.739 99.0079 219.69 100.617 219.69 100.617L219.704 100.631Z" fill="#F8BFB5"/>
<path d="M214.749 96.2308C215.465 94.2324 217.697 94.2592 218.89 95.52C220.069 96.7941 220.294 98.4974 219.943 99.7716C219.592 101.046 217.514 103.956 216.461 104.519C215.408 105.069 208.853 106.37 207.351 106.974C205.863 107.577 203.589 106.773 204.136 105.378C204.684 103.983 207.098 102.964 209.049 101.971C211.001 100.992 212.11 100.067 212.854 99.4228C213.598 98.7791 214.749 96.2442 214.749 96.2442V96.2308Z" fill="#F8BFB5"/>
<path d="M221.137 55.9951C223.327 56.3974 224.563 59.4017 223.889 62.7011C223.215 66.0004 220.899 68.3475 218.709 67.9451C216.519 67.5428 215.284 64.5385 215.957 61.2392C216.631 57.9398 218.947 55.5927 221.137 55.9951Z" fill="#D47D22"/>
<path d="M89.1678 63.8821C89.0274 64.0162 89.0274 64.2174 89.1678 64.3515C100.047 75.2555 98.3766 92.9324 96.4955 107.042C96.4674 107.23 96.6079 107.391 96.7903 107.417C96.9869 107.444 97.1553 107.31 97.1834 107.136C99.0785 92.9994 100.833 75.0811 89.6732 63.8955C89.5328 63.7614 89.3222 63.7614 89.1818 63.8955L89.1678 63.8821Z" fill="white"/>
<path d="M91.6384 53.7957C91.4419 53.7689 91.2594 53.8896 91.2313 54.0774C91.2032 54.2651 91.3296 54.4261 91.5121 54.4663C92.0174 54.5468 92.3263 54.6809 92.4807 54.7882C92.6351 54.9089 92.6632 54.976 92.6632 55.1369C92.6632 55.4454 92.3122 56.0221 91.835 56.6391C91.3577 57.256 90.754 57.9132 90.3469 58.5704C90.1364 58.8923 89.9679 59.2276 89.8977 59.5629C89.8275 59.8982 89.8556 60.2603 90.0662 60.5688C90.6838 61.4942 91.9753 62.0977 93.5897 62.6208C95.204 63.1438 97.1693 63.5462 99.1908 63.8949C101.212 64.257 103.262 64.5655 105.045 64.9008C106.827 65.2361 108.343 65.5982 109.214 66.014C109.382 66.0945 109.593 66.0274 109.691 65.8665C109.775 65.7055 109.691 65.5043 109.523 65.4239C108.512 64.9545 106.982 64.6057 105.185 64.2704C103.388 63.9351 101.325 63.6267 99.3311 63.2646C97.3237 62.9158 95.3865 62.5001 93.8283 62.0038C92.2701 61.5076 91.119 60.8906 90.6698 60.2201C90.5715 60.0859 90.5575 59.925 90.6137 59.7104C90.6558 59.4958 90.7821 59.2276 90.9646 58.9325C91.3296 58.3558 91.9192 57.6986 92.4105 57.0548C92.9159 56.4111 93.3791 55.8075 93.3791 55.1503C93.3791 54.8284 93.2247 54.4931 92.9158 54.2651C92.6211 54.0371 92.214 53.8896 91.6384 53.7957Z" fill="white"/>
<path d="M105.212 63.6135C105.029 63.6671 104.931 63.8415 104.973 64.0159C105.464 65.7058 104.594 67.3956 103.611 69.1526C102.643 70.9096 101.562 72.747 101.969 74.6918C102.32 76.3951 103.611 78.1521 105.38 80.0431C107.149 81.9342 109.395 83.946 111.683 86.0383C116.259 90.2362 121.004 94.7963 122.45 99.3563C122.506 99.5307 122.703 99.638 122.885 99.5844C123.068 99.5307 123.166 99.3429 123.11 99.1686C121.58 94.3403 116.737 89.7534 112.16 85.5555C109.872 83.4498 107.64 81.4514 105.914 79.6005C104.187 77.7497 102.966 76.033 102.657 74.5577C102.32 72.9214 103.26 71.2449 104.243 69.4745C105.226 67.7041 106.222 65.8265 105.647 63.8415C105.591 63.6671 105.394 63.5598 105.212 63.6135Z" fill="white"/>
<path d="M145.894 81.29C145.809 81.29 145.711 81.3303 145.655 81.3973C145.529 81.5315 145.543 81.7461 145.683 81.8668C152.969 87.9692 155.748 92.945 155.524 98.3366C155.313 103.728 152.056 109.616 147.059 117.435C146.96 117.596 147.017 117.797 147.171 117.891C147.339 117.985 147.55 117.945 147.648 117.784C152.66 109.951 156.001 103.996 156.211 98.3635C156.436 92.7439 153.488 87.54 146.132 81.3705C146.062 81.3169 145.964 81.29 145.88 81.29H145.894Z" fill="white"/>
<path d="M152.59 75.7246C152.393 75.7514 152.267 75.9258 152.295 76.1135C152.828 79.2251 151.326 81.7198 149.389 84.5094C149.277 84.6704 149.333 84.8716 149.487 84.9789C149.656 85.0861 149.866 85.0325 149.979 84.885C151.944 82.0819 153.572 79.3861 152.997 76.0197C152.969 75.8319 152.786 75.7112 152.59 75.738V75.7246Z" fill="white"/>
<path d="M138.609 68.683C138.427 68.6294 138.23 68.7233 138.174 68.8976C138.118 69.072 138.216 69.2597 138.399 69.3134C139.732 69.7158 141.164 70.2254 142.652 70.4266C142.849 70.4534 143.017 70.3327 143.059 70.1449C143.087 69.9572 142.947 69.7962 142.764 69.7694C141.375 69.5816 139.971 69.0988 138.623 68.6964L138.609 68.683Z" fill="white"/>
<path d="M159.187 88.2917C158.99 88.3051 158.85 88.466 158.864 88.6538C159.622 97.0229 160.759 106.653 158.022 114.686C157.965 114.861 158.064 115.049 158.246 115.102C158.429 115.156 158.625 115.062 158.695 114.888C161.503 106.653 160.324 96.9558 159.566 88.5867C159.552 88.399 159.383 88.2649 159.187 88.2783V88.2917Z" fill="white"/>
<path d="M79.8043 75.188C79.6077 75.1612 79.4393 75.2953 79.4112 75.4831C79.3972 75.6708 79.5235 75.8318 79.706 75.8586C86.6407 76.6499 93.2665 78.7019 97.6604 84.1606C97.7727 84.3081 97.9973 84.3349 98.1517 84.2277C98.3061 84.1204 98.3342 83.9058 98.2078 83.7582C93.6455 78.0984 86.8091 76.0061 79.7902 75.188H79.8043Z" fill="white"/>
<path d="M88.2261 80.6738C88.0436 80.6335 87.8471 80.7543 87.805 80.9286C87.7629 81.103 87.8892 81.2907 88.0717 81.331C88.198 81.3578 88.3384 81.3846 88.4647 81.4114H88.4367C89.7141 81.7601 90.9916 82.1089 92.255 82.4576C92.4375 82.5112 92.634 82.4039 92.6901 82.2296C92.7463 82.0552 92.634 81.8674 92.4515 81.8138C91.1741 81.4651 89.8966 81.103 88.6332 80.7543H88.6192C88.4928 80.7274 88.3525 80.7006 88.2261 80.6738Z" fill="white"/>
<path d="M166.628 94.8499C163.666 96.2045 161.49 98.27 159.931 101.314C159.847 101.475 159.932 101.677 160.1 101.757C160.268 101.838 160.479 101.757 160.563 101.61C162.065 98.6857 164.101 96.741 166.922 95.4535C167.091 95.373 167.175 95.1718 167.091 95.0109C167.007 94.8499 166.796 94.7695 166.628 94.8499Z" fill="white"/>
<path d="M166.487 98.5517C166.388 98.5383 166.29 98.5517 166.22 98.6054C162.696 100.818 164.184 99.5174 161.433 103.018C161.307 103.165 161.335 103.38 161.489 103.487C161.644 103.595 161.868 103.568 161.981 103.42C164.76 99.8795 163.033 101.395 166.599 99.1552C166.767 99.0614 166.81 98.8468 166.697 98.6858C166.641 98.6188 166.571 98.5651 166.487 98.5517Z" fill="white"/>
<path d="M156.239 20.0243C156.239 20.0243 156.548 27.3875 156.239 29.4932C155.93 31.5989 154.611 32.1756 154.484 33.4899C154.358 34.8043 155.046 36.0516 154.597 38.5865C154.147 41.1213 149.754 49.3295 147.873 52.2667C145.991 55.2173 144.925 56.1696 143.647 56.867C142.37 57.5644 136.811 57.9936 134.579 56.7999C131.785 55.2978 122.043 46.7812 120.555 44.9974C119.067 43.2136 118.183 40.6385 118.183 40.6385C118.183 40.6385 116.105 41.1616 114.743 40.5983C113.382 40.035 113.382 39.4046 112.918 38.6938C112.455 37.9695 108.23 31.8671 107.949 30.432C107.682 28.9969 108.637 26.4218 110.083 25.3087C111.529 24.182 110.869 24.4235 110.869 24.4235C110.869 24.4235 107.626 1.35489 131.42 0.0941707C155.214 -1.17997 155.663 17.5968 156.211 20.0511L156.239 20.0243Z" fill="#F8BFB5"/>
<path d="M111.135 27.3605C110.573 27.5214 110.068 27.9238 109.633 28.5407C109.506 28.7151 109.562 28.9699 109.745 29.0906C109.927 29.2113 110.194 29.1577 110.32 28.9833C110.685 28.4737 111.05 28.2188 111.387 28.1249C111.724 28.0176 112.075 28.0579 112.482 28.2322C113.268 28.5809 114.167 29.5064 114.883 30.6598C115.599 31.8132 116.146 33.1812 116.371 34.3883C116.581 35.582 116.427 36.5477 115.978 36.9768C115.809 37.1244 115.809 37.3792 115.964 37.5401C116.132 37.7011 116.385 37.7011 116.553 37.5401C117.339 36.7891 117.424 35.5686 117.185 34.2542C116.946 32.9398 116.371 31.4913 115.599 30.2574C114.827 29.0235 113.9 27.9774 112.833 27.5214C112.3 27.2934 111.71 27.2129 111.149 27.3873L111.135 27.3605Z" fill="#9E3A3B"/>
<path d="M112.904 30.1234C112.146 30.5391 111.725 31.4377 111.697 32.4839C111.697 32.6984 111.866 32.8862 112.104 32.8862C112.329 32.8862 112.525 32.7253 112.525 32.4973C112.554 31.6255 112.89 31.0219 113.298 30.8074C113.705 30.5794 114.294 30.6196 115.108 31.317C115.277 31.4646 115.53 31.4511 115.684 31.2902C115.838 31.1292 115.824 30.8744 115.656 30.7269C114.687 29.8953 113.663 29.7076 112.904 30.1234Z" fill="#9E3A3B"/>
<path d="M133.595 0C132.894 0 132.178 0.026828 131.434 0.0670639C107.752 1.32779 110.854 24.1684 110.882 24.3829C111.093 24.3293 111.346 24.3159 111.654 24.3829C112.876 24.6244 115.037 26.8105 115.571 26.9849C116.104 27.1458 117.157 26.7032 117.157 26.7032L117.34 25.4022C118.126 22.8272 122 17.4624 123.558 15.8663C125.117 14.2703 127.882 13.868 130.591 14.1362C133.301 14.4045 135.252 15.4774 135.912 15.8663C136.571 16.2553 137.526 18.2805 138.775 19.112C140.025 19.9436 145.121 20.8824 146.58 20.7483C148.04 20.6142 149.781 18.7633 150.511 17.6233C151.241 16.4833 151.69 15.5445 152.617 15.8127C153.529 16.0809 155.902 19.729 156.21 19.957C156.21 19.957 156.224 19.957 156.238 19.957C155.705 17.3148 155.059 -0.0268182 133.624 0.0268296L133.595 0Z" fill="#ECA699"/>
<path d="M133.652 31.0755C134.522 31.2096 135.028 32.5642 134.761 34.0798C134.494 35.5953 133.568 36.7219 132.683 36.5744C131.799 36.4269 131.308 35.0857 131.574 33.5701C131.841 32.0546 132.768 30.928 133.652 31.0755Z" fill="#221D31"/>
<path d="M150.694 31.7864C151.564 31.9205 152.07 33.2752 151.803 34.7907C151.536 36.3063 150.61 37.4329 149.725 37.2853C148.855 37.1512 148.35 35.7966 148.616 34.2811C148.883 32.7655 149.81 31.6389 150.694 31.7864Z" fill="#221D31"/>
<path d="M146.074 35.7696C145.794 37.1778 145.653 38.1837 146.369 39.1762C147.071 40.1687 147.604 40.7588 147.408 41.4562C147.211 42.1536 146.524 43.4546 146.524 43.4546C146.524 43.4546 148.04 42.4487 148.475 41.5233C148.91 40.5979 147.955 40.1016 147.282 38.9884C146.622 37.8752 146.776 37.0705 146.776 36.4133C146.776 35.7562 146.074 35.7696 146.074 35.7696Z" fill="#D17D6E"/>
<path d="M142.607 43.2266C140.923 42.9449 140.544 42.851 139.814 42.2207C139.084 41.5769 138.115 40.1016 138.115 40.1016C138.115 40.1016 138.466 42.5291 139.084 42.9047C139.702 43.2802 142.593 43.2266 142.593 43.2266H142.607Z" fill="#D17D6E"/>
<path d="M144.601 47.4112C142.65 47.4514 141.092 47.505 139.66 47.277C138.242 47.049 134.045 44.7422 134.045 44.7422C134.045 44.7422 137.498 47.7465 139.885 48.1756C142.271 48.6048 144.601 47.4112 144.601 47.4112Z" fill="#D17D6E"/>
<path d="M138.775 29.8953C137.414 30.2977 136.992 30.2038 135.743 28.9967C134.508 27.7897 130.97 26.1668 129.342 26.1668C127.713 26.1668 126.099 26.7033 126.31 25.6974C126.52 24.7049 129.145 23.2162 130.184 23.3637C131.223 23.5112 133.567 24.9731 134.817 25.8449C136.066 26.7167 136.29 27.4275 137.526 28.0713C138.775 28.7151 139.421 29.3723 138.775 29.8953Z" fill="#221D31"/>
<path d="M145.808 29.9087C147.311 29.7075 149.444 28.4736 150.483 27.1593C151.536 25.8449 153.628 27.5214 154.301 27.4409C154.975 27.3605 155.86 25.295 155.846 24.9731C155.831 24.6512 152.013 23.8733 150.497 24.4769C148.995 25.067 148.012 27.0922 146.777 27.9774C145.542 28.8626 144.952 29.6941 145.808 29.9087Z" fill="#221D31"/>
<path d="M189.158 145.827L240.845 145.854C241.533 145.854 242.08 146.377 242.08 147.034V183.863C242.066 184.521 241.505 185.044 240.831 185.044L189.143 185.017C188.456 185.017 187.908 184.494 187.908 183.837V147.007C187.922 146.35 188.484 145.827 189.158 145.827Z" fill="#FBD69D"/>
<path d="M191.937 147.463C192.316 147.463 192.624 147.825 192.624 148.254V182.803C192.61 183.246 192.302 183.595 191.909 183.595C191.53 183.595 191.221 183.233 191.221 182.803V148.254C191.235 147.812 191.544 147.463 191.923 147.463H191.937Z" fill="#A8620D"/>
<path d="M198.38 147.463C198.759 147.463 199.068 147.825 199.068 148.254V182.803C199.054 183.246 198.745 183.595 198.352 183.595C197.973 183.595 197.664 183.233 197.664 182.803V148.254C197.678 147.812 197.987 147.463 198.366 147.463H198.38Z" fill="#A8620D"/>
<path d="M204.823 147.463C205.202 147.463 205.511 147.825 205.511 148.254V182.803C205.497 183.246 205.188 183.595 204.809 183.595C204.43 183.595 204.121 183.233 204.121 182.803V148.254C204.135 147.812 204.444 147.463 204.837 147.463H204.823Z" fill="#A8620D"/>
<path d="M211.28 147.463C211.659 147.463 211.968 147.825 211.968 148.254V182.803C211.954 183.246 211.645 183.595 211.252 183.595C210.873 183.595 210.564 183.233 210.564 182.803V148.254C210.578 147.812 210.887 147.463 211.28 147.463Z" fill="#A8620D"/>
<path d="M217.724 147.477C218.103 147.477 218.412 147.839 218.412 148.268V182.817C218.398 183.26 218.089 183.608 217.696 183.608C217.317 183.608 217.008 183.246 217.008 182.817V148.268C217.022 147.825 217.331 147.477 217.724 147.477Z" fill="#A8620D"/>
<path d="M224.167 147.477C224.546 147.477 224.855 147.839 224.855 148.268V182.817C224.841 183.26 224.532 183.608 224.139 183.608C223.76 183.608 223.451 183.246 223.451 182.817V148.268C223.465 147.825 223.774 147.477 224.153 147.477H224.167Z" fill="#A8620D"/>
<path d="M230.61 147.477C230.989 147.477 231.298 147.839 231.298 148.268V182.817C231.284 183.26 230.975 183.608 230.596 183.608C230.217 183.608 229.908 183.246 229.908 182.817V148.268C229.922 147.825 230.231 147.477 230.624 147.477H230.61Z" fill="#A8620D"/>
<path d="M237.068 147.477C237.447 147.477 237.755 147.839 237.755 148.268V182.817C237.741 183.26 237.433 183.608 237.039 183.608C236.66 183.608 236.352 183.246 236.352 182.817V148.268C236.366 147.825 236.674 147.477 237.068 147.477Z" fill="#A8620D"/>
<path d="M188.96 145.827C188.385 145.827 187.936 146.35 187.936 147.007V149.368C187.936 150.025 188.399 150.548 188.96 150.548L241.069 150.575C241.644 150.575 242.093 150.052 242.093 149.395V147.034C242.093 146.377 241.63 145.854 241.069 145.854L188.96 145.827Z" fill="#A8620D"/>
<path d="M188.933 181.141C188.357 181.141 187.908 181.664 187.908 182.321V183.836C187.908 184.494 188.371 185.017 188.933 185.017L241.041 185.044C241.617 185.044 242.066 184.52 242.066 183.863V182.348C242.066 181.691 241.603 181.167 241.041 181.167L188.933 181.141Z" fill="#A8620D"/>
<path d="M105.295 109.669C90.5972 103.647 76.9244 102.681 74.7626 107.496L73.6816 109.883L74.7064 110.299C76.2787 115.382 85.5577 122.263 97.4477 127.131C109.338 132 120.947 133.69 125.888 131.275L126.913 131.691L127.994 129.304C130.156 124.476 120.006 115.677 105.295 109.655V109.669Z" fill="#A8620D"/>
<path d="M104.228 112.069C89.5302 106.047 75.8574 105.081 73.6956 109.896L62.9707 133.796L116.202 155.604L126.927 131.704C129.089 126.876 118.925 118.078 104.228 112.056V112.069Z" fill="#FBD69D"/>
<path d="M94.037 134.762C79.3394 128.74 65.6665 127.775 63.5047 132.59L62.4238 134.977L63.4486 135.393C65.0208 140.476 74.2998 147.356 86.1898 152.225C98.0798 157.093 109.689 158.783 114.63 156.369L115.655 156.785L116.736 154.398C118.898 149.569 108.749 140.771 94.037 134.749V134.762Z" fill="#A8620D"/>
<path d="M92.9569 137.163C107.654 143.185 117.818 151.983 115.656 156.811C113.494 161.639 99.8214 160.66 85.1238 154.638C70.4262 148.616 60.2628 139.818 62.4246 134.99C64.5865 130.162 78.2593 131.141 92.9569 137.163Z" fill="#A8620D"/>
<path d="M79.8867 105.899L79.9429 105.926C80.364 106.1 80.5605 106.57 80.378 106.972L69.7795 130.591C69.597 130.993 69.1057 131.181 68.6845 131.006L68.6284 130.98C68.2073 130.805 68.0107 130.336 68.1932 129.933L78.7918 106.315C78.9742 105.913 79.4656 105.725 79.8867 105.899Z" fill="#A8620D"/>
<path d="M125.677 124.662L125.621 124.636C125.2 124.461 124.709 124.649 124.526 125.051L113.928 148.67C113.745 149.072 113.942 149.541 114.363 149.716L114.419 149.743C114.84 149.917 115.331 149.729 115.514 149.327L126.112 125.708C126.295 125.306 126.098 124.837 125.677 124.662Z" fill="#A8620D"/>
<path d="M90.2051 106.074L90.2613 106.101C90.6824 106.275 90.8789 106.745 90.6964 107.147L80.0979 130.765C79.9154 131.168 79.4241 131.356 79.0029 131.181L78.9468 131.154C78.5256 130.98 78.3291 130.511 78.5116 130.108L89.1102 106.49C89.2927 106.087 89.784 105.9 90.2051 106.074Z" fill="#A8620D"/>
<path d="M118.449 117.648L118.393 117.621C117.972 117.446 117.48 117.634 117.298 118.037L106.699 141.642C106.517 142.044 106.699 142.513 107.134 142.688L107.191 142.715C107.612 142.889 108.103 142.715 108.285 142.299L118.884 118.68C119.067 118.278 118.884 117.809 118.449 117.634V117.648Z" fill="#A8620D"/>
<path d="M99.7227 108.34L99.7788 108.367C100.2 108.541 100.397 109.01 100.214 109.413L89.6154 133.031C89.433 133.434 88.9416 133.621 88.5205 133.447L88.4643 133.42C88.0432 133.246 87.8467 132.776 88.0292 132.374L98.6277 108.769C98.8102 108.367 99.3016 108.179 99.7227 108.353V108.34Z" fill="#A8620D"/>
<path d="M109.716 112.445L109.66 112.418C109.239 112.243 108.748 112.418 108.565 112.834L97.9667 136.452C97.7842 136.854 97.9807 137.324 98.4018 137.498L98.458 137.525C98.8791 137.699 99.3705 137.512 99.5529 137.109L110.151 113.491C110.334 113.088 110.137 112.619 109.716 112.445Z" fill="#A8620D"/>
<path d="M92.9561 137.163C81.038 132.281 69.4147 130.591 64.4875 133.032C62.4099 137.673 72.1802 146.136 86.3303 151.93C100.466 157.724 113.62 158.662 115.711 154.022C115.711 154.022 115.711 154.008 115.711 153.995C114.153 148.912 104.86 142.018 92.9561 137.15V137.163Z" fill="#CE1D3F"/>
<path d="M168.409 109.669C183.106 103.647 196.779 102.681 198.941 107.496L200.022 109.883L198.997 110.299C197.425 115.382 188.146 122.263 176.256 127.131C164.366 132 152.757 133.69 147.815 131.275L146.791 131.691L145.724 129.304C143.562 124.476 153.711 115.677 168.409 109.655V109.669Z" fill="#A8620D"/>
<path d="M169.477 112.069C184.175 106.047 197.848 105.081 200.01 109.896L210.734 133.796L157.503 155.604L146.778 131.704C144.616 126.876 154.78 118.078 169.477 112.056V112.069Z" fill="#FBD69D"/>
<path d="M179.669 134.762C194.366 128.74 208.039 127.775 210.215 132.59L211.296 134.977L210.271 135.393C208.699 140.476 199.42 147.356 187.53 152.225C175.64 157.093 164.031 158.783 159.089 156.369L158.064 156.785L156.984 154.398C154.822 149.569 164.971 140.771 179.683 134.749L179.669 134.762Z" fill="#A8620D"/>
<path d="M180.749 137.163C166.051 143.185 155.888 151.983 158.05 156.811C160.211 161.639 173.884 160.66 188.582 154.638C203.279 148.616 213.443 139.818 211.281 134.99C209.119 130.162 195.446 131.141 180.749 137.163Z" fill="#A8620D"/>
<path d="M193.817 105.899L193.761 105.926C193.34 106.1 193.144 106.57 193.326 106.972L203.925 130.591C204.107 130.993 204.598 131.181 205.02 131.006L205.076 130.98C205.497 130.805 205.693 130.336 205.511 129.933L194.912 106.315C194.73 105.913 194.239 105.725 193.817 105.899Z" fill="#A8620D"/>
<path d="M148.027 124.662L148.083 124.636C148.504 124.461 148.996 124.649 149.178 125.051L159.777 148.67C159.959 149.072 159.777 149.541 159.341 149.716L159.285 149.743C158.864 149.917 158.373 149.729 158.19 149.327L147.592 125.708C147.409 125.306 147.592 124.837 148.027 124.662Z" fill="#A8620D"/>
<path d="M183.501 106.074L183.445 106.101C183.024 106.275 182.827 106.745 183.01 107.147L193.608 130.765C193.791 131.168 194.282 131.356 194.703 131.181L194.759 131.154C195.18 130.98 195.377 130.511 195.194 130.108L184.596 106.49C184.413 106.087 183.922 105.9 183.501 106.074Z" fill="#A8620D"/>
<path d="M155.271 117.648L155.327 117.621C155.748 117.446 156.24 117.634 156.422 118.037L167.021 141.642C167.203 142.044 167.007 142.513 166.585 142.688L166.529 142.715C166.108 142.889 165.617 142.715 165.434 142.299L154.836 118.68C154.653 118.278 154.85 117.809 155.271 117.634V117.648Z" fill="#A8620D"/>
<path d="M173.983 108.34L173.927 108.367C173.506 108.541 173.31 109.01 173.492 109.413L184.091 133.031C184.273 133.434 184.764 133.621 185.186 133.447L185.242 133.42C185.663 133.246 185.859 132.776 185.677 132.374L175.078 108.769C174.896 108.367 174.405 108.179 173.983 108.353V108.34Z" fill="#A8620D"/>
<path d="M163.988 112.445L164.044 112.418C164.465 112.243 164.957 112.418 165.139 112.834L175.738 136.452C175.92 136.854 175.738 137.324 175.302 137.498L175.246 137.525C174.825 137.699 174.334 137.512 174.151 137.109L163.553 113.504C163.37 113.102 163.553 112.632 163.988 112.458V112.445Z" fill="#A8620D"/>
<path d="M180.749 137.163C192.668 132.281 204.291 130.591 209.218 133.032C211.296 137.673 201.525 146.136 187.375 151.93C173.225 157.724 160.086 158.662 157.994 154.022C157.994 154.022 157.994 154.008 157.994 153.995C159.552 148.912 168.845 142.018 180.749 137.15V137.163Z" fill="#CE1D3F"/>
<path d="M29.2663 140.275L115.416 173.737C116.553 174.18 117.101 175.427 116.638 176.514L90.4711 238.007C90.0079 239.094 88.7024 239.617 87.5653 239.174L1.41529 205.711C0.27823 205.269 -0.269238 204.022 0.19401 202.935L26.3605 141.441C26.8237 140.355 28.1292 139.832 29.2663 140.275Z" fill="#FBD69D"/>
<path d="M32.72 144.808C33.3657 145.049 33.6184 145.854 33.3096 146.592L8.75741 204.276C8.44858 205.014 7.67653 205.403 7.03079 205.162C6.39909 204.907 6.13235 204.115 6.44118 203.378L30.9933 145.693C31.3022 144.955 32.0742 144.566 32.7059 144.808H32.72Z" fill="#A8620D"/>
<path d="M43.4739 148.979C44.1056 149.22 44.3723 150.025 44.0635 150.749L19.5113 208.434C19.2025 209.172 18.4304 209.56 17.7847 209.319C17.153 209.078 16.8863 208.273 17.1951 207.549L41.7472 149.864C42.056 149.126 42.8281 148.737 43.4739 148.979Z" fill="#A8620D"/>
<path d="M54.2126 153.163C54.8584 153.418 55.1111 154.209 54.8022 154.947L30.2501 212.632C29.9413 213.37 29.1692 213.758 28.5235 213.517C27.8777 213.276 27.625 212.471 27.9339 211.733L52.486 154.048C52.7948 153.311 53.5669 152.922 54.2126 153.163Z" fill="#A8620D"/>
<path d="M64.9641 157.334C65.5958 157.576 65.8625 158.38 65.5537 159.118L41.0016 216.803C40.6927 217.54 39.9207 217.929 39.2749 217.688C38.6432 217.433 38.3765 216.642 38.6853 215.904L63.2375 158.219C63.5463 157.482 64.3184 157.093 64.9641 157.334Z" fill="#A8620D"/>
<path d="M75.7048 161.506C76.3365 161.747 76.6033 162.552 76.2944 163.276L51.7423 220.961C51.4335 221.699 50.6614 222.088 50.0157 221.846C49.3699 221.605 49.1172 220.8 49.4261 220.076L73.9782 162.391C74.287 161.654 75.0591 161.265 75.7048 161.506Z" fill="#A8620D"/>
<path d="M86.4563 165.677C87.088 165.932 87.3547 166.723 87.0459 167.461L62.4937 225.146C62.1849 225.883 61.4129 226.272 60.7671 226.017C60.1354 225.776 59.8687 224.971 60.1775 224.247L84.7297 166.562C85.0385 165.824 85.8105 165.436 86.4563 165.677Z" fill="#A8620D"/>
<path d="M97.1965 169.848C97.8282 170.089 98.095 170.894 97.7861 171.632L73.234 229.316C72.9252 230.054 72.1531 230.443 71.5074 230.202C70.8756 229.947 70.6089 229.156 70.9177 228.418L95.4699 170.733C95.7787 169.995 96.5508 169.606 97.1965 169.848Z" fill="white"/>
<path d="M107.948 174.032C108.594 174.274 108.847 175.079 108.538 175.803L83.986 233.488C83.6771 234.225 82.905 234.614 82.2593 234.373C81.6276 234.118 81.3609 233.327 81.6697 232.602L106.222 174.918C106.531 174.18 107.303 173.791 107.948 174.032Z" fill="white"/>
<path d="M28.9164 140.141C27.9618 139.765 26.8247 140.355 26.3615 141.442L24.677 145.385C24.2137 146.471 24.6068 147.651 25.5473 148.027L112.399 181.758C113.354 182.133 114.491 181.543 114.954 180.457L116.639 176.514C117.102 175.427 116.709 174.247 115.768 173.872L28.9164 140.141Z" fill="#A8620D"/>
<path d="M3.83035 199.112C2.87578 198.737 1.73871 199.327 1.27546 200.413L0.194567 202.935C-0.268681 204.034 0.124371 205.201 1.0649 205.577L87.9168 239.308C88.8714 239.683 90.0085 239.093 90.4717 238.007L91.5385 235.485C92.0018 234.399 91.6087 233.219 90.6682 232.843L3.8163 199.112H3.83035Z" fill="#A8620D"/>
<path d="M135.477 153.981C173.393 153.981 204.122 183.354 204.122 219.566C204.122 255.778 173.393 285.15 135.477 285.15C97.5608 285.15 66.832 255.792 66.832 219.566C66.832 183.34 97.5748 153.981 135.477 153.981Z" fill="#A8620D"/>
<path d="M135.478 280.618C170.761 280.618 199.364 253.29 199.364 219.58C199.364 185.87 170.761 158.542 135.478 158.542C100.195 158.542 71.5918 185.87 71.5918 219.58C71.5918 253.29 100.195 280.618 135.478 280.618Z" fill="#6C48A5"/>
<path d="M137.667 151.795H133.273C132.25 151.795 131.42 152.588 131.42 153.565V159.507C131.42 160.485 132.25 161.277 133.273 161.277H137.667C138.69 161.277 139.52 160.485 139.52 159.507V153.565C139.52 152.588 138.69 151.795 137.667 151.795Z" fill="#F2B861"/>
<path d="M195.147 200.32L201.155 198.784C202.145 198.531 203.159 199.091 203.424 200.037L204.56 204.092C204.824 205.038 204.238 206.007 203.249 206.26L197.241 207.795C196.251 208.048 195.237 207.489 194.972 206.543L193.836 202.488C193.571 201.542 194.158 200.573 195.147 200.32Z" fill="#F2B861"/>
<path d="M164.084 271.115L167.89 269.018C168.777 268.528 169.908 268.818 170.421 269.667L173.528 274.813C174.04 275.661 173.737 276.742 172.849 277.231L169.043 279.329C168.155 279.818 167.024 279.528 166.512 278.68L163.404 273.534C162.892 272.685 163.196 271.605 164.084 271.115Z" fill="#F2B861"/>
<path d="M83.7517 263.52L88.149 259.318C88.8736 258.626 90.0449 258.626 90.7695 259.318L93.8764 262.287C94.6011 262.979 94.6011 264.098 93.8764 264.79L89.4791 268.992C88.7545 269.684 87.5832 269.684 86.8586 268.992L83.7517 266.023C83.0271 265.331 83.0271 264.212 83.7517 263.52Z" fill="#F2B861"/>
<path d="M66.3663 204.023L67.5035 199.968C67.7687 199.023 68.7831 198.463 69.773 198.717L75.7798 200.254C76.7696 200.508 77.3553 201.477 77.0901 202.423L75.9529 206.478C75.6876 207.423 74.6733 207.983 73.6834 207.729L67.6766 206.192C66.6867 205.938 66.1011 204.969 66.3663 204.023Z" fill="#F2B861"/>
<path d="M147.831 160.534L149.441 154.795C149.706 153.849 150.72 153.29 151.71 153.543L155.954 154.63C156.944 154.883 157.53 155.852 157.264 156.798L155.655 162.537C155.39 163.483 154.375 164.042 153.386 163.789L149.141 162.702C148.152 162.449 147.566 161.48 147.831 160.534Z" fill="#F2B861"/>
<path d="M204.572 215.703H198.353C197.33 215.703 196.5 216.496 196.5 217.474V221.671C196.5 222.649 197.33 223.442 198.353 223.442H204.572C205.595 223.442 206.425 222.649 206.425 221.671V217.474C206.425 216.496 205.595 215.703 204.572 215.703Z" fill="#F2B861"/>
<path d="M149.159 276.422L153.403 275.335C154.393 275.082 155.407 275.641 155.672 276.587L157.283 282.325C157.548 283.271 156.963 284.24 155.973 284.494L151.729 285.581C150.74 285.835 149.725 285.275 149.46 284.33L147.849 278.591C147.584 277.645 148.169 276.676 149.159 276.422Z" fill="#F2B861"/>
<path d="M73.5852 249.272L78.9708 246.301C79.8583 245.812 80.9897 246.101 81.502 246.949L83.699 250.585C84.2113 251.433 83.9082 252.514 83.0207 253.003L77.6351 255.974C76.7476 256.463 75.6163 256.174 75.1039 255.326L72.907 251.69C72.3946 250.843 72.6977 249.762 73.5852 249.272Z" fill="#F2B861"/>
<path d="M72.9206 187.46L75.1176 183.824C75.6299 182.977 76.7613 182.687 77.6488 183.176L83.0344 186.147C83.9218 186.637 84.225 187.718 83.7126 188.566L81.5157 192.201C81.0033 193.049 79.8719 193.339 78.9845 192.849L73.5989 189.878C72.7114 189.389 72.4083 188.308 72.9206 187.46Z" fill="#F2B861"/>
<path d="M163.414 165.612L166.522 160.465C167.034 159.617 168.165 159.327 169.053 159.817L172.859 161.914C173.746 162.404 174.05 163.484 173.538 164.332L170.43 169.479C169.918 170.327 168.787 170.617 167.899 170.128L164.093 168.03C163.206 167.541 162.902 166.46 163.414 165.612Z" fill="#F2B861"/>
<path d="M193.862 236.7L194.999 232.645C195.264 231.699 196.278 231.139 197.268 231.393L203.275 232.929C204.265 233.183 204.851 234.152 204.586 235.098L203.449 239.153C203.184 240.098 202.17 240.658 201.18 240.405L195.173 238.868C194.183 238.615 193.597 237.646 193.862 236.7Z" fill="#F2B861"/>
<path d="M137.667 277.881H133.273C132.25 277.881 131.42 278.673 131.42 279.651V285.593C131.42 286.57 132.25 287.363 133.273 287.363H137.667C138.69 287.363 139.52 286.57 139.52 285.593V279.651C139.52 278.673 138.69 277.881 137.667 277.881Z" fill="#F2B861"/>
<path d="M67.6688 232.952L73.6756 231.414C74.6654 231.161 75.6798 231.72 75.945 232.666L77.0823 236.721C77.3475 237.667 76.7618 238.636 75.772 238.889L69.7651 240.427C68.7753 240.68 67.7609 240.121 67.4957 239.175L66.3585 235.12C66.0933 234.174 66.6789 233.205 67.6688 232.952Z" fill="#F2B861"/>
<path d="M86.8496 170.128L83.7421 173.096C83.0184 173.787 83.0181 174.908 83.7417 175.6L88.1382 179.802C88.8617 180.493 90.035 180.493 90.7587 179.802L93.8662 176.834C94.59 176.143 94.5902 175.022 93.8666 174.331L89.4701 170.129C88.7466 169.437 87.5734 169.437 86.8496 170.128Z" fill="#F2B861"/>
<path d="M177.076 174.361L181.473 170.16C182.198 169.468 183.369 169.468 184.094 170.16L187.201 173.129C187.925 173.821 187.925 174.94 187.201 175.632L182.803 179.834C182.079 180.526 180.907 180.526 180.183 179.834L177.076 176.865C176.351 176.173 176.351 175.054 177.076 174.361Z" fill="#F2B861"/>
<path d="M187.219 250.501L189.416 246.865C189.929 246.018 191.06 245.728 191.948 246.217L197.333 249.188C198.221 249.678 198.524 250.759 198.011 251.607L195.814 255.242C195.302 256.09 194.171 256.38 193.283 255.89L187.898 252.919C187.01 252.43 186.707 251.349 187.219 250.501Z" fill="#F2B861"/>
<path d="M113.661 282.294L115.271 276.555C115.536 275.609 116.55 275.05 117.54 275.303L121.784 276.389C122.774 276.643 123.36 277.612 123.095 278.558L121.485 284.297C121.22 285.242 120.205 285.802 119.216 285.549L114.972 284.462C113.982 284.209 113.396 283.24 113.661 282.294Z" fill="#F2B861"/>
<path d="M66.3823 215.703H72.601C73.6258 215.703 74.454 216.494 74.454 217.474V221.671C74.454 222.651 73.6258 223.442 72.601 223.442H66.3823C65.3575 223.442 64.5293 222.651 64.5293 221.671V217.474C64.5293 216.494 65.3575 215.703 66.3823 215.703Z" fill="#F2B861"/>
<path d="M98.0911 161.96L101.896 159.861C102.784 159.371 103.915 159.661 104.427 160.509L107.537 165.654C108.049 166.502 107.746 167.583 106.859 168.072L103.053 170.171C102.166 170.661 101.035 170.371 100.522 169.523L97.4128 164.378C96.9004 163.53 97.2036 162.449 98.0911 161.96Z" fill="#F2B861"/>
<path d="M193.283 183.26L187.898 186.231C187.011 186.72 186.708 187.803 187.219 188.649L189.416 192.285C189.928 193.132 191.061 193.422 191.948 192.933L197.333 189.962C198.219 189.473 198.523 188.391 198.011 187.544L195.815 183.908C195.303 183.062 194.17 182.771 193.283 183.26Z" fill="#F2B861"/>
<path d="M177.072 262.302L180.179 259.333C180.903 258.641 182.075 258.641 182.799 259.333L187.197 263.535C187.921 264.227 187.921 265.346 187.197 266.038L184.09 269.007C183.365 269.699 182.194 269.699 181.469 269.007L177.072 264.806C176.347 264.113 176.347 262.994 177.072 262.302Z" fill="#F2B861"/>
<path d="M97.4223 274.815L100.531 269.669C101.043 268.821 102.174 268.531 103.062 269.021L106.867 271.119C107.755 271.609 108.058 272.689 107.546 273.537L104.438 278.683C103.925 279.531 102.794 279.821 101.907 279.332L98.101 277.234C97.2134 276.744 96.9101 275.663 97.4223 274.815Z" fill="#F2B861"/>
<path d="M114.973 154.673L119.218 153.586C120.207 153.333 121.222 153.892 121.487 154.838L123.097 160.577C123.362 161.523 122.776 162.492 121.786 162.745L117.542 163.832C116.552 164.085 115.538 163.526 115.273 162.58L113.663 156.841C113.398 155.895 113.984 154.926 114.973 154.673Z" fill="#F2B861"/>
<path d="M239.61 83.8369C265.608 69.4996 289.655 62.807 293.333 68.896C297.011 74.985 278.93 91.5488 252.932 105.886C226.934 120.224 202.887 126.916 199.209 120.827C195.531 114.738 213.612 98.1743 239.61 83.8369Z" fill="#D47D22"/>
<path d="M242.614 88.8259C249.633 84.9499 256.105 83.0856 257.045 84.6548C258 86.224 253.072 90.6365 246.039 94.5126C239.02 98.3886 232.549 100.253 231.609 98.6837C230.654 97.1145 235.581 92.702 242.614 88.8259Z" fill="#875725"/>
<path d="M246.643 91.6565L251.907 120.13L254.714 119.5L248.72 91.0127L246.643 91.6431V91.6565Z" fill="#522D8D"/>
<path d="M247.177 109.99L298.892 117.89L297.867 121.82L245.801 113.223L247.191 109.99H247.177Z" fill="#522D8D"/>
<path d="M264.119 111.962L264.989 250.387L269.931 250.601L267.657 111.854L264.119 111.962Z" fill="#522D8D"/>
<path d="M266.463 250.52L277.357 251.03L289.893 264.469L293.29 279.638L296.687 278.498L293.121 261.679L279.996 247.489L253.043 246.43L240.816 260.485L234.373 281.207L238.163 282.803L244.621 263.195L256.356 250.775L266.463 250.534V250.52Z" fill="#522D8D"/>
<path d="M266.112 247.383L265.186 261.559L265.452 285.969L270.955 285.7L269.341 260.151L268.653 246.913L266.112 247.383Z" fill="#522D8D"/>
<path d="M236.787 276.768C239.272 276.768 241.279 278.967 241.279 281.69V283.111C241.279 285.821 239.272 288.034 236.787 288.034C234.302 288.034 232.295 285.834 232.295 283.111V281.69C232.295 278.981 234.302 276.768 236.787 276.768Z" fill="#522D8D"/>
<path d="M268.191 277.733C270.676 277.733 272.683 279.933 272.683 282.656V284.077C272.683 286.786 270.676 288.999 268.191 288.999C265.707 288.999 263.699 286.8 263.699 284.077V282.656C263.699 279.946 265.707 277.733 268.191 277.733Z" fill="#522D8D"/>
<path d="M295.508 277.733C297.992 277.733 300 279.933 300 282.656V284.077C300 286.786 297.992 288.999 295.508 288.999C293.023 288.999 291.016 286.8 291.016 284.077V282.656C291.016 279.946 293.023 277.733 295.508 277.733Z" fill="#522D8D"/>
<path d="M174.966 180.658C174.812 180.55 174.587 180.59 174.475 180.751C174.362 180.899 174.405 181.114 174.573 181.221C183.066 186.814 187.923 192.956 189.664 202.908C189.706 203.082 189.874 203.203 190.071 203.176C190.253 203.149 190.394 202.975 190.366 202.801C188.597 192.688 183.543 186.317 174.966 180.658Z" fill="white"/>
<path d="M184.159 196.913C183.991 197.007 183.934 197.208 184.033 197.369C186.11 200.83 187.683 204.343 188.483 208.206C188.511 208.394 188.707 208.515 188.89 208.474C189.086 208.448 189.213 208.26 189.171 208.085C188.356 204.142 186.714 200.548 184.622 197.061C184.524 196.9 184.313 196.846 184.145 196.927L184.159 196.913Z" fill="white"/>
<path d="M192.05 211.076C191.867 211.13 191.769 211.318 191.825 211.505C195.054 219.982 192.569 228.297 190.323 236.814C190.281 236.988 190.393 237.176 190.576 237.216C190.758 237.256 190.955 237.149 190.997 236.975C193.243 228.458 195.798 219.982 192.485 211.278C192.429 211.103 192.218 211.009 192.036 211.063L192.05 211.076Z" fill="white"/>
<path d="M189.593 233.514C189.411 233.488 189.228 233.608 189.2 233.796C189.088 234.574 189.018 235.057 188.961 235.365C188.905 235.674 188.877 235.808 188.765 235.996C188.554 236.385 188.035 237.002 186.771 239.148C186.673 239.308 186.743 239.51 186.912 239.604C187.08 239.697 187.291 239.63 187.389 239.469C188.638 237.35 189.102 236.814 189.382 236.318C189.523 236.063 189.607 235.821 189.663 235.486C189.719 235.151 189.79 234.681 189.902 233.903C189.93 233.716 189.79 233.555 189.607 233.528L189.593 233.514Z" fill="white"/>
<path d="M81.5858 232.16C81.3893 232.187 81.2629 232.361 81.291 232.549C82.7229 241.428 86.8921 249.234 91.5246 256.852C91.6228 257.013 91.8334 257.066 92.0019 256.986C92.1703 256.892 92.2265 256.691 92.1282 256.53C87.5098 248.925 83.3967 241.186 81.9788 232.455C81.9508 232.267 81.7683 232.147 81.5718 232.174L81.5858 232.16Z" fill="white"/>
<path d="M95.849 255.939C95.7087 256.06 95.6946 256.275 95.821 256.409C97.5617 258.219 99.3164 260.043 101.057 261.854C101.085 261.867 101.099 261.894 101.127 261.908C101.296 262.015 101.45 262.122 101.619 262.229C101.787 262.337 101.998 262.283 102.11 262.136C102.222 261.975 102.166 261.773 102.012 261.666C101.843 261.559 101.689 261.465 101.52 261.358C99.7937 259.56 98.0811 257.763 96.3544 255.966C96.2281 255.832 96.0035 255.818 95.8631 255.939H95.849Z" fill="white"/>
</svg>
