<?xml version="1.0" encoding="utf-8"?>
<!-- Generator: Adobe Illustrator 28.1.0, SVG Export Plug-In . SVG Version: 6.00 Build 0)  -->
<svg version="1.1" id="Layer_1" xmlns="http://www.w3.org/2000/svg" xmlns:xlink="http://www.w3.org/1999/xlink" x="0px" y="0px"
	 viewBox="0 0 50 50" style="enable-background:new 0 0 50 50;" xml:space="preserve">
<style type="text/css">
	.st0{fill:#6C006D;}
</style>
<path class="st0" d="M37,4H13c-5,0-9,4-9,9v24c0,5,4,9,9,9h24c5,0,9-4,9-9V13C46,8,42,4,37,4z M35,27v4v0h0c0,2.7-2.2,5-5,5h-0.5
	c-1,0-1.9-0.4-2.6-1.2c-0.7-0.7-1-1.7-0.9-2.7c0.2-1.8,1.8-3.1,3.6-3.1H31c1.1,0,2-0.9,2-2v-9.8l-12,2.2V30v4c0,2.8-2.2,5-5,5h-0.5
	c-1,0-1.9-0.4-2.6-1.2c-0.7-0.7-1-1.7-0.9-2.7c0.2-1.8,1.8-3.1,3.6-3.1H17c1.1,0,2-0.9,2-2V15.4c0-1,0.7-1.8,1.6-2L33.2,11
	c0.4-0.1,0.9,0,1.2,0.3c0.3,0.3,0.5,0.7,0.5,1.2V27z"/>
</svg>
