<svg width="215" height="424" viewBox="0 0 215 424" fill="none" xmlns="http://www.w3.org/2000/svg">
<path d="M97.507 49.9887C100.944 56.1319 103.475 55.9102 92.1826 71.0791C80.8901 86.261 84.6201 93.4867 86.2877 96.9822C87.9552 100.478 91.6414 101.73 91.6414 101.73C91.6414 101.73 89.9007 100.021 89.3741 95.4301C88.8329 90.8521 90.3249 89.5217 90.3249 89.5217C90.3249 89.5217 88.5696 99.1734 94.4791 104.13C100.389 109.086 103.095 107.782 104.031 113.129C104.967 118.477 99.5402 118.999 104.645 125.103C109.75 131.207 119.946 133.528 123.339 133.933C126.733 134.337 137.908 128.298 141.653 120.394C145.398 112.49 152.258 84.761 148.806 76.4136C145.354 68.0792 137.192 57.2927 134.354 54.4363C131.516 51.58 123.339 47.2497 117.942 45.8672C112.544 44.4846 107.922 41.863 104.089 42.9065C100.257 43.9368 97.5363 49.9757 97.5363 49.9757L97.507 49.9887Z" fill="#221D31"/>
<path d="M86.6519 28.2073C87.1931 33.0853 80.128 38.5633 82.9218 45.1108C85.7011 51.6584 92.5468 49.6106 92.5468 49.6106L89.5189 46.6369C89.5189 46.6369 90.1625 48.5542 93.5853 48.8933C97.0082 49.2324 101.543 48.0064 101.543 48.0064C101.543 48.0064 95.5015 35.9417 93.205 32.6027C90.9085 29.2638 91.4936 27.3334 89.592 26.7986C87.6904 26.2639 86.6665 28.2203 86.6665 28.2203L86.6519 28.2073Z" fill="#221D31"/>
<path d="M90.6761 34.1814C90.6761 34.1814 92.8702 45.7504 93.7771 47.5895C94.684 49.4285 95.708 50.5763 97.1122 51.2024C98.5018 51.8154 99.0284 54.2674 99.4672 55.8717C99.9061 57.476 103.27 61.6888 105.655 63.0844C108.054 64.48 110.101 65.8756 111.696 67.3625C113.29 68.8494 115.075 72.0579 116.45 72.1884C117.825 72.3188 132.833 66.606 136.782 62.7975C140.717 59.002 143.789 52.8458 144.023 50.0285C144.257 47.2113 143.452 43.2984 143.452 43.2984C143.452 43.2984 145.939 42.0854 146.714 40.1681C147.489 38.2508 147.767 35.6422 147.636 33.4641C147.504 31.2859 147.577 28.9382 146.188 27.4383C144.813 25.9383 142.619 25.5992 141.214 26.1861C139.81 26.7731 137.967 29.0686 137.967 29.0686C137.967 29.0686 135.7 26.1079 134.252 24.4384C132.803 22.7689 125.256 11.9433 117.956 10.013C110.657 8.08262 102.51 9.80428 98.2678 17.1213C94.0404 24.4253 89.345 23.695 90.6468 34.1945L90.6761 34.1814Z" fill="#A34E4E"/>
<path d="M107.087 18.7251C113.742 22.4163 119.915 25.377 125.005 25.3379C130.111 25.2987 138.097 27.8682 138.097 27.8682L143.275 22.3771C143.275 22.3771 134.426 11.8646 125.269 8.39516C116.112 4.92575 111.534 4.1432 107.935 4.70404C104.322 5.26488 103.503 5.69529 103.722 9.79075C103.942 13.8862 107.101 18.7251 107.101 18.7251H107.087Z" fill="#221D31"/>
<path d="M86.7848 16.8865C86.7848 16.8865 80.1293 22.0646 85.995 31.1033C91.8752 40.142 104.104 37.7943 104.104 37.7943C104.104 37.7943 103.519 37.8464 101.383 37.3247C99.2475 36.79 97.9018 36.4639 97.9018 36.4639C97.9018 36.4639 101.486 37.1813 104.104 36.3335C106.722 35.4857 107.176 34.2988 107.176 34.2988C107.176 34.2988 103.855 36.4508 98.9257 34.7292C93.9962 32.9945 91.3633 24.0992 91.3633 24.0992C91.3633 24.0992 91.7875 27.7252 99.6425 30.5033C107.497 33.2814 113.378 31.3641 113.378 31.3641L109.472 30.399C109.472 30.399 113.934 30.9989 116.742 30.3337C119.551 29.6816 120.545 29.199 120.545 29.199L116.713 28.0904C116.713 28.0904 120.106 28.0512 121.613 27.8165C123.12 27.5686 116.172 26.473 113.539 24.5036C110.906 22.5341 107.585 17.6691 107.38 13.7562C107.176 9.83033 108.053 5.73487 107.775 4.54797C107.512 3.34803 106.43 2.13505 103.475 1.76985C100.535 1.40465 97.7994 4.65232 97.7994 4.65232C97.7994 4.65232 97.068 3.12631 96.4683 3.1524C95.8832 3.17848 91.5973 4.91319 89.1545 7.3522C86.7117 9.79122 86.112 12.2954 86.7702 13.8606C87.4285 15.4257 86.7702 16.9257 86.7702 16.9257L86.7848 16.8865Z" fill="#221D31"/>
<path d="M112.118 39.1108C113.142 38.5499 114.853 39.3977 115.936 40.9759C117.018 42.5671 117.047 44.3018 116.023 44.8496C114.999 45.3974 113.288 44.5627 112.205 42.9845C111.123 41.3933 111.094 39.6586 112.118 39.1108Z" fill="#221D31"/>
<path d="M99.0103 48.0449C99.8002 47.5884 101.131 48.2797 101.95 49.597C102.784 50.9143 102.813 52.3621 102.009 52.8186C101.219 53.2751 99.888 52.5838 99.0542 51.2665C98.2204 49.9491 98.1912 48.5014 98.9957 48.0449H99.0103Z" fill="#221D31"/>
<path d="M101.409 43.8716C101.336 45.0585 100.385 44.6541 99.0247 44.5628C97.6644 44.4715 96.3479 44.4846 95.8067 44.9411C95.2508 45.3976 94.7096 48.2409 94.7096 48.2409C94.7096 48.2409 94.1099 46.2845 94.2415 45.5411C94.3732 44.7976 95.6019 43.6498 96.07 43.1933C96.5381 42.7368 101.219 43.1412 101.409 43.8585V43.8716Z" fill="#221D31"/>
<path d="M104.787 39.7893C105.036 40.5458 105.109 40.7023 105.811 40.6501C106.499 40.598 107.947 38.8111 108.576 37.6503C109.205 36.4895 109.658 34.8591 110.77 34.3374C111.881 33.8287 115.304 33.4374 116.284 33.0983C117.25 32.7592 118.244 31.168 118.244 31.168C118.244 31.168 116.401 32.0288 115.582 32.2375C114.763 32.4462 109.351 33.4766 108.429 34.1157C107.493 34.7548 105.943 38.0937 104.816 39.7763L104.787 39.7893Z" fill="#221D31"/>
<path d="M104.816 50.9141C104.933 53.2227 103.339 54.6834 103.163 55.453C103.002 56.2225 104.055 57.9703 104.626 58.3616C105.182 58.7528 109.277 58.3746 109.277 58.3746C109.277 58.3746 106.308 57.9833 105.606 57.5398C104.904 57.0833 104.406 56.066 104.304 55.5834C104.202 55.1008 104.728 54.6574 104.874 53.3792C105.021 52.101 104.801 50.9141 104.801 50.9141H104.816Z" fill="#7B1717"/>
<path d="M109.148 55.1015C108.782 55.6623 109.338 56.184 110.186 56.2492C111.034 56.3144 111.956 55.9753 111.912 55.6753C111.868 55.3753 111.532 54.9971 110.917 54.8797C110.303 54.7493 109.133 55.1145 109.133 55.1145L109.148 55.1015Z" fill="#7B1717"/>
<path d="M111.033 63.9844C111.545 63.3323 111.253 62.3019 111.472 61.9237C111.691 61.5585 113.578 60.4368 114.046 59.9803C114.515 59.5238 115.714 59.1716 116.65 59.0281C117.586 58.8847 118.888 58.8455 120.307 57.6978C121.726 56.55 122.399 55.5587 122.691 55.324C122.984 55.1022 122.647 56.3413 122.106 57.1891C121.55 58.0369 118.508 60.0324 117.367 60.0716C116.226 60.1107 115.89 60.0194 114.997 61.0367C114.09 62.0541 112.745 62.041 112.584 62.4584C112.423 62.8758 112.979 63.254 112.423 63.6975C111.867 64.1409 111.048 63.9714 111.048 63.9714L111.033 63.9844Z" fill="#7B1717"/>
<path d="M128.283 159.016C126.44 158.651 115.132 154.803 102.889 152.234C90.646 149.677 74.0729 138.474 74.0729 138.474C74.0729 138.474 64.5065 142.53 62.1661 143.873C59.8403 145.217 57.4414 147.825 57.4414 147.825C57.4414 147.825 76.2524 157.477 81.4306 160.32C86.6088 163.164 94.9903 166.933 101.631 170.963C108.258 174.994 116.449 178.294 119.565 177.667C122.68 177.041 126.922 176.572 127.551 172.502C128.18 168.433 128.283 159.016 128.283 159.016Z" fill="#A34E4E"/>
<path d="M48.5458 219.091C48.5458 219.091 42.7533 225.847 30.788 243.611C18.8226 261.376 18.0035 270.271 18.4277 273.297C18.8372 276.31 23.0939 287.24 26.1364 290.357C29.1789 293.474 55.6841 307.182 55.6841 307.182C55.6841 307.182 72.9153 300.935 78.0057 295.353C83.0961 289.783 80.273 285.283 80.273 285.283C80.273 285.283 76.1041 282.857 72.3741 278.071C68.6441 273.297 64.3582 271.08 64.3582 271.08C64.3582 271.08 66.172 267.663 71.6866 264.115C77.2158 260.567 77.918 259.785 82.8036 255.885C87.1333 252.415 89.1958 245.359 89.1958 245.359C89.1958 245.359 87.8208 240.351 75.7384 232.434C63.6561 224.517 48.5458 219.091 48.5458 219.091Z" fill="#A34E4E"/>
<path d="M76.1755 282.05C74.7566 289.263 68.3497 294.897 64.4881 298.497C60.6264 302.097 51.6743 304.927 51.6743 304.927C51.6743 304.927 50.1969 305.853 51.7621 306.544C53.3272 307.223 85.0252 327.517 91.549 331.078C98.0583 334.639 107.405 340.038 107.405 340.038C107.405 340.038 116.416 342.856 119.956 338.917C123.496 334.991 119.02 328.404 119.02 328.404C119.02 328.404 115.099 325.17 111.267 321.426C107.435 317.696 93.319 302.749 90.3788 297.558C87.4387 292.367 84.0305 289.536 81.968 285.963C80.1396 282.806 76.1755 282.063 76.1755 282.063V282.05Z" fill="#221D31"/>
<path d="M117.792 325.104C113.053 325.169 115.584 334.181 115.584 334.181L118.714 336.268L115.364 334.807C115.364 334.807 110.171 335.212 107.538 336.516C104.906 337.82 105.622 340.129 105.622 340.129C105.622 340.129 113.331 351.046 114.794 355.846C116.257 360.645 114.925 368.588 112.015 372.827C109.118 377.066 111.605 380.471 112.483 381.736C113.36 383.001 120.308 384.214 124.243 383.549C128.178 382.897 131.996 379.518 132.888 374.249C133.78 368.98 135.638 361.415 138.724 357.267C141.811 353.12 144.97 344.929 144.692 342.229C144.415 339.529 142.147 336.764 137.686 335.199C133.224 333.621 129.334 333.177 125.252 329.916C121.157 326.656 117.807 325.104 117.807 325.104H117.792Z" fill="#221D31"/>
<path d="M97.7676 254.999C103.121 265.981 104.628 277.459 110.83 288.623C117.032 299.788 117.383 301.51 118.948 304.562C120.513 307.614 120.075 310.209 122.737 315.322C125.414 320.435 130.329 329.982 130.329 329.982C130.329 329.982 135.594 331.978 148.598 329.16C161.588 326.356 162.451 322.756 162.451 322.756C162.451 322.756 162.772 319.978 159.803 314.135C156.834 308.292 156.658 310.144 155.883 305.592C155.108 301.04 155.795 275.006 155.269 267.35C154.742 259.694 152.679 250.655 152.679 250.655C152.679 250.655 140.685 248.947 126.555 248.347C112.41 247.747 97.7676 254.986 97.7676 254.986V254.999Z" fill="#A34E4E"/>
<path d="M121.656 168.485C122.095 172.842 114.298 172.111 112.411 173.598C110.524 175.085 92.3862 176.181 75.0233 190.019C57.675 203.858 48.9277 212.466 47.9769 214.944C47.0261 217.422 52.2774 221.7 62.8385 225.731C73.3996 229.761 90.6455 248.451 90.6455 248.451C90.6455 248.451 101.879 242.125 103.313 241.16C104.746 240.195 131.515 217.905 134.557 212.583C137.6 207.262 142.032 195.067 140.408 188.597C138.785 182.128 142.603 183.719 137.059 177.172C131.515 170.624 121.656 168.485 121.656 168.485Z" fill="#C0772A"/>
<path d="M163.109 190.006C166.634 201.693 165.961 223.175 162.378 229.826C158.794 236.478 157.053 237 157.58 239.752C158.106 242.504 157.829 252.677 157.829 252.677L95.7346 253.551C95.7346 253.551 93.7014 248.96 92.5019 240.613C91.3024 232.265 90.0737 219.575 90.0737 219.575L84.9395 214.684C84.9395 214.684 103.78 190.476 108.3 184.555C112.82 178.646 127.52 174.225 127.52 174.225C127.52 174.225 143.435 181.698 151.978 183.446C160.52 185.194 163.109 190.02 163.109 190.02V190.006Z" fill="#C0772A"/>
<path d="M152.899 185.232C156.321 199.045 152.738 221.1 152.738 224.831C152.738 228.561 153.966 228.796 155.795 230.348C157.623 231.913 160.958 233.908 160.958 233.908L158.325 236.687C158.325 236.687 150.368 229.683 149.695 228.483C149.037 227.296 149.798 227.661 149.622 225.483C149.446 223.305 151.246 200.401 151.012 193.854C150.778 187.306 149.315 184.619 149.871 183.472C150.427 182.337 152.899 185.206 152.899 185.206V185.232Z" fill="#FFD09E"/>
<path d="M155.956 257.763C157.887 258.324 158.194 258.989 158.648 257.568C159.087 256.146 159.525 253.563 159.101 252.481C158.677 251.398 158.355 251.503 157.756 251.033C157.17 250.564 148.599 248.307 139.734 249.246C130.87 250.185 117.925 251.137 111.869 251.698C105.798 252.259 96.349 250.003 94.8716 249.077C93.3943 248.151 93.0139 248.281 93.4381 249.611C93.8477 250.942 93.877 255.063 94.3743 255.872C94.8716 256.681 97.0511 256.707 99.216 257.15C101.381 257.594 111.386 259.811 123.059 257.789C134.717 255.768 140.905 255.885 144.284 255.885C147.662 255.885 155.942 257.763 155.942 257.763H155.956Z" fill="#FFD09E"/>
<path d="M46.6166 214.188C46.6166 214.188 50.3759 214.579 59.4303 218.349C68.4848 222.118 81.1961 232.252 86.0379 237.678C90.8796 243.091 91.3916 246.286 92.0644 247.382C92.7519 248.478 92.5471 249.065 91.8596 250.134C91.1721 251.217 89.2998 253.003 88.6123 253.329C87.9248 253.656 87.4714 253.395 87.2081 252.521C86.9448 251.647 81.5618 245.412 71.7614 236.256C61.9609 227.113 48.211 222.744 46.5142 222.418C44.8174 222.092 43.969 221.818 42.2576 221.557C40.8972 221.348 40.1659 220.709 41.5408 218.583C42.9158 216.457 45.0368 214.41 46.602 214.175L46.6166 214.188Z" fill="#FFD09E"/>
<path d="M128.868 328.482C128.868 328.482 130.725 330.269 144.812 328.508C158.898 326.747 162.526 320.956 162.526 320.956C162.526 320.956 163.272 320.278 164.5 321.908C165.729 323.539 167.353 339.412 168.479 351.19C169.62 362.967 171.58 379.193 173.877 387.123C176.188 395.053 178.792 398.796 178.792 398.796C178.792 398.796 175.31 401.326 169.986 402.526C164.676 403.726 153.778 401.196 153.778 401.196C153.778 401.196 152.433 397.257 151.423 392.379C150.429 387.501 139.517 356.524 137.352 349.898C135.187 343.273 129.555 332.786 128.619 331.038C127.683 329.291 128.882 328.482 128.882 328.482H128.868Z" fill="#221D31"/>
<path d="M152.591 396.8C152.357 396.982 152.21 397.1 152.21 397.1C151.991 399.878 153.483 403.999 148.904 408.604C144.326 413.208 140.377 414.316 135.476 416.482C130.576 418.647 129.143 422.064 129.187 423.016C129.23 423.968 129.508 426.864 130.269 427.542C131.03 428.207 138.168 431.703 140.815 431.95C143.463 432.198 147.72 431.585 153.717 428.859C159.714 426.133 175.629 422.129 178.891 421.568C182.153 421.007 186.98 417.029 185.883 412.216C184.786 407.404 183.864 402.747 180.953 400.087C180.09 399.304 179.388 398.548 178.818 397.869C178.481 398.039 178.13 398.195 177.765 398.365C173.098 400.413 168.696 400.178 168.696 400.178L167.072 403.178L166.106 399.748C166.106 399.748 160.358 398.808 156.233 398C154.712 397.7 153.512 397.243 152.591 396.8Z" fill="#221D31"/>
<path d="M63.2777 269.79C56.9001 268.969 50.2884 269.882 44.3789 272.086L63.2777 269.79Z" fill="#A34E4E"/>
<path d="M63.3214 269.464C56.8706 268.642 50.2004 269.555 44.2324 271.785C44.0422 271.851 43.9545 272.046 44.0276 272.216C44.1008 272.372 44.3202 272.451 44.5103 272.385C50.3614 270.194 56.9145 269.294 63.219 270.103C63.4238 270.129 63.5993 270.012 63.6432 269.829C63.6724 269.646 63.5261 269.49 63.336 269.464H63.3214Z" fill="#6B1919"/>
<path d="M129.583 332.408C129.465 332.369 129.348 332.382 129.246 332.435C129.027 332.526 128.939 332.761 129.056 332.956C130.87 336.191 137.086 347.682 138.9 355.938C138.944 356.147 139.164 356.29 139.398 356.251C139.632 356.212 139.778 356.003 139.734 355.794C137.876 347.343 131.66 335.865 129.817 332.604C129.758 332.513 129.67 332.448 129.568 332.408H129.583Z" fill="white"/>
<path d="M115.992 325.456C115.773 325.365 115.524 325.443 115.407 325.626C114.603 327.165 114.442 328.626 114.486 329.839C114.529 331.039 114.764 332.017 114.764 332.473C114.764 333.478 115.261 334.143 115.495 334.547C115.085 334.547 114.222 334.508 112.716 334.612C110.902 334.743 108.825 335.004 107.611 335.838C106.528 336.569 105.958 337.156 105.621 337.664C105.285 338.16 105.197 338.564 105.08 338.838C104.992 339.034 105.109 339.256 105.329 339.334C105.548 339.399 105.797 339.308 105.885 339.099C106.031 338.734 106.089 338.447 106.353 338.056C106.616 337.664 107.099 337.156 108.123 336.451C109 335.851 111.019 335.512 112.774 335.382C114.529 335.251 116.022 335.304 116.022 335.304C116.256 335.304 116.46 335.147 116.475 334.925C116.475 334.86 116.46 334.782 116.416 334.717C116.416 334.717 115.612 333.386 115.612 332.46C115.612 331.821 115.363 330.921 115.334 329.799C115.305 328.678 115.451 327.36 116.182 325.952C116.285 325.756 116.182 325.534 115.978 325.443L115.992 325.456Z" fill="white"/>
<path d="M143.695 43.1816C143.564 43.2599 143.461 43.3121 143.461 43.3121C143.461 43.3121 144.266 47.2249 144.032 50.0422C143.798 52.8594 140.726 59.0157 136.791 62.8112C133.134 66.3327 119.969 71.4977 116.971 72.1368C118.419 72.2933 124.577 70.4021 127.371 70.6499C130.179 70.8977 128.834 69.9978 131.774 72.9455C134.714 75.8932 135.167 80.3799 135.475 81.9842C135.767 83.5885 134.67 84.9188 133.163 85.4405C131.642 85.9492 131.964 87.2274 128.102 88.5056C124.241 89.7838 122.895 90.7229 121.096 92.9532C119.296 95.1836 119.223 98.7443 119.677 101.001C120.13 103.257 120.964 105.905 120.964 105.905L188.909 100.805C188.909 100.805 197.583 86.0014 198.607 83.6797C199.631 81.3581 198.71 77.8366 197.876 75.0062C197.042 72.1759 192.668 66.0197 189.831 63.8024C186.993 61.5851 183.219 61.2069 181.171 61.9112C179.109 62.6155 170.566 67.1805 167.641 67.6109C164.715 68.0414 158.923 65.4458 156.158 64.2067C153.744 63.1242 145.728 47.2249 143.739 43.2077L143.695 43.1816Z" fill="#A34E4E"/>
<path d="M143.695 43.1816C143.564 43.2599 143.461 43.3121 143.461 43.3121C143.461 43.3121 144.266 47.2249 144.032 50.0422C143.798 52.8594 140.726 59.0157 136.791 62.8112C133.134 66.3327 119.969 71.4977 116.971 72.1368C118.419 72.2933 124.592 70.4021 127.371 70.6499C130.179 70.8977 128.834 69.9978 131.774 72.9455C132.081 73.2455 132.359 73.5715 132.608 73.8976L137.669 69.5804C137.669 69.5804 143.081 63.8807 144.734 58.6113C145.685 55.5854 145.948 51.0465 145.992 47.7206C144.997 45.7902 144.178 44.1468 143.695 43.1947V43.1816Z" fill="#823030"/>
<path d="M105.021 5.29162C112.466 5.26553 121.96 9.94792 127.386 12.9478C132.813 15.9476 137.494 30.1122 137.494 30.1122C137.494 30.1122 146.388 56.0545 151.946 61.6107C157.504 67.154 164.116 68.2887 167.817 68.1844C171.518 68.0931 178.714 61.6368 183.922 62.2368C189.129 62.8368 194.264 67.9757 196.838 71.5233C199.412 75.071 200.012 85.0227 200.012 85.0227C200.012 85.0227 201.724 68.9147 199.603 62.9933C197.482 57.0588 195.112 52.0895 188.676 47.1332C182.24 42.1769 179.036 42.8942 173.448 37.3901C167.861 31.886 159.947 16.8215 153.687 9.8827C147.426 2.94389 141.56 1.07877 130.634 0.335324C119.707 -0.40812 112.071 0.165775 107.873 1.26138C103.675 2.34394 101.115 5.42204 101.115 5.42204L105.021 5.31769V5.29162Z" fill="#221D31"/>
<path d="M125.061 101.756C124.549 102.539 119.868 106.243 115.772 112.634C111.676 119.025 111.647 121.073 112.554 126.472C113.461 131.885 119.239 135.133 119.751 136.059C120.263 136.985 118.829 137.22 119.517 138.889C120.19 140.572 124.739 146.676 124.929 147.641C125.134 148.606 122.545 149.193 121.638 150.745C120.731 152.31 121.287 154.306 121.594 156.301C121.901 158.284 118.815 159.64 117.03 160.462C115.246 161.271 109.395 165.405 109.395 165.405C109.395 165.405 118.902 166.827 127.518 169.618C136.134 172.409 140.434 177.47 146.505 183.013C152.575 188.556 159.201 191.7 162.785 192.208C166.354 192.717 167.071 191.217 168.007 189.952C168.958 188.687 168.227 188.022 168.066 184.291C167.905 180.548 169.982 173.961 170.699 172.344C171.401 170.727 172.629 171.249 174.268 169.344C175.906 167.44 175.687 165.979 176.111 162.679C176.535 159.38 186.175 137.559 186.101 132.498C186.028 127.451 188.544 118.334 188.5 116.142C188.456 113.951 189.685 102.93 189.685 102.93C189.685 102.93 186.175 95.3782 176.769 92.0262C167.364 88.6741 162.668 89.8871 156.554 91.387C150.439 92.8739 133.983 98.6128 132.974 98.6389C131.965 98.665 132.009 100.961 132.009 100.961C132.009 100.961 129.976 101.078 128.454 101.065C126.933 101.065 125.09 101.756 125.09 101.756H125.061Z" fill="#221D31"/>
<path d="M131.936 101.065C131.936 101.065 126.509 111.969 124.52 115.791C122.53 119.612 122.896 120.943 123.306 122.677C123.715 124.412 125.061 126.16 125.997 127.268C126.933 128.377 128.82 130.594 128.82 130.594C128.82 130.594 126.48 129.016 125.31 127.96C124.125 126.903 123.891 126.642 123.072 124.699C122.252 122.756 122.048 121.673 122.092 120.486C122.135 119.299 123.159 116.704 124.213 114.408C125.28 112.1 129.756 103.922 130.181 103.061C130.605 102.2 131.161 100.778 131.161 100.778L131.921 101.078L131.936 101.065Z" fill="white"/>
<path d="M134.418 100.583C135.106 100.713 135.515 101.47 135.325 102.278C135.135 103.074 134.418 103.622 133.731 103.491C133.043 103.361 132.634 102.604 132.824 101.796C133.014 101 133.731 100.452 134.418 100.583Z" fill="white"/>
<path d="M132.345 106.739C133.032 106.869 133.442 107.626 133.237 108.435C133.047 109.243 132.33 109.778 131.642 109.647C130.955 109.517 130.545 108.761 130.75 107.952C130.94 107.156 131.657 106.609 132.345 106.739Z" fill="white"/>
<path d="M129.155 112.753C129.843 112.883 130.252 113.64 130.047 114.448C129.857 115.244 129.14 115.792 128.453 115.661C127.765 115.531 127.356 114.774 127.561 113.966C127.751 113.17 128.468 112.622 129.155 112.753Z" fill="white"/>
<path d="M152.324 111.421C155.337 113.873 158.614 115.647 162.885 118.79C167.142 121.933 171.706 124.216 171.706 124.216C171.706 124.216 164.802 118.712 162.139 116.938C159.477 115.164 152.324 111.421 152.324 111.421Z" fill="white"/>
<path d="M142.48 115.974C144.762 120.095 152.252 133.895 154.256 137.09C156.26 140.299 158.702 142.268 158.702 142.268C158.702 142.268 154.709 136.294 152.837 133.608C150.964 130.908 145.933 119.534 145.143 118.074C144.353 116.626 142.48 115.974 142.48 115.974Z" fill="white"/>
<path d="M144.117 131.155C145.843 134.025 149.295 139.646 149.295 139.646C149.295 139.646 149.954 139.046 149.149 137.546C148.345 136.046 144.117 131.155 144.117 131.155Z" fill="white"/>
<path d="M133.002 136.764C129.476 140.429 126.639 147.211 126.639 147.211C126.639 147.211 127.282 144.981 128.438 142.529C129.593 140.09 132.402 137.22 132.402 137.22L133.016 136.764H133.002Z" fill="white"/>
<path d="M129.081 137.299C126.712 140.233 125.556 143.833 125.556 143.833C125.556 143.833 124.708 142.099 125.585 140.481C126.448 138.864 129.081 137.299 129.081 137.299Z" fill="white"/>
<path d="M95.0143 10.469C94.8242 10.4168 94.6194 10.4951 94.5462 10.6777C92.8348 15.2818 95.8335 20.7598 99.5635 23.8771C99.7098 24.0075 99.9438 23.9945 100.075 23.8771C100.207 23.7466 100.207 23.5379 100.061 23.4206C96.521 20.4468 93.6686 15.1383 95.2484 10.8994C95.3069 10.7299 95.2191 10.5472 95.0143 10.482V10.469Z" fill="white"/>
<path d="M103.717 18.4531C103.512 18.4531 103.352 18.5966 103.352 18.7792C103.381 20.6052 104.375 22.053 105.721 23.1877C107.067 24.3224 108.778 25.1702 110.314 25.8615C110.49 25.9397 110.709 25.8745 110.797 25.718C110.885 25.5615 110.826 25.3658 110.636 25.2745C109.129 24.5963 107.491 23.7616 106.233 22.7051C104.975 21.6486 104.112 20.3835 104.083 18.7662C104.083 18.5836 103.922 18.4531 103.717 18.4531Z" fill="white"/>
<path d="M142.378 8.66974C142.29 8.6567 142.188 8.66974 142.115 8.72191C141.954 8.82625 141.91 9.03494 142.027 9.17842C148.741 17.2259 147.337 28.1688 148.024 38.1466C148.375 43.129 149.238 47.8766 152.003 51.8547C154.753 55.8328 159.405 59.0283 167.128 60.9195C167.318 60.9717 167.523 60.8673 167.581 60.6978C167.625 60.5282 167.508 60.3456 167.318 60.3065C159.712 58.4544 155.28 55.3632 152.617 51.5286C149.955 47.694 149.078 43.0638 148.741 38.1206C148.054 28.2341 149.531 17.1085 142.612 8.80018C142.554 8.73497 142.466 8.68279 142.378 8.66974Z" fill="white"/>
<path d="M118.638 6.71335C118.462 6.79161 118.374 6.98726 118.462 7.14377C121.08 12.1001 125.981 14.0956 130.998 16.4303C131.174 16.5085 131.393 16.4564 131.495 16.2868C131.583 16.1303 131.525 15.9347 131.349 15.8564C126.317 13.5087 121.622 11.6175 119.12 6.88292C119.033 6.71336 118.828 6.64814 118.638 6.71335Z" fill="white"/>
<path d="M128.57 10.3262C128.482 10.3262 128.395 10.3783 128.336 10.4436C128.204 10.587 128.234 10.7827 128.38 10.9001C128.994 11.3435 129.623 11.787 130.238 12.2304C130.267 12.2565 130.296 12.2696 130.34 12.2826C130.486 12.3348 130.633 12.3869 130.779 12.4391C130.969 12.5043 131.174 12.4261 131.247 12.2565C131.32 12.087 131.218 11.9043 131.027 11.8391C130.896 11.8 130.779 11.7478 130.662 11.7087C130.062 11.2783 129.448 10.8479 128.833 10.4044C128.76 10.3523 128.658 10.3262 128.57 10.3392V10.3262Z" fill="white"/>
<path d="M163.97 44.016C163.882 44.016 163.78 44.0421 163.707 44.0942C163.546 44.2116 163.531 44.4203 163.663 44.5507C170.26 51.4765 180.309 54.6981 188.983 58.4675C189.159 58.5457 189.378 58.4675 189.466 58.311C189.554 58.1545 189.481 57.9588 189.305 57.8805C180.573 54.0851 170.64 50.8765 164.204 44.1203C164.146 44.0551 164.058 44.016 163.956 44.0029L163.97 44.016Z" fill="white"/>
<path d="M182.633 49.1406C182.53 49.1406 182.443 49.1798 182.369 49.2319C182.223 49.3624 182.223 49.571 182.369 49.6884C184.242 51.3449 184.71 51.8666 185.149 52.2318C185.602 52.597 185.968 52.7666 187.562 53.6535C187.738 53.7448 187.957 53.7056 188.06 53.5491C188.162 53.3926 188.103 53.197 187.943 53.1057C186.348 52.2188 186.026 52.0753 185.646 51.7622C185.266 51.4492 184.768 50.9014 182.881 49.245C182.808 49.1798 182.721 49.1537 182.618 49.1537L182.633 49.1406Z" fill="white"/>
<path d="M105.678 68.0928C105.575 68.0928 105.488 68.1449 105.429 68.2102C97.267 76.6098 95.4971 84.9703 97.9106 95.4306C97.9399 95.6132 98.1447 95.7306 98.3348 95.6915C98.525 95.6524 98.6566 95.4828 98.6128 95.3132C96.2285 84.9833 97.9253 76.9098 105.97 68.6406C106.102 68.5101 106.087 68.3015 105.941 68.1841C105.868 68.1319 105.766 68.1058 105.678 68.1058V68.0928Z" fill="white"/>
<path d="M110.3 79.7923C110.198 79.7923 110.11 79.8445 110.051 79.9097C108.589 81.4618 108.325 83.4052 108.428 85.2964C108.53 87.2007 108.984 89.0789 109.028 90.5918C109.028 90.7744 109.203 90.9049 109.393 90.9049C109.598 90.9049 109.759 90.7614 109.759 90.5788C109.715 88.9615 109.262 87.0833 109.159 85.2573C109.057 83.4313 109.305 81.6966 110.607 80.314C110.739 80.1836 110.71 79.9749 110.563 79.8576C110.49 79.8054 110.388 79.7793 110.3 79.7793V79.7923Z" fill="white"/>
<path d="M109.393 103.126C109.188 103.139 109.057 103.309 109.071 103.478C109.686 108.369 110.154 109.921 110.286 110.834C110.344 111.291 110.344 111.578 110.227 112.113C110.11 112.66 109.905 113.443 109.554 114.799C109.51 114.969 109.627 115.152 109.817 115.191C110.008 115.23 110.212 115.125 110.256 114.943C110.593 113.586 110.812 112.804 110.929 112.23C111.046 111.643 111.061 111.252 110.988 110.743C110.841 109.739 110.388 108.278 109.774 103.413C109.744 103.23 109.569 103.113 109.379 103.126H109.393Z" fill="white"/>
<path d="M119.984 336.58C119.882 336.58 119.794 336.606 119.721 336.671C119.575 336.802 119.575 336.997 119.721 337.128C123.422 340.597 127.108 343.91 128.571 348.514C128.629 348.684 128.834 348.788 129.024 348.736C129.214 348.684 129.317 348.514 129.273 348.345C127.752 343.532 123.948 340.141 120.262 336.671C120.189 336.606 120.101 336.58 119.999 336.58H119.984Z" fill="white"/>
<path d="M124.314 351.203C124.109 351.229 123.977 351.386 124.007 351.568C124.65 355.755 125.221 360.424 124.445 364.494C123.67 368.563 121.578 372.007 116.839 373.937C116.664 374.015 116.576 374.198 116.649 374.367C116.737 374.537 116.941 374.602 117.132 374.537C122.105 372.515 124.358 368.811 125.162 364.611C125.967 360.411 125.382 355.703 124.723 351.503C124.694 351.321 124.519 351.203 124.314 351.229V351.203Z" fill="white"/>
<path d="M166.178 402.747C165.973 402.721 165.783 402.838 165.754 403.021C164.218 412.346 153.247 418.998 143.169 420.25C142.964 420.276 142.832 420.433 142.861 420.615C142.891 420.798 143.066 420.915 143.271 420.902C153.613 419.624 164.861 412.855 166.47 403.125C166.5 402.942 166.368 402.773 166.163 402.747H166.178Z" fill="white"/>
<path d="M177.542 398.156C174.953 398.404 173.11 399.317 171.589 400.569C170.068 401.821 168.868 403.399 167.478 405.004C167.361 405.147 167.391 405.343 167.537 405.46C167.698 405.565 167.917 405.538 168.049 405.408C169.453 403.791 170.653 402.239 172.086 401.052C173.52 399.865 175.187 399.03 177.615 398.808C177.82 398.795 177.952 398.626 177.937 398.456C177.923 398.274 177.747 398.143 177.542 398.156Z" fill="white"/>
<path d="M160.868 396.251C158.498 395.573 155.572 396.095 153.232 397.581C153.071 397.686 153.027 397.894 153.144 398.038C153.261 398.181 153.481 398.221 153.656 398.116C155.821 396.747 158.542 396.29 160.648 396.89C162.755 397.49 164.305 399.081 164.247 402.016C164.247 402.199 164.407 402.342 164.612 402.342C164.817 402.342 164.978 402.199 164.978 402.029C165.036 398.873 163.252 396.942 160.868 396.264V396.251Z" fill="white"/>
<path d="M125.177 101.235C125.06 101.235 124.957 101.274 124.87 101.353C119.428 106.518 114.923 111.67 112.846 116.887C110.769 122.091 111.164 127.373 115.493 132.564C115.64 132.734 115.903 132.773 116.093 132.643C116.283 132.512 116.327 132.277 116.181 132.108C112.012 127.099 111.646 122.169 113.65 117.135C115.654 112.113 120.072 107.013 125.484 101.887C125.645 101.731 125.63 101.496 125.469 101.353C125.382 101.288 125.279 101.248 125.162 101.248L125.177 101.235Z" fill="white"/>
<path d="M23.2852 67.8575L27.3955 63.7881L28.5803 65.1576L24.8211 69.7487L23.2852 67.8444V67.8575Z" fill="white"/>
<path d="M30.7441 74.9149L34.6497 70.1543L35.8784 71.4847L32.3532 76.8583L30.7441 74.9149Z" fill="white"/>
<path d="M38.3945 80.8092L42.578 77.1963L43.441 78.8266L39.3746 83.0265L38.3945 80.8092Z" fill="white"/>
<path d="M0.126953 74.483C0.843703 78.2263 1.89689 81.5391 5.71468 83.4565C9.53247 85.3607 15.676 83.4825 15.676 83.4825C15.676 83.4825 17.2851 80.6522 15.0909 77.3263C12.8968 74.0004 12.575 72.3961 9.19604 71.1831C5.8317 69.9701 0.126953 74.496 0.126953 74.496V74.483Z" fill="#221D31"/>
<path d="M16.2031 103.451L19.4797 106.021C19.4797 106.021 22.8002 103.712 26.6033 103.804C30.3919 103.895 31.4158 102.225 31.4158 102.225L24.8773 101.038L27.203 92.3389L16.2178 103.451H16.2031Z" fill="#221D31"/>
<path d="M42.7082 98.8606C41.9914 93.5782 44.8292 87.5002 44.8292 87.5002L43.1031 84.709L23.59 67.0099C23.59 67.0099 18.1632 58.519 6.63664 63.7231C-4.88988 68.9272 1.1513 80.0266 5.74436 80.9657C10.3374 81.8918 13.0435 80.6657 13.0435 80.6657C13.0435 80.6657 14.36 88.4002 15.34 94.7129C16.3201 101.026 16.2323 103.452 16.2323 103.452C16.2323 103.452 19.5967 101.052 21.5275 100.739C23.4437 100.426 24.8918 101.026 24.8918 101.026L42.7228 98.8606H42.7082Z" fill="#221D31"/>
<path d="M43.1032 84.6953C43.1032 84.6953 38.086 87.8126 38.7881 94.0601C39.183 97.5034 40.7774 98.4947 42.679 98.6251C42.0647 93.3949 44.8293 87.4865 44.8293 87.4865L43.1032 84.6953Z" fill="#221D31"/>
<path d="M44.7715 133.332L45.0348 141.08L54.1331 140.884L49.2914 131.206L44.7715 133.332Z" fill="#A34E4E"/>
<path d="M104.701 153.158C101.6 153.21 99.6692 155.244 98.6599 158.401C97.2995 162.601 94.8128 168.053 89.3128 173.048C89.3128 173.048 85.3342 175.67 83.8275 177.939C83.1546 178.969 82.5842 181.121 81.7943 183.495L51.252 182.83L55.5378 193.812C55.611 195.13 56.3716 196.903 58.1269 199.212C63.8755 206.816 71.3795 204.886 79.8781 213.937C81.1946 215.333 81.9698 216.95 82.4379 218.698L79.9512 223.576L84.5296 235.875C85.7145 239.123 88.0549 242.032 92.8527 244.158C108.431 251.044 130.007 240.74 147.165 225.506C159.408 214.629 162.407 205.903 160.593 199.29V199.251C160.374 198.482 160.096 197.751 159.759 197.034L155.283 185.1L142.85 184.826C138.432 183.378 134.059 182.491 130.797 181.721C123.922 180.104 118.422 178.409 117.866 171.77C117.31 165.131 113.463 155.597 108.241 153.771C106.939 153.314 105.769 153.118 104.73 153.131L104.701 153.158Z" fill="#6A071A"/>
<path d="M84.9235 161.323C90.4088 156.328 92.9101 150.876 94.2705 146.676C95.6308 142.463 98.5856 140.246 103.822 142.072C109.044 143.885 112.891 153.432 113.447 160.071C114.003 166.71 119.503 168.406 126.378 170.023C133.268 171.64 145.013 173.753 151.976 180.653C158.939 187.553 159.919 198.574 142.775 213.808C125.632 229.029 104.042 239.346 88.4633 232.459C72.885 225.573 83.0658 210.312 75.4887 202.226C66.9901 193.174 59.4715 195.104 53.7375 187.5C47.4769 179.218 53.7375 177.783 60.0859 179.975C66.4342 182.166 68.4089 183.653 72.7533 179.896C77.1123 176.14 77.9461 168.484 79.4528 166.227C80.9448 163.958 84.9235 161.336 84.9235 161.336V161.323Z" fill="#CE1D3F"/>
<path d="M98.4668 206.438L122.251 192.143L134.699 201.455L108.911 217.367L98.4668 206.451V206.438Z" fill="#FBD69D"/>
<path d="M103.456 157.422C92.895 156.418 91.4177 159.378 89.048 166.891C86.6783 174.404 80.5494 183.716 70.5441 184.434C60.5389 185.151 57.1307 185.451 59.1785 188.295C61.2264 191.138 67.0043 190.734 72.8699 195.077C78.7209 199.42 82.919 206.307 84.8645 214.393C86.7953 222.48 87.5999 222.936 91.3445 224.515C95.0892 226.093 97.1955 223.615 97.2248 218.893C97.2541 214.159 98.2341 206.163 101.759 200.385C105.299 194.62 117.177 189.077 124.388 186.834C131.6 184.59 136.339 182.634 136.427 179.308C136.514 175.982 132.214 174.782 125.032 172.904C117.85 171.026 117.177 170.765 112.949 165.17C108.722 159.561 107.815 158.426 103.442 157.422H103.456Z" fill="#FBD69D"/>
<path d="M37.1208 93.8913C35.3216 93.9173 32.5423 95.026 30.2604 96.4998C26.6036 98.8606 24.5703 100.765 24.5703 100.765L79.7162 182.805C81.9835 179.805 87.3664 174.301 97.8836 171.17L38.92 93.9565C38.92 93.9565 38.2032 93.8652 37.1208 93.8782V93.8913Z" fill="#221D31"/>
<path d="M74.3476 140.351L76.0298 139.973C76.0298 139.973 73.7918 133.36 73.2652 130.79C72.7386 128.221 72.1974 125.86 71.4221 125.078C70.6469 124.295 65.7613 120.082 64.3863 119.404C62.9967 118.726 60.3491 118.687 57.8331 118.413C55.3172 118.152 53.3571 116.43 52.9036 117.826C52.4502 119.221 54.6736 121.856 56.1363 122.847C57.5991 123.839 57.8039 124.086 58.7839 124.047C59.764 124.008 61.1682 124.452 61.1682 124.452L65.1469 128.704L74.3769 140.338L74.3476 140.351Z" fill="#A34E4E"/>
<path d="M38.5685 128.246C37.1789 125.859 36.6084 124.685 37.0033 123.159C37.3983 121.62 38.9927 121.007 40.2214 120.12C41.4647 119.22 42.9714 119.39 44.5073 119.324C46.0432 119.259 46.4966 119.364 47.7253 119.064C48.9394 118.764 51.2067 120.146 49.9048 121.894C48.603 123.642 47.7692 123.355 46.1309 124.607C44.4926 125.859 44.5804 127.894 42.6349 128.415C40.6895 128.95 38.5538 128.246 38.5538 128.246H38.5685Z" fill="#A34E4E"/>
<path d="M40.3671 133.477C40.3671 133.477 38.6264 130.334 38.5679 128.521C38.5094 126.695 40.2062 125.508 41.1862 125C42.1662 124.491 43.6875 124.504 46.5253 123.682C49.363 122.847 49.4362 122.469 50.9282 122.404C52.4202 122.339 53.1077 123.5 53.3124 124.96C53.5172 126.434 52.0545 127.869 50.1675 128.247C48.2806 128.625 45.7208 129.421 44.2434 130.856C42.766 132.29 40.3671 133.464 40.3671 133.464V133.477Z" fill="#A34E4E"/>
<path d="M40.5008 136.046C39.5208 133.672 41.2907 132.016 41.4809 130.764C41.671 129.525 42.9583 128.546 45.2694 127.842C47.5806 127.138 51.296 126.394 52.8611 125.586C54.4263 124.79 55.4795 127.268 55.0699 128.233C54.6603 129.199 51.5739 131.233 50.3305 131.872C49.0726 132.511 46.5859 133.685 46.3519 134.559C46.1178 135.42 46.2348 139.92 46.2348 139.92C46.2348 139.92 44.0407 139.555 42.4756 138.707C40.9104 137.859 40.5008 136.046 40.5008 136.046Z" fill="#A34E4E"/>
<path d="M57.1911 148.776C57.1911 148.776 54.3241 149.18 52.9345 148.698C51.5449 148.215 44.4798 145.685 43.2511 145.163C42.0223 144.642 40.8668 143.872 40.0915 143.246C39.3162 142.62 38.4532 140.911 36.8881 138.042C35.3229 135.185 31.0663 132.955 30.3349 131.194C29.6035 129.42 31.6953 129.251 34.3575 129.981C37.0197 130.712 40.6474 134.233 42.4465 135.681C44.2457 137.129 44.8016 138.537 46.3814 138.629C47.9611 138.72 49.8188 138.42 49.8188 138.42L57.2058 148.776H57.1911Z" fill="#A34E4E"/>
<path d="M25.2873 63.9059L29.7633 67.1144C29.7633 67.1144 33.2447 64.0754 34.4149 62.9146C35.5851 61.7538 35.4096 59.6278 33.4495 58.78C31.504 57.9322 30.0851 58.767 28.637 59.7973C27.1743 60.8277 24.9216 62.4451 24.8338 62.9016C24.7461 63.3581 25.2873 63.8928 25.2873 63.8928V63.9059Z" fill="#CE1D3F"/>
<path d="M32.967 69.9049L37.443 73.1134C37.443 73.1134 40.9244 70.0744 42.0946 68.9136C43.2648 67.7528 43.0893 65.6268 41.1292 64.779C39.1837 63.9312 37.7648 64.766 36.3167 65.7964C34.854 66.8268 32.6013 68.4571 32.5135 68.9006C32.4258 69.3571 32.967 69.8918 32.967 69.8918V69.9049Z" fill="#CE1D3F"/>
<path d="M40.674 77.523L45.1501 80.7316C45.1501 80.7316 48.6314 77.6926 49.8016 76.5318C50.9718 75.371 50.7963 73.245 48.8362 72.3972C46.8907 71.5494 45.4719 72.3841 44.0237 73.4145C42.561 74.4449 40.3083 76.0622 40.2206 76.5187C40.1328 76.9752 40.674 77.51 40.674 77.51V77.523Z" fill="#CE1D3F"/>
<path d="M52.6282 125.011C47.0551 126.406 41.599 128.076 40.502 133.697L52.6282 125.011Z" fill="#A34E4E"/>
<path d="M52.5259 124.698C49.732 125.402 46.9382 126.172 44.6709 127.502C42.4182 128.832 40.6922 130.75 40.1217 133.645C40.0778 133.828 40.2095 133.997 40.4143 134.023C40.6191 134.05 40.8092 133.932 40.8385 133.75C41.3797 131.024 42.9302 129.289 45.0658 128.024C47.2015 126.772 49.9222 126.002 52.716 125.311C52.9062 125.259 53.0232 125.076 52.9647 124.906C52.9062 124.737 52.716 124.646 52.5259 124.685V124.698Z" fill="#6B1919"/>
<path d="M49.2044 122.441C45.7962 123.302 40.5302 123.459 39.1406 127.124L49.2044 122.441Z" fill="#A34E4E"/>
<path d="M49.089 122.129C47.4361 122.546 45.2566 122.794 43.2965 123.42C41.3218 124.046 39.5372 125.063 38.7912 127.007C38.7327 127.176 38.8205 127.359 39.0253 127.424C39.2154 127.476 39.4202 127.398 39.4934 127.215C40.1516 125.494 41.6729 124.62 43.5452 124.033C45.4175 123.446 47.5678 123.198 49.3084 122.755C49.4986 122.703 49.6156 122.52 49.5571 122.35C49.4986 122.181 49.2938 122.077 49.1037 122.129H49.089Z" fill="#6B1919"/>
<path d="M40.7168 134.322C42.5599 136.5 45.617 139.709 48.7766 139.774L40.7168 134.322Z" fill="#A34E4E"/>
<path d="M40.4832 134.075C40.3223 134.179 40.2931 134.388 40.4247 134.531C41.3462 135.627 42.5896 136.996 44.0085 138.105C45.4273 139.214 47.051 140.075 48.777 140.114C48.9818 140.114 49.1427 139.97 49.1427 139.801C49.1427 139.618 48.9818 139.475 48.7917 139.475C47.3435 139.448 45.8662 138.679 44.5058 137.622C43.1454 136.566 41.9313 135.223 41.0244 134.153C40.9074 134.01 40.6734 133.984 40.5125 134.088L40.4832 134.075Z" fill="#6B1919"/>
<path d="M182.533 62.1977C181.451 62.1977 180.617 62.6412 179.418 63.0455C171.724 66.8149 170.246 72.4755 168.345 77.0405C166.443 81.6055 170.188 88.6096 171.767 92.0529C173.347 95.4962 180.529 118.282 183.367 122.664C186.219 127.047 187.989 132.838 187.989 132.838L214.758 139.725C214.758 139.725 214.948 139.907 214.685 137.507C214.421 135.12 202.398 88.44 200.057 80.0795C197.717 71.719 197.146 68.2627 190.9 64.0759C187.39 61.7151 183.908 62.1847 182.519 62.1977H182.533Z" fill="#A34E4E"/>
<path d="M193.345 127.164C186.426 128.494 177.796 131.938 170.643 135.759C163.49 139.581 148.745 149.467 146.551 150.798C144.357 152.128 140.656 153.954 140.656 153.954L148.38 165.184C148.38 165.184 174.797 156.928 180.312 155.18C185.812 153.419 199.825 148.724 203.54 146.885C207.256 145.033 210.825 143.833 211.907 143.259C212.99 142.685 214.686 141.146 214.979 139.62C215.271 138.094 212.755 134.807 209.537 132.355C206.319 129.903 193.345 127.164 193.345 127.164Z" fill="#A34E4E"/>
<path d="M131.982 156.016C129.935 156.407 121.816 157.542 118.788 158.116C115.76 158.689 112.44 160.189 110.348 162.211C108.257 164.233 107.116 165.198 105.243 165.928C103.371 166.659 103.327 167.572 104.015 168.628C104.702 169.698 105.887 169.867 105.887 169.867C105.887 169.867 101.367 171.576 100.943 172.71C100.519 173.845 100.914 174.563 101.981 175.097C103.049 175.619 104.322 175.397 104.322 175.397C104.322 175.397 103.854 177.328 104.366 178.528C104.878 179.728 106.092 179.962 107.013 180.093C107.935 180.223 108.929 180.106 108.929 180.106C108.929 180.106 110.48 182.219 111.109 182.532C111.738 182.832 114.473 182.988 114.473 182.988L115.804 182.858C115.804 182.858 115.98 184.149 117.238 184.514C118.496 184.88 121.246 184.853 122.475 184.749C123.703 184.645 124.288 184.019 125.034 183.067C125.766 182.127 130.198 178.802 132.509 176.167C134.82 173.545 140.393 169.606 140.393 169.606C140.393 169.606 140.73 167.872 139.296 164.454C137.863 161.037 131.982 156.016 131.982 156.016Z" fill="#A34E4E"/>
<path d="M149.771 149.05C149.785 151.345 153.53 157.841 154.613 159.158C155.71 160.475 157.772 162.067 157.772 162.067L160.595 161.714C160.595 161.714 161.122 162.875 160.712 163.449C160.317 164.023 157.787 164.388 156.236 165.314C154.686 166.24 145.748 170.049 145.748 170.049C145.748 170.049 144.798 172.057 142.677 171.927C140.556 171.81 138.098 169.592 135.407 167.362C132.715 165.132 130.462 157.593 130.375 155.793C130.302 153.993 131.326 152.858 133.929 153.21C136.533 153.563 140.76 151.489 143.276 149.884C145.807 148.28 149.347 146.572 150.546 146.259C151.746 145.946 152.711 146.689 152.711 146.689C152.711 146.689 152.17 147.172 151.248 147.941C150.341 148.711 149.756 149.05 149.756 149.05H149.771Z" fill="#5D6CAF"/>
<path d="M166.77 69.7367C166.623 69.6193 166.389 69.6324 166.258 69.7628C163.829 72.1888 159.617 74.7321 155.653 77.132C151.689 79.5319 147.959 81.7622 146.393 83.823C146.276 83.9665 146.32 84.1752 146.496 84.2795C146.657 84.3839 146.891 84.3447 147.008 84.1882C148.397 82.3492 152.098 80.0667 156.062 77.6668C160.026 75.2669 164.254 72.7366 166.799 70.1932C166.931 70.0628 166.931 69.8541 166.784 69.7367H166.77Z" fill="#6B1919"/>
<path d="M171.199 91.6348C169.707 87.6958 169.765 83.6395 171.199 79.6875V91.6348Z" fill="#A34E4E"/>
<path d="M171.315 79.375C171.124 79.3228 170.92 79.4141 170.846 79.5837C169.398 83.6009 169.34 87.7224 170.846 91.7396C170.905 91.9092 171.11 91.9874 171.3 91.9353C171.49 91.8831 171.607 91.7005 171.534 91.531C170.057 87.6572 170.13 83.6791 171.534 79.7793C171.592 79.6098 171.49 79.4272 171.3 79.375H171.315Z" fill="#6B1919"/>
<path d="M187.73 129.055C192.382 130.737 196.683 133.059 200.617 135.824L187.73 129.055Z" fill="#A34E4E"/>
<path d="M187.876 128.742C187.685 128.676 187.481 128.742 187.393 128.911C187.32 129.081 187.407 129.263 187.598 129.329C192.22 130.998 196.491 133.307 200.397 136.059C200.558 136.163 200.777 136.137 200.909 136.007C201.026 135.863 201.011 135.667 200.85 135.55C196.886 132.772 192.556 130.424 187.876 128.729V128.742Z" fill="#6B1919"/>
<path d="M140.087 85.6221C137.658 86.7698 134.923 87.0438 132.275 87.2003L140.087 85.6221Z" fill="#A34E4E"/>
<path d="M140.204 85.3092C140.116 85.2831 140.014 85.2831 139.926 85.3222C137.571 86.4309 134.894 86.7178 132.261 86.8613C132.056 86.8613 131.91 87.0178 131.91 87.2004C131.91 87.383 132.086 87.5134 132.29 87.5134C134.953 87.37 137.747 87.083 140.262 85.8961C140.438 85.8179 140.511 85.6092 140.409 85.4527C140.365 85.3744 140.292 85.3222 140.189 85.2962L140.204 85.3092Z" fill="#6B1919"/>
<path d="M104.617 175.317C107.557 175.93 109.678 173.791 112.15 173.073L104.617 175.317Z" fill="#A34E4E"/>
<path d="M112.032 172.761C110.73 173.139 109.56 173.869 108.39 174.404C107.22 174.939 106.064 175.278 104.704 175.004C104.514 174.965 104.309 175.069 104.265 175.239C104.221 175.408 104.338 175.591 104.528 175.63C106.108 175.956 107.498 175.539 108.726 174.978C109.97 174.417 111.096 173.713 112.252 173.374C112.442 173.322 112.544 173.139 112.486 172.969C112.427 172.8 112.222 172.709 112.032 172.761Z" fill="#6B1919"/>
<path d="M106.748 169.216C111.824 169.399 113.813 164.077 118.289 163.334L106.748 169.216Z" fill="#A34E4E"/>
<path d="M118.217 163.008C115.833 163.412 114.166 164.99 112.483 166.373C110.801 167.768 109.148 168.968 106.749 168.89C106.545 168.89 106.384 169.02 106.369 169.203C106.369 169.386 106.515 169.529 106.72 169.542C109.397 169.646 111.269 168.277 112.966 166.868C114.663 165.46 116.243 163.999 118.334 163.647C118.525 163.608 118.656 163.451 118.627 163.268C118.583 163.099 118.408 162.981 118.203 163.008H118.217Z" fill="#6B1919"/>
<path d="M109.178 179.82C112.293 179.676 114.678 179.063 117.077 177.315L109.178 179.82Z" fill="#A34E4E"/>
<path d="M117.121 176.989C117.019 176.989 116.931 177.002 116.858 177.054C114.517 178.763 112.25 179.35 109.164 179.494C108.959 179.494 108.812 179.65 108.812 179.833C108.812 180.015 108.988 180.146 109.193 180.146C112.352 180.002 114.854 179.376 117.311 177.576C117.472 177.459 117.501 177.263 117.37 177.12C117.311 177.054 117.223 177.015 117.121 177.002V176.989Z" fill="#6B1919"/>
<path d="M115.658 182.948C117.618 182.126 119.9 181.382 121.86 180.3L115.658 182.948Z" fill="#A34E4E"/>
<path d="M121.655 180.027C119.739 181.096 117.472 181.84 115.497 182.661C115.322 182.739 115.234 182.935 115.322 183.092C115.409 183.248 115.629 183.326 115.804 183.248C117.75 182.44 120.032 181.696 122.05 180.587C122.226 180.496 122.27 180.3 122.167 180.144C122.065 179.987 121.831 179.935 121.67 180.04L121.655 180.027Z" fill="#6B1919"/>
</svg>
