<?xml version="1.0" encoding="UTF-8"?>
<svg id="Layer_1" data-name="Layer 1" xmlns="http://www.w3.org/2000/svg" viewBox="0 0 650.84 170.27">
  <defs>
    <style>
      .cls-1 {
        fill: #fff;
        stroke-width: 0px;
      }
    </style>
  </defs>
  <path class="cls-1" d="M447.07,43.31c-3.74,0-6.95-.77-9.62-2.32-2.67-1.56-4.71-3.73-6.13-6.52-1.42-2.8-2.14-6.04-2.14-9.73s.71-6.92,2.14-9.7c1.42-2.8,3.47-4.97,6.13-6.52,2.67-1.56,5.87-2.34,9.62-2.34s6.95.78,9.62,2.34c2.67,1.55,4.71,3.72,6.14,6.52,1.42,2.78,2.13,6.02,2.13,9.7s-.71,6.93-2.13,9.73c-1.42,2.78-3.47,4.95-6.14,6.52-2.67,1.55-5.87,2.32-9.62,2.32ZM447.16,33.74c1.05,0,1.95-.37,2.72-1.1.76-.73,1.36-1.78,1.78-3.14.42-1.36.63-2.98.63-4.85s-.21-3.51-.63-4.85c-.42-1.36-1.01-2.41-1.78-3.14-.76-.73-1.67-1.1-2.72-1.1-1.11,0-2.06.37-2.85,1.1-.79.73-1.4,1.78-1.82,3.14-.42,1.34-.63,2.96-.63,4.85s.21,3.49.63,4.85c.42,1.36,1.03,2.41,1.82,3.14.79.73,1.75,1.1,2.85,1.1ZM475.48,42.65l-8.63-36h12.4l3.96,21.94h.27l4.4-21.94h12.04l4.58,21.75h.27l3.77-21.75h12.4l-8.63,36h-13.39l-4.85-19.31h-.36l-4.85,19.31h-13.39ZM537.14,22.4v20.25h-12.4V6.65h11.77v6.84h.36c.75-2.28,2.07-4.07,3.96-5.37,1.9-1.3,4.12-1.95,6.65-1.95s4.56.59,6.36,1.76c1.81,1.16,3.21,2.75,4.2,4.78,1,2.03,1.5,4.35,1.48,6.96v40.5h-12.04l-.36-37.78c.02-1.78-.42-3.18-1.3-4.2-.87-1.02-2.08-1.52-3.64-1.52-1.02,0-1.91.23-2.67.7-.75.45-1.33,1.11-1.73,1.97-.41.84-.62,1.86-.63,3.05Z"/>
  <path class="cls-1" d="M190.68,157.18v-46.54h20.09c3.45,0,6.48.68,9.07,2.04s4.61,3.28,6.04,5.75c1.44,2.47,2.16,5.36,2.16,8.66s-.74,6.22-2.23,8.66c-1.47,2.44-3.54,4.32-6.2,5.64-2.65,1.32-5.75,1.98-9.3,1.98h-12v-9.82h9.46c1.49,0,2.75-.26,3.79-.77,1.06-.53,1.87-1.28,2.43-2.25.58-.97.86-2.11.86-3.43s-.29-2.47-.86-3.41c-.56-.96-1.37-1.68-2.43-2.18-1.04-.51-2.31-.77-3.79-.77h-4.46v36.46h-12.64ZM245.41,110.64v46.54h-12.54v-46.54h12.54ZM261.53,157.73c-2.23,0-4.2-.36-5.91-1.09-1.7-.74-3.03-1.86-4-3.36-.97-1.5-1.46-3.41-1.46-5.73,0-1.91.33-3.54.98-4.89.65-1.36,1.56-2.48,2.73-3.34,1.17-.86,2.52-1.52,4.07-1.98,1.56-.46,3.24-.75,5.04-.89,1.96-.15,3.52-.33,4.71-.55,1.2-.23,2.06-.54,2.59-.93.53-.41.8-.95.8-1.61v-.09c0-.91-.35-1.61-1.05-2.09-.7-.49-1.59-.73-2.68-.73-1.2,0-2.17.26-2.93.79-.74.51-1.19,1.31-1.34,2.39h-11.54c.15-2.12.82-4.07,2.02-5.86,1.21-1.8,2.98-3.24,5.3-4.32,2.32-1.09,5.21-1.64,8.68-1.64,2.5,0,4.74.3,6.73.89,1.98.58,3.67,1.39,5.07,2.43,1.39,1.03,2.45,2.24,3.18,3.64.74,1.38,1.11,2.88,1.11,4.5v23.91h-11.73v-4.91h-.27c-.7,1.3-1.55,2.36-2.55,3.16-.98.8-2.11,1.39-3.39,1.75-1.26.36-2.64.55-4.16.55ZM265.62,149.82c.95,0,1.85-.2,2.68-.59.85-.39,1.54-.96,2.07-1.71.53-.74.8-1.64.8-2.71v-2.91c-.33.14-.69.26-1.07.39-.36.12-.76.23-1.18.34-.41.11-.85.21-1.32.3-.46.09-.93.17-1.43.25-.97.15-1.77.4-2.39.75-.61.33-1.06.75-1.36,1.25-.29.49-.43,1.03-.43,1.64,0,.97.34,1.71,1.02,2.23s1.55.77,2.61.77ZM296,170.27c-1.44,0-2.81-.11-4.11-.34-1.3-.21-2.45-.51-3.43-.89l2.73-8.91c1.03.36,1.97.6,2.82.71.86.11,1.6.04,2.21-.18.62-.23,1.07-.66,1.34-1.29l.27-.64-12.27-36.46h13.09l5.64,24.18h.36l5.73-24.18h13.18l-12.73,37.82c-.64,1.92-1.56,3.65-2.77,5.18-1.2,1.54-2.77,2.76-4.73,3.66-1.95.89-4.39,1.34-7.32,1.34ZM339.66,98.68v58.5h-12.54v-58.5h12.54ZM346.05,157.18v-34.91h12.55v34.91h-12.55ZM352.32,118.64c-1.7,0-3.15-.56-4.36-1.68-1.21-1.12-1.82-2.47-1.82-4.05s.61-2.92,1.82-4.04c1.21-1.12,2.67-1.68,4.36-1.68s3.17.56,4.36,1.68c1.21,1.12,1.82,2.47,1.82,4.04s-.61,2.92-1.82,4.05c-1.2,1.12-2.65,1.68-4.36,1.68ZM396.9,133.64h-11.55c-.06-.71-.31-1.32-.75-1.84-.44-.51-1.01-.91-1.7-1.18-.68-.29-1.44-.43-2.27-.43-1.08,0-2,.2-2.77.59-.77.39-1.15.95-1.14,1.68-.01.51.21.99.66,1.43.47.44,1.37.78,2.71,1.02l7.09,1.27c3.57.65,6.23,1.75,7.98,3.3,1.76,1.53,2.64,3.58,2.66,6.16-.02,2.49-.76,4.64-2.23,6.48-1.46,1.82-3.45,3.23-5.98,4.23-2.52.99-5.39,1.48-8.61,1.48-5.33,0-9.51-1.09-12.52-3.27-3-2.18-4.67-5.06-5.02-8.64h12.46c.17,1.11.71,1.96,1.64,2.57.94.59,2.12.89,3.55.89,1.15,0,2.1-.2,2.84-.59.76-.39,1.14-.96,1.16-1.68-.02-.67-.35-1.2-1-1.59-.64-.39-1.64-.71-3-.95l-6.18-1.09c-3.56-.62-6.23-1.8-8-3.55-1.77-1.74-2.65-3.99-2.64-6.73-.02-2.42.62-4.48,1.91-6.16,1.3-1.7,3.16-2.99,5.57-3.86,2.42-.89,5.29-1.34,8.61-1.34,5.05,0,9.02,1.05,11.93,3.14,2.93,2.09,4.46,4.99,4.61,8.68ZM423.43,122.27v9.09h-23v-9.09h23ZM404.89,113.91h12.55v32.05c0,.49.08.89.25,1.23.17.32.42.56.77.73.35.15.79.23,1.34.23.38,0,.82-.04,1.32-.14.51-.09.89-.17,1.14-.23l1.82,8.82c-.56.17-1.36.37-2.41.61-1.03.24-2.26.4-3.68.48-2.88.15-5.3-.14-7.25-.89-1.95-.76-3.42-1.95-4.41-3.57-.98-1.62-1.46-3.65-1.43-6.09v-33.23ZM460.08,133.64h-11.55c-.06-.71-.31-1.32-.75-1.84s-1.01-.91-1.7-1.18c-.68-.29-1.44-.43-2.27-.43-1.08,0-2,.2-2.77.59s-1.15.95-1.14,1.68c-.02.51.2.99.66,1.43.47.44,1.37.78,2.7,1.02l7.09,1.27c3.58.65,6.24,1.75,7.98,3.3,1.76,1.53,2.64,3.58,2.66,6.16-.02,2.49-.76,4.64-2.23,6.48-1.45,1.82-3.45,3.23-5.98,4.23-2.52.99-5.39,1.48-8.61,1.48-5.33,0-9.51-1.09-12.52-3.27-3-2.18-4.67-5.06-5.02-8.64h12.45c.17,1.11.71,1.96,1.64,2.57.94.59,2.12.89,3.54.89,1.15,0,2.1-.2,2.84-.59.76-.39,1.14-.96,1.16-1.68-.01-.67-.35-1.2-1-1.59-.64-.39-1.64-.71-3-.95l-6.18-1.09c-3.56-.62-6.23-1.8-8-3.55-1.77-1.74-2.65-3.99-2.64-6.73-.01-2.42.62-4.48,1.91-6.16,1.3-1.7,3.16-2.99,5.57-3.86,2.43-.89,5.3-1.34,8.61-1.34,5.05,0,9.02,1.05,11.93,3.14,2.92,2.09,4.46,4.99,4.61,8.68Z"/>
  <path class="cls-1" d="M43.64,18.09h-12.82c-.09-1.06-.33-2.02-.73-2.89-.38-.86-.91-1.61-1.59-2.23-.67-.64-1.48-1.12-2.43-1.45-.95-.35-2.04-.52-3.25-.52-2.12,0-3.92.52-5.39,1.55-1.45,1.03-2.56,2.51-3.32,4.43-.74,1.92-1.11,4.23-1.11,6.93,0,2.85.38,5.23,1.14,7.16.77,1.91,1.89,3.35,3.34,4.32,1.45.95,3.2,1.43,5.25,1.43,1.17,0,2.21-.14,3.14-.43.92-.3,1.73-.73,2.41-1.3.68-.56,1.23-1.23,1.66-2.02.44-.8.73-1.7.89-2.7l12.82.09c-.15,1.97-.7,3.98-1.66,6.02-.95,2.03-2.31,3.91-4.07,5.64-1.74,1.71-3.9,3.09-6.48,4.14-2.58,1.05-5.57,1.57-8.98,1.57-4.27,0-8.11-.92-11.5-2.75-3.38-1.83-6.05-4.53-8.02-8.09-1.95-3.56-2.93-7.92-2.93-13.07s1-9.55,3-13.09c2-3.56,4.7-6.25,8.09-8.07,3.39-1.83,7.18-2.75,11.36-2.75,2.94,0,5.64.4,8.11,1.2,2.47.8,4.64,1.98,6.5,3.52,1.86,1.53,3.36,3.42,4.5,5.66,1.14,2.24,1.83,4.81,2.07,7.7ZM52.75,47.18V12.27h12.18v6.64h.36c.64-2.45,1.64-4.25,3.02-5.39,1.39-1.14,3.02-1.7,4.89-1.7.55,0,1.08.05,1.61.14.55.08,1.07.19,1.57.34v10.7c-.62-.21-1.39-.37-2.3-.48-.91-.11-1.69-.16-2.34-.16-1.23,0-2.33.28-3.32.84-.97.55-1.73,1.32-2.3,2.32-.56.98-.84,2.14-.84,3.48v18.18h-12.55ZM98.43,47.82c-3.73,0-6.94-.71-9.64-2.14-2.68-1.44-4.75-3.5-6.2-6.18-1.44-2.7-2.16-5.92-2.16-9.68s.73-6.76,2.18-9.45c1.45-2.7,3.51-4.8,6.16-6.3,2.65-1.5,5.78-2.25,9.39-2.25,2.64,0,5.02.41,7.16,1.23,2.14.82,3.96,2.01,5.48,3.57,1.51,1.55,2.68,3.42,3.5,5.64s1.23,4.7,1.23,7.48v2.91h-31.18v-6.91h19.64c-.01-1-.27-1.88-.77-2.64-.49-.77-1.14-1.37-1.98-1.8-.82-.44-1.75-.66-2.79-.66s-1.95.22-2.8.66c-.85.42-1.53,1.02-2.05,1.77-.5.76-.77,1.64-.8,2.66v7.45c0,1.12.23,2.12.7,3,.47.88,1.14,1.57,2.02,2.07s1.94.75,3.18.75c.86,0,1.65-.12,2.36-.36.73-.24,1.35-.59,1.86-1.05.51-.47.89-1.03,1.14-1.68h11.45c-.39,2.42-1.33,4.53-2.8,6.32-1.47,1.77-3.42,3.15-5.84,4.14-2.41.97-5.23,1.45-8.45,1.45ZM133.57,47.73c-2.23,0-4.2-.36-5.91-1.09-1.7-.74-3.03-1.86-4-3.36-.97-1.5-1.46-3.41-1.46-5.73,0-1.91.33-3.54.98-4.89.65-1.36,1.56-2.48,2.73-3.34,1.17-.86,2.52-1.52,4.07-1.98,1.56-.45,3.24-.75,5.05-.89,1.95-.15,3.52-.33,4.7-.55,1.2-.23,2.06-.54,2.59-.93.53-.41.8-.95.8-1.61v-.09c0-.91-.35-1.61-1.05-2.09-.7-.48-1.59-.73-2.68-.73-1.2,0-2.17.27-2.93.8-.74.52-1.19,1.31-1.34,2.39h-11.55c.15-2.12.83-4.08,2.02-5.86,1.21-1.8,2.98-3.24,5.29-4.32,2.32-1.09,5.21-1.64,8.68-1.64,2.5,0,4.74.3,6.73.89,1.99.58,3.68,1.39,5.07,2.43,1.39,1.03,2.45,2.24,3.18,3.64.74,1.38,1.11,2.88,1.11,4.5v23.91h-11.73v-4.91h-.27c-.7,1.3-1.55,2.36-2.55,3.16-.98.8-2.11,1.39-3.39,1.75-1.26.36-2.64.55-4.16.55ZM137.66,39.82c.95,0,1.85-.2,2.68-.59.85-.39,1.54-.96,2.07-1.7s.79-1.64.79-2.7v-2.91c-.33.14-.69.27-1.07.39-.36.12-.76.23-1.18.34-.41.11-.85.2-1.32.3-.45.09-.93.17-1.43.25-.97.15-1.76.4-2.39.75-.61.33-1.06.75-1.36,1.25-.29.48-.43,1.03-.43,1.64,0,.97.34,1.71,1.02,2.23.68.52,1.55.77,2.61.77ZM185.67,12.27v9.09h-23v-9.09h23ZM167.12,3.91h12.55v32.05c0,.48.08.89.25,1.23.17.32.42.56.77.73.35.15.8.23,1.34.23.38,0,.82-.05,1.32-.14.51-.09.89-.17,1.14-.23l1.82,8.82c-.56.17-1.36.37-2.41.61-1.03.24-2.26.4-3.68.48-2.88.15-5.29-.14-7.25-.89-1.96-.76-3.42-1.95-4.41-3.57-.98-1.62-1.46-3.65-1.43-6.09V3.91ZM210.34,47.82c-3.73,0-6.94-.71-9.64-2.14-2.68-1.44-4.75-3.5-6.21-6.18-1.44-2.7-2.16-5.92-2.16-9.68s.73-6.76,2.18-9.45c1.45-2.7,3.51-4.8,6.16-6.3s5.78-2.25,9.39-2.25c2.64,0,5.02.41,7.16,1.23,2.14.82,3.96,2.01,5.48,3.57,1.51,1.55,2.68,3.42,3.5,5.64.82,2.21,1.23,4.7,1.23,7.48v2.91h-31.18v-6.91h19.64c-.02-1-.27-1.88-.77-2.64-.49-.77-1.14-1.37-1.98-1.8-.82-.44-1.75-.66-2.8-.66s-1.95.22-2.79.66c-.85.42-1.53,1.02-2.05,1.77-.5.76-.76,1.64-.79,2.66v7.45c0,1.12.24,2.12.7,3,.47.88,1.14,1.57,2.02,2.07s1.94.75,3.18.75c.86,0,1.65-.12,2.36-.36.73-.24,1.35-.59,1.86-1.05.51-.47.89-1.03,1.14-1.68h11.46c-.39,2.42-1.33,4.53-2.79,6.32-1.47,1.77-3.42,3.15-5.84,4.14-2.41.97-5.23,1.45-8.46,1.45ZM259.34,60.27c-1.44,0-2.81-.11-4.11-.34-1.3-.21-2.45-.51-3.43-.89l2.73-8.91c1.03.36,1.97.6,2.82.7.86.11,1.6.05,2.2-.18.62-.23,1.07-.66,1.34-1.3l.27-.64-12.27-36.45h13.09l5.64,24.18h.36l5.73-24.18h13.18l-12.73,37.82c-.64,1.92-1.56,3.65-2.77,5.18-1.2,1.55-2.77,2.77-4.73,3.66-1.95.89-4.39,1.34-7.32,1.34ZM309.41,47.82c-3.79,0-7.03-.75-9.73-2.25-2.7-1.52-4.76-3.62-6.2-6.32-1.44-2.71-2.16-5.86-2.16-9.43s.72-6.71,2.16-9.41c1.44-2.71,3.51-4.82,6.2-6.32,2.7-1.52,5.94-2.27,9.73-2.27s7.03.76,9.73,2.27c2.7,1.5,4.77,3.61,6.21,6.32,1.44,2.7,2.16,5.83,2.16,9.41s-.72,6.72-2.16,9.43c-1.44,2.7-3.51,4.8-6.21,6.32-2.7,1.5-5.94,2.25-9.73,2.25ZM309.5,38.55c1.06,0,1.98-.36,2.75-1.07.77-.71,1.37-1.73,1.79-3.05.43-1.32.64-2.89.64-4.7s-.21-3.4-.64-4.7c-.42-1.32-1.02-2.33-1.79-3.05-.77-.71-1.69-1.07-2.75-1.07-1.12,0-2.08.36-2.89,1.07-.8.71-1.42,1.73-1.84,3.05-.42,1.3-.64,2.87-.64,4.7s.21,3.39.64,4.7c.42,1.32,1.04,2.33,1.84,3.05.8.71,1.77,1.07,2.89,1.07ZM358.42,31.91V12.27h12.55v34.91h-11.91v-6.64h-.36c-.76,2.23-2.08,3.97-3.98,5.23-1.89,1.24-4.14,1.86-6.75,1.86-2.44,0-4.58-.56-6.41-1.68-1.82-1.12-3.24-2.67-4.25-4.64-1-1.97-1.51-4.23-1.52-6.77V12.27h12.55v19.64c.01,1.73.45,3.08,1.32,4.07.88.98,2.11,1.48,3.68,1.48,1.05,0,1.95-.22,2.7-.66.77-.45,1.36-1.09,1.77-1.91.42-.83.63-1.83.61-2.98ZM380.55,47.18V12.27h12.18v6.64h.36c.64-2.45,1.64-4.25,3.02-5.39,1.39-1.14,3.02-1.7,4.89-1.7.54,0,1.08.05,1.61.14.55.08,1.07.19,1.57.34v10.7c-.62-.21-1.39-.37-2.3-.48-.91-.11-1.69-.16-2.34-.16-1.23,0-2.33.28-3.32.84-.97.55-1.73,1.32-2.29,2.32-.56.98-.84,2.14-.84,3.48v18.18h-12.55Z"/>
  <path class="cls-1" d="M84.55,66.27l-11.73,34.91h-14.55l-11.73-34.91h13.18l5.64,23.09h.36l5.64-23.09h13.18ZM91.31,101.18v-34.91h12.55v34.91h-12.55ZM97.59,62.64c-1.7,0-3.15-.56-4.36-1.68-1.21-1.12-1.82-2.47-1.82-4.05s.61-2.92,1.82-4.05c1.21-1.12,2.67-1.68,4.36-1.68s3.17.56,4.36,1.68c1.21,1.12,1.82,2.47,1.82,4.05s-.61,2.92-1.82,4.05c-1.2,1.12-2.65,1.68-4.36,1.68ZM113.27,101.18v-46.55h12.54v17.73h.18c.45-1.18,1.12-2.27,2-3.25.88-1,1.97-1.8,3.27-2.39,1.3-.61,2.82-.91,4.54-.91,2.3,0,4.49.61,6.57,1.84,2.09,1.23,3.79,3.16,5.09,5.8,1.32,2.64,1.98,6.06,1.98,10.27s-.63,7.37-1.89,10.02c-1.24,2.65-2.91,4.63-5,5.93-2.08,1.3-4.36,1.96-6.84,1.96-1.64,0-3.1-.27-4.39-.8-1.27-.54-2.36-1.28-3.27-2.2-.89-.94-1.58-2-2.07-3.18h-.27v5.73h-12.45ZM125.54,83.73c0,1.7.22,3.17.66,4.41.46,1.23,1.09,2.18,1.91,2.86.83.67,1.83,1,2.98,1s2.13-.33,2.93-.98c.82-.67,1.44-1.61,1.86-2.84.44-1.24.66-2.73.66-4.46s-.22-3.2-.66-4.43c-.42-1.24-1.04-2.19-1.86-2.84-.8-.67-1.78-1-2.93-1s-2.14.33-2.98,1c-.82.65-1.45,1.6-1.91,2.84-.44,1.23-.66,2.7-.66,4.43ZM174.63,101.82c-3.73,0-6.94-.71-9.64-2.14-2.68-1.44-4.75-3.5-6.2-6.18-1.44-2.7-2.16-5.92-2.16-9.68s.73-6.76,2.18-9.45c1.45-2.7,3.51-4.8,6.16-6.3,2.65-1.5,5.78-2.25,9.39-2.25,2.64,0,5.02.41,7.16,1.23,2.14.82,3.96,2.01,5.48,3.57,1.51,1.55,2.68,3.42,3.5,5.64.82,2.21,1.23,4.7,1.23,7.48v2.91h-31.18v-6.91h19.64c-.01-1-.27-1.88-.77-2.64-.49-.77-1.14-1.37-1.98-1.8-.82-.44-1.75-.66-2.79-.66s-1.95.22-2.8.66c-.85.42-1.53,1.02-2.04,1.77-.5.76-.76,1.64-.8,2.66v7.46c0,1.12.24,2.12.71,3,.47.88,1.14,1.57,2.02,2.07.88.5,1.94.75,3.18.75.86,0,1.65-.12,2.36-.36.73-.24,1.35-.59,1.86-1.05.51-.47.89-1.03,1.14-1.68h11.45c-.39,2.43-1.32,4.53-2.79,6.32-1.47,1.77-3.42,3.15-5.84,4.14-2.41.97-5.23,1.45-8.45,1.45ZM222.17,101.18l-8.73-34.91h12.55l4,21.27h.27l4.45-21.27h12.18l4.64,21.09h.27l3.82-21.09h12.55l-8.73,34.91h-13.54l-4.91-18.73h-.36l-4.91,18.73h-13.54ZM275.19,101.18v-34.91h12.55v34.91h-12.55ZM281.46,62.64c-1.7,0-3.15-.56-4.36-1.68-1.21-1.12-1.82-2.47-1.82-4.05s.61-2.92,1.82-4.05c1.21-1.12,2.67-1.68,4.36-1.68s3.17.56,4.36,1.68c1.21,1.12,1.82,2.47,1.82,4.05s-.61,2.92-1.82,4.05c-1.2,1.12-2.65,1.68-4.36,1.68ZM318.14,66.27v9.09h-23v-9.09h23ZM299.6,57.91h12.55v32.05c0,.49.08.89.25,1.23.17.32.42.56.77.73.35.15.8.23,1.34.23.38,0,.82-.05,1.32-.14.51-.09.89-.17,1.14-.23l1.82,8.82c-.56.17-1.36.37-2.41.61-1.03.24-2.26.4-3.68.48-2.88.15-5.3-.14-7.25-.89-1.95-.76-3.42-1.95-4.41-3.57-.98-1.62-1.46-3.65-1.43-6.09v-33.23ZM339.76,81.55v19.64h-12.54v-46.55h12.09v18.27h.36c.79-2.23,2.1-3.96,3.93-5.2,1.83-1.26,4.04-1.89,6.61-1.89s4.61.56,6.43,1.68c1.83,1.12,3.25,2.67,4.25,4.64,1.02,1.97,1.52,4.23,1.5,6.77v22.27h-12.55v-19.64c.02-1.73-.42-3.08-1.3-4.07-.86-.98-2.1-1.48-3.7-1.48-1.01,0-1.91.23-2.68.68-.76.44-1.35,1.08-1.77,1.91-.41.82-.62,1.8-.64,2.95ZM404.56,101.82c-3.79,0-7.03-.75-9.73-2.25-2.7-1.51-4.77-3.62-6.21-6.32-1.44-2.71-2.16-5.86-2.16-9.43s.72-6.71,2.16-9.41c1.44-2.71,3.51-4.82,6.21-6.32,2.7-1.52,5.94-2.27,9.73-2.27,3.42,0,6.39.62,8.89,1.86,2.52,1.23,4.46,2.97,5.84,5.23,1.38,2.24,2.08,4.88,2.09,7.91h-11.64c-.17-1.83-.7-3.23-1.59-4.18-.88-.97-2.02-1.45-3.41-1.45-1.09,0-2.05.32-2.86.95-.82.62-1.45,1.57-1.91,2.84-.45,1.26-.68,2.84-.68,4.75s.23,3.5.68,4.77c.46,1.26,1.09,2.21,1.91,2.84.82.62,1.77.93,2.86.93.92,0,1.74-.21,2.45-.64.71-.44,1.29-1.08,1.73-1.91.45-.85.73-1.88.82-3.09h11.64c-.04,3.07-.75,5.76-2.11,8.04-1.36,2.27-3.3,4.03-5.8,5.27-2.48,1.24-5.45,1.86-8.91,1.86ZM452.39,85.91v-19.64h12.55v34.91h-11.91v-6.64h-.36c-.76,2.23-2.08,3.97-3.98,5.23-1.89,1.24-4.14,1.86-6.75,1.86-2.44,0-4.58-.56-6.41-1.68-1.82-1.12-3.24-2.67-4.25-4.64-1-1.97-1.51-4.23-1.52-6.77v-22.27h12.55v19.64c.02,1.73.45,3.08,1.32,4.07.88.99,2.11,1.48,3.68,1.48,1.05,0,1.95-.22,2.7-.66.77-.46,1.36-1.09,1.77-1.91.42-.83.63-1.83.61-2.98ZM474.51,101.18v-34.91h12.18v6.64h.36c.64-2.45,1.64-4.25,3.02-5.39,1.39-1.14,3.02-1.7,4.89-1.7.55,0,1.08.05,1.61.14.55.08,1.07.19,1.57.34v10.7c-.62-.21-1.39-.37-2.29-.48-.91-.11-1.69-.16-2.34-.16-1.23,0-2.33.28-3.32.84-.97.55-1.74,1.32-2.3,2.32-.56.98-.84,2.14-.84,3.48v18.18h-12.55ZM513.57,101.73c-2.23,0-4.2-.36-5.91-1.09-1.7-.74-3.03-1.86-4-3.36s-1.46-3.41-1.46-5.73c0-1.91.33-3.54.98-4.89.65-1.36,1.56-2.48,2.73-3.34,1.17-.86,2.52-1.52,4.07-1.98,1.56-.45,3.24-.75,5.05-.89,1.95-.15,3.52-.33,4.7-.55,1.2-.23,2.06-.54,2.59-.93.53-.41.8-.95.8-1.61v-.09c0-.91-.35-1.61-1.05-2.09-.7-.48-1.59-.73-2.68-.73-1.2,0-2.17.27-2.93.8-.74.52-1.19,1.31-1.34,2.39h-11.55c.15-2.12.83-4.08,2.02-5.86,1.21-1.8,2.98-3.24,5.3-4.32,2.32-1.09,5.21-1.64,8.68-1.64,2.5,0,4.74.3,6.73.89,1.98.58,3.67,1.39,5.07,2.43,1.39,1.03,2.45,2.24,3.18,3.64.74,1.38,1.11,2.88,1.11,4.5v23.91h-11.73v-4.91h-.27c-.7,1.3-1.54,2.36-2.54,3.16-.98.8-2.11,1.39-3.39,1.75-1.26.36-2.64.54-4.16.54ZM517.66,93.82c.96,0,1.85-.2,2.68-.59.85-.39,1.54-.96,2.07-1.7.53-.74.8-1.64.8-2.71v-2.91c-.33.14-.69.26-1.07.39-.36.12-.76.23-1.18.34-.41.11-.85.2-1.32.29-.45.09-.93.17-1.43.25-.97.15-1.77.4-2.39.75-.61.33-1.06.75-1.36,1.25-.29.49-.43,1.03-.43,1.64,0,.97.34,1.71,1.02,2.23.68.51,1.55.77,2.61.77ZM565.67,66.27v9.09h-23v-9.09h23ZM547.12,57.91h12.54v32.05c0,.49.08.89.25,1.23.17.32.42.56.77.73.35.15.8.23,1.34.23.38,0,.82-.05,1.32-.14.52-.09.89-.17,1.14-.23l1.82,8.82c-.56.17-1.36.37-2.41.61-1.03.24-2.26.4-3.68.48-2.88.15-5.3-.14-7.25-.89-1.96-.76-3.42-1.95-4.41-3.57-.99-1.62-1.46-3.65-1.43-6.09v-33.23ZM590.34,101.82c-3.73,0-6.94-.71-9.64-2.14-2.68-1.44-4.75-3.5-6.21-6.18-1.44-2.7-2.16-5.92-2.16-9.68s.73-6.76,2.18-9.45c1.45-2.7,3.51-4.8,6.16-6.3s5.78-2.25,9.39-2.25c2.64,0,5.02.41,7.16,1.23,2.14.82,3.96,2.01,5.48,3.57,1.52,1.55,2.68,3.42,3.5,5.64s1.23,4.7,1.23,7.48v2.91h-31.18v-6.91h19.64c-.02-1-.27-1.88-.77-2.64-.48-.77-1.14-1.37-1.98-1.8-.82-.44-1.75-.66-2.8-.66s-1.95.22-2.79.66c-.85.42-1.53,1.02-2.05,1.77-.5.76-.77,1.64-.79,2.66v7.46c0,1.12.23,2.12.7,3,.47.88,1.14,1.57,2.02,2.07s1.94.75,3.18.75c.86,0,1.65-.12,2.36-.36.73-.24,1.35-.59,1.86-1.05.52-.47.89-1.03,1.14-1.68h11.46c-.39,2.43-1.33,4.53-2.79,6.32-1.47,1.77-3.42,3.15-5.84,4.14-2.41.97-5.23,1.45-8.46,1.45ZM628.39,101.64c-2.48,0-4.77-.65-6.86-1.96-2.08-1.3-3.74-3.28-5-5.93-1.24-2.65-1.86-5.99-1.86-10.02s.65-7.64,1.95-10.27c1.32-2.64,3.02-4.57,5.09-5.8,2.09-1.23,4.29-1.84,6.59-1.84,1.73,0,3.24.3,4.54.91,1.3.59,2.39,1.39,3.27,2.39.88.98,1.55,2.07,2,3.25h.18v-17.73h12.54v46.55h-12.45v-5.73h-.27c-.48,1.18-1.18,2.24-2.09,3.18-.89.92-1.98,1.66-3.27,2.2-1.27.53-2.73.8-4.36.8ZM633.02,92c1.15,0,2.14-.33,2.96-1,.83-.68,1.47-1.64,1.91-2.86.45-1.24.68-2.71.68-4.41s-.23-3.2-.68-4.43c-.44-1.24-1.08-2.19-1.91-2.84-.82-.67-1.8-1-2.96-1s-2.14.33-2.95,1c-.8.65-1.42,1.6-1.86,2.84-.42,1.23-.64,2.7-.64,4.43s.21,3.21.64,4.46c.44,1.23,1.06,2.17,1.86,2.84.82.65,1.8.98,2.95.98Z"/>
</svg>