<svg width="38" height="41" viewBox="0 0 38 41" fill="none" xmlns="http://www.w3.org/2000/svg">
<path fill-rule="evenodd" clip-rule="evenodd" d="M19.1491 4.25112C10.865 4.17494 4.08285 11.388 4.00032 20.3625C3.91778 29.337 10.5661 36.6736 18.8502 36.7498C27.1344 36.8259 33.9165 29.6129 33.999 20.6384C34.0816 11.6639 27.4333 4.32731 19.1491 4.25112ZM18.242 26.23C18.0289 26.4562 17.7418 26.5818 17.4437 26.5791C17.1456 26.5763 16.8609 26.4455 16.652 26.2153L12.197 21.2992C11.9885 21.0687 11.873 20.7579 11.876 20.4349C11.8789 20.112 12.0001 19.8033 12.2129 19.5767L16.7575 14.7433C16.8616 14.6245 16.9867 14.5296 17.1253 14.4643C17.2639 14.399 17.4132 14.3645 17.5643 14.363C17.7154 14.3615 17.8651 14.393 18.0046 14.4556C18.1441 14.5182 18.2705 14.6106 18.3763 14.7273C18.4821 14.844 18.565 14.9826 18.6202 15.1349C18.6754 15.2871 18.7017 15.4499 18.6975 15.6136C18.6933 15.7772 18.6588 15.9382 18.5959 16.0872C18.5331 16.2361 18.4432 16.3698 18.3316 16.4804L15.726 19.2515L25.0106 19.3369C25.309 19.3397 25.5939 19.4707 25.8028 19.7012C26.0117 19.9317 26.1274 20.2427 26.1244 20.566C26.1214 20.8892 26 21.1981 25.787 21.4247C25.5739 21.6513 25.2866 21.7771 24.9882 21.7743L15.7036 21.6889L18.2578 24.5075C18.4664 24.738 18.5818 25.0488 18.5789 25.3718C18.5759 25.6947 18.4547 26.0034 18.242 26.23Z" fill="#D4C6D6" fill-opacity="0.75"/>
</svg>
