<svg width="18" height="23" viewBox="0 0 18 23" fill="none" xmlns="http://www.w3.org/2000/svg">
<path d="M9.00065 17.4163C9.57529 17.4163 10.1264 17.1881 10.5327 16.7817C10.939 16.3754 11.1673 15.8243 11.1673 15.2497C11.1673 14.675 10.939 14.1239 10.5327 13.7176C10.1264 13.3113 9.57529 13.083 9.00065 13.083C8.42601 13.083 7.87492 13.3113 7.46859 13.7176C7.06226 14.1239 6.83398 14.675 6.83398 15.2497C6.83398 15.8243 7.06226 16.3754 7.46859 16.7817C7.87492 17.1881 8.42601 17.4163 9.00065 17.4163ZM15.5007 7.66634C16.0753 7.66634 16.6264 7.89462 17.0327 8.30094C17.439 8.70727 17.6673 9.25837 17.6673 9.83301V20.6663C17.6673 21.241 17.439 21.7921 17.0327 22.1984C16.6264 22.6047 16.0753 22.833 15.5007 22.833H2.50065C1.92602 22.833 1.37492 22.6047 0.968586 22.1984C0.562257 21.7921 0.333984 21.241 0.333984 20.6663V9.83301C0.333984 9.25837 0.562257 8.70727 0.968586 8.30094C1.37492 7.89462 1.92602 7.66634 2.50065 7.66634H3.58398V5.49967C3.58398 4.06309 4.15467 2.68533 5.17049 1.66951C6.18631 0.653691 7.56406 0.0830078 9.00065 0.0830078C9.71198 0.0830078 10.4163 0.223114 11.0735 0.495327C11.7307 0.76754 12.3278 1.16653 12.8308 1.66951C13.3338 2.1725 13.7328 2.76963 14.005 3.42681C14.2772 4.08399 14.4173 4.78835 14.4173 5.49967V7.66634H15.5007ZM9.00065 2.24967C8.1387 2.24967 7.31205 2.59208 6.70255 3.20158C6.09306 3.81107 5.75065 4.63772 5.75065 5.49967V7.66634H12.2507V5.49967C12.2507 4.63772 11.9082 3.81107 11.2987 3.20158C10.6893 2.59208 9.8626 2.24967 9.00065 2.24967Z" fill="#B8B0B9"/>
</svg>
