<svg width="332" height="64" viewBox="0 0 332 64" fill="none" xmlns="http://www.w3.org/2000/svg">
<path d="M291.508 52.2652L288.985 49.582L289.66 48.0294L303.625 50.3L310.08 35.4552L305.003 34.6295L306.828 30.4311L316.492 32.0025L321.532 37.3172L315.318 51.6075L306.613 54.7213L291.508 52.2652ZM293.112 46.2158L288.072 40.901L291.737 32.4726L300.428 29.3906L305.015 30.1363L299.407 43.0324L304.484 43.8581L303.679 45.7117L299.356 47.231L293.112 46.2158Z" fill="white"/>
<path d="M275.476 47.9657L271.633 35.1133L266.622 35.6737L266.063 33.8031L269.247 30.9638L275.734 30.2383L283.189 33.3875L287.159 46.6592L275.476 47.9657ZM256.805 50.0538L251.684 32.9281L263.445 31.6127L268.568 48.7384L256.805 50.0538Z" fill="white"/>
<path d="M240.54 28.1707L241.818 23.6143L253.523 24.842L252.245 29.3984L240.54 28.1707ZM235.129 47.4628L239.942 30.3035L251.647 31.5312L246.834 48.6905L235.129 47.4628Z" fill="white"/>
<path d="M76.332 46.7871L72.5309 33.93L55.9372 35.7644L55.3077 33.635L58.182 31.1015L75.6728 29.168L83.9276 32.6701L87.7291 45.5273L76.332 46.7871ZM62.0862 48.362L56.5557 46.058L55.2871 41.7669L59.1388 38.3924L71.538 37.0217L72.4155 39.99L66.4006 40.6549L67.2877 43.6555L73.3026 42.9906L73.8606 44.878L71.0031 47.3762L62.0862 48.362Z" fill="white"/>
<g filter="url(#filter0_i_626_174)">
<path d="M149.825 46.5752L155.606 33.9968L150.96 33.1986L151.866 31.2258L156.469 29.6326L165.296 31.1493L167.931 34.0202L161.259 48.5398L149.825 46.5752ZM131.939 43.5019L139.642 26.7412L151.075 28.7058L143.373 45.4665L131.939 43.5019ZM167.711 49.6485L173.491 37.07L168.845 36.2718L169.738 34.3306L174.278 32.6926L181.246 33.89L185.24 38.2884L179.119 51.6086L167.711 49.6485Z" fill="white"/>
</g>
<g filter="url(#filter1_i_626_174)">
<path d="M205.833 49.5336L201.936 36.6871L197.191 37.2253L196.58 35.2105L199.559 32.5383L208.574 31.5157L213.011 33.38L217.51 48.209L205.833 49.5336ZM187.566 51.6056L182.373 34.4877L194.051 33.1632L199.243 50.281L187.566 51.6056ZM224.1 47.4615L220.203 34.6151L215.458 35.1533L214.857 33.1707L217.747 30.4753L224.864 29.668L231.624 32.536L235.75 46.1399L224.1 47.4615Z" fill="white"/>
</g>
<path d="M51.0509 45.6756C50.2746 47.2103 48.907 48.3331 46.9481 49.0436C45.0227 49.7434 42.8113 50.1488 40.3137 50.2599C37.8162 50.371 35.3122 50.3007 32.8017 50.049C30.2912 49.7973 28.0755 49.4898 26.1546 49.1265C23.8752 48.6954 21.6413 48.1185 19.4533 47.3958C17.2572 46.6888 15.3483 45.8301 13.7266 44.8199C12.105 43.8097 10.9734 42.6348 10.332 41.2951C9.71627 39.9603 9.83217 38.455 10.6798 36.7793C11.456 35.2444 12.8474 34.0748 14.8538 33.2702C16.8682 32.45 19.1943 32.2893 21.8324 32.7883C24.4704 33.2871 26.2195 34.1842 27.0798 35.4795C27.948 36.759 27.9939 38.1662 27.2176 39.701C26.9007 40.3275 26.5315 41.0298 26.1099 41.8081C25.6881 42.5863 25.5741 43.3112 25.7677 43.9826C25.9868 44.659 26.8647 45.1425 28.4014 45.4331C29.4515 45.6317 30.3759 45.6349 31.1746 45.4428C32.0069 45.2399 32.5933 44.8016 32.934 44.1282C33.2112 43.5801 33.2805 43.0269 33.1418 42.4687C33.0367 41.8998 32.8942 41.3494 32.7141 40.8177C32.2837 39.4494 32.0217 38.1643 31.9279 36.9626C31.8677 35.75 32.1822 34.4625 32.8713 33.0999L37.8736 23.2097C38.1825 22.5989 38.1521 22.1041 37.7825 21.7253C37.4128 21.3465 36.8794 21.014 36.1823 20.7277C35.4853 20.4414 34.7962 20.1395 34.1149 19.822C33.4672 19.4936 32.9863 19.0851 32.6721 18.5967C32.3658 18.0927 32.4146 17.4412 32.8186 16.6425C33.278 15.7341 34.0422 15.1665 35.111 14.9397C36.1877 14.6971 37.4176 14.7067 38.8007 14.9682L62.0434 19.3639C63.4008 19.6207 64.4119 20.0349 65.0768 20.6069C65.7417 21.1787 65.8484 21.911 65.3969 22.8037C64.9691 23.6495 64.3489 24.2099 63.5362 24.4853C62.7491 24.7654 61.8863 24.9454 60.9479 25.0253C60.0431 25.0945 59.2001 25.2353 58.4191 25.4479C57.6716 25.6498 57.1236 26.0952 56.7751 26.7844L52.3551 35.5235C51.9907 36.2439 51.6983 36.9608 51.4778 37.6741C51.2829 38.3923 51.2162 39.1346 51.2774 39.9013C51.354 40.8595 51.4522 41.8305 51.5721 42.8141C51.6999 43.782 51.5261 44.7359 51.0509 45.6756Z" fill="white"/>
<g filter="url(#filter2_i_626_174)">
<path d="M109.097 44.4536L103.995 31.766L99.3092 32.4705L98.5088 30.4806L101.232 27.7078L110.135 26.3692L114.741 28.0739L120.629 42.7197L109.097 44.4536ZM91.0556 47.1661L84.2578 30.2599L95.7902 28.5259L102.589 45.4322L91.0556 47.1661ZM127.138 41.7411L122.036 29.0534L117.35 29.758L116.563 27.7999L119.195 25.007L126.224 23.9502L133.243 26.5751L138.645 40.011L127.138 41.7411Z" fill="white"/>
</g>
<defs>
<filter id="filter0_i_626_174" x="131.939" y="26.7412" width="58.3008" height="29.8672" filterUnits="userSpaceOnUse" color-interpolation-filters="sRGB">
<feFlood flood-opacity="0" result="BackgroundImageFix"/>
<feBlend mode="normal" in="SourceGraphic" in2="BackgroundImageFix" result="shape"/>
<feColorMatrix in="SourceAlpha" type="matrix" values="0 0 0 0 0 0 0 0 0 0 0 0 0 0 0 0 0 0 127 0" result="hardAlpha"/>
<feOffset dx="5" dy="5"/>
<feGaussianBlur stdDeviation="2.5"/>
<feComposite in2="hardAlpha" operator="arithmetic" k2="-1" k3="1"/>
<feColorMatrix type="matrix" values="0 0 0 0 0.604167 0 0 0 0 0.309635 0 0 0 0 0.309635 0 0 0 0.5 0"/>
<feBlend mode="normal" in2="shape" result="effect1_innerShadow_626_174"/>
</filter>
<filter id="filter1_i_626_174" x="182.373" y="29.668" width="58.377" height="26.9375" filterUnits="userSpaceOnUse" color-interpolation-filters="sRGB">
<feFlood flood-opacity="0" result="BackgroundImageFix"/>
<feBlend mode="normal" in="SourceGraphic" in2="BackgroundImageFix" result="shape"/>
<feColorMatrix in="SourceAlpha" type="matrix" values="0 0 0 0 0 0 0 0 0 0 0 0 0 0 0 0 0 0 127 0" result="hardAlpha"/>
<feOffset dx="5" dy="5"/>
<feGaussianBlur stdDeviation="2.5"/>
<feComposite in2="hardAlpha" operator="arithmetic" k2="-1" k3="1"/>
<feColorMatrix type="matrix" values="0 0 0 0 0.604167 0 0 0 0 0.309635 0 0 0 0 0.309635 0 0 0 0.5 0"/>
<feBlend mode="normal" in2="shape" result="effect1_innerShadow_626_174"/>
</filter>
<filter id="filter2_i_626_174" x="84.2578" y="23.9502" width="59.3867" height="28.2158" filterUnits="userSpaceOnUse" color-interpolation-filters="sRGB">
<feFlood flood-opacity="0" result="BackgroundImageFix"/>
<feBlend mode="normal" in="SourceGraphic" in2="BackgroundImageFix" result="shape"/>
<feColorMatrix in="SourceAlpha" type="matrix" values="0 0 0 0 0 0 0 0 0 0 0 0 0 0 0 0 0 0 127 0" result="hardAlpha"/>
<feOffset dx="5" dy="5"/>
<feGaussianBlur stdDeviation="2.5"/>
<feComposite in2="hardAlpha" operator="arithmetic" k2="-1" k3="1"/>
<feColorMatrix type="matrix" values="0 0 0 0 0.604167 0 0 0 0 0.309635 0 0 0 0 0.309635 0 0 0 0.5 0"/>
<feBlend mode="normal" in2="shape" result="effect1_innerShadow_626_174"/>
</filter>
</defs>
</svg>
