<svg width="34" height="37" viewBox="0 0 34 37" fill="none" xmlns="http://www.w3.org/2000/svg">
<path d="M17.6798 36.7073L17.6633 36.6945L17.6838 36.6935L17.6798 36.7073ZM17.6798 36.7073L17.6965 36.7121L17.6978 36.7046L17.6936 36.693L17.6907 36.6931L17.6798 36.7073ZM17.3846 36.5212L17.3886 36.5378L17.3846 36.5212Z" fill="#E6E5E7" stroke="#E6E5E7" stroke-width="3"/>
<mask id="path-2-inside-1_964_5589" fill="white">
<path fill-rule="evenodd" clip-rule="evenodd" d="M14.8746 3.0835C12.9545 3.08367 11.0622 3.58356 9.35566 4.54144C7.64913 5.49932 6.17784 6.88743 5.06454 8.58995C3.95125 10.2925 3.22822 12.26 2.9558 14.3285C2.68337 16.3969 2.86944 18.5063 3.49848 20.4806C4.12752 22.4548 5.18129 24.2368 6.57188 25.6777C7.96247 27.1187 9.64954 28.1769 11.4924 28.764C13.3352 29.3511 15.2803 29.4501 17.1654 29.0527C19.0505 28.6554 20.821 27.7732 22.3291 26.4798L27.5028 32.11C27.77 32.3908 28.1278 32.5462 28.4993 32.5427C28.8707 32.5392 29.226 32.3771 29.4887 32.0912C29.7514 31.8054 29.9004 31.4187 29.9036 31.0145C29.9068 30.6103 29.764 30.2208 29.506 29.9301L24.3323 24.2999C25.732 22.3676 26.6034 20.0455 26.847 17.5994C27.0906 15.1533 26.6964 12.6819 25.7096 10.4682C24.7228 8.2545 23.1832 6.38784 21.2671 5.08185C19.3509 3.77587 17.1356 3.08333 14.8746 3.0835ZM5.66629 16.1877C5.66629 13.53 6.63645 10.9811 8.36335 9.10186C10.0902 7.22259 12.4324 6.16683 14.8746 6.16683C17.3168 6.16683 19.659 7.22259 21.3859 9.10186C23.1128 10.9811 24.083 13.53 24.083 16.1877C24.083 18.8454 23.1128 21.3942 21.3859 23.2735C19.659 25.1527 17.3168 26.2085 14.8746 26.2085C12.4324 26.2085 10.0902 25.1527 8.36335 23.2735C6.63645 21.3942 5.66629 18.8454 5.66629 16.1877Z"/>
</mask>
<path fill-rule="evenodd" clip-rule="evenodd" d="M14.8746 3.0835C12.9545 3.08367 11.0622 3.58356 9.35566 4.54144C7.64913 5.49932 6.17784 6.88743 5.06454 8.58995C3.95125 10.2925 3.22822 12.26 2.9558 14.3285C2.68337 16.3969 2.86944 18.5063 3.49848 20.4806C4.12752 22.4548 5.18129 24.2368 6.57188 25.6777C7.96247 27.1187 9.64954 28.1769 11.4924 28.764C13.3352 29.3511 15.2803 29.4501 17.1654 29.0527C19.0505 28.6554 20.821 27.7732 22.3291 26.4798L27.5028 32.11C27.77 32.3908 28.1278 32.5462 28.4993 32.5427C28.8707 32.5392 29.226 32.3771 29.4887 32.0912C29.7514 31.8054 29.9004 31.4187 29.9036 31.0145C29.9068 30.6103 29.764 30.2208 29.506 29.9301L24.3323 24.2999C25.732 22.3676 26.6034 20.0455 26.847 17.5994C27.0906 15.1533 26.6964 12.6819 25.7096 10.4682C24.7228 8.2545 23.1832 6.38784 21.2671 5.08185C19.3509 3.77587 17.1356 3.08333 14.8746 3.0835ZM5.66629 16.1877C5.66629 13.53 6.63645 10.9811 8.36335 9.10186C10.0902 7.22259 12.4324 6.16683 14.8746 6.16683C17.3168 6.16683 19.659 7.22259 21.3859 9.10186C23.1128 10.9811 24.083 13.53 24.083 16.1877C24.083 18.8454 23.1128 21.3942 21.3859 23.2735C19.659 25.1527 17.3168 26.2085 14.8746 26.2085C12.4324 26.2085 10.0902 25.1527 8.36335 23.2735C6.63645 21.3942 5.66629 18.8454 5.66629 16.1877Z" fill="#E6E5E7"/>
<path d="M14.8746 3.0835L14.8743 -1.9165H14.8742L14.8746 3.0835ZM22.3291 26.4798L26.0108 23.0967L22.7416 19.5391L19.0741 22.6845L22.3291 26.4798ZM27.5028 32.11L23.8212 35.4931L23.8505 35.525L23.8804 35.5565L27.5028 32.11ZM29.506 29.9301L33.2455 26.6111L33.2168 26.5788L33.1876 26.5469L29.506 29.9301ZM24.3323 24.2999L20.283 21.3668L17.8866 24.6751L20.6507 27.683L24.3323 24.2999ZM5.66629 16.1877H0.666294H5.66629ZM14.8746 6.16683V1.16683V6.16683ZM24.083 16.1877H29.083H24.083ZM14.8742 -1.9165C12.08 -1.91624 9.34716 -1.1876 6.90831 0.18134L11.803 8.90154C12.7772 8.35472 13.8289 8.08359 14.8751 8.0835L14.8742 -1.9165ZM6.90831 0.18134C4.47243 1.54861 2.41528 3.5054 0.879822 5.85351L9.24927 11.3264C9.9404 10.2695 10.8258 9.45004 11.803 8.90154L6.90831 0.18134ZM0.879822 5.85351C-0.654706 8.2002 -1.63361 10.8831 -2.00139 13.6756L7.91299 14.9814C8.09006 13.6369 8.5572 12.3847 9.24927 11.3264L0.879822 5.85351ZM-2.00139 13.6756C-2.36915 16.4678 -2.11939 19.3186 -1.26555 21.9985L8.26251 18.9627C7.85827 17.6939 7.73589 16.326 7.91299 14.9814L-2.00139 13.6756ZM-1.26555 21.9985C-0.411521 24.6789 1.03087 27.1363 2.97403 29.1498L10.1697 22.2056C9.33171 21.3373 8.66656 20.2308 8.26251 18.9627L-1.26555 21.9985ZM2.97403 29.1498C4.91902 31.1653 7.31352 32.6802 9.97457 33.528L13.0101 23.9999C11.9856 23.6735 11.0059 23.0721 10.1697 22.2056L2.97403 29.1498ZM9.97457 33.528C12.6382 34.3766 15.4616 34.5217 18.1966 33.9452L16.1342 24.1602C15.099 24.3784 14.0321 24.3255 13.0101 23.9999L9.97457 33.528ZM18.1966 33.9452C20.9297 33.3692 23.4594 32.0975 25.5841 30.2752L19.0741 22.6845C18.1826 23.449 17.1714 23.9416 16.1342 24.1602L18.1966 33.9452ZM18.6475 29.863L23.8212 35.4931L31.1844 28.7269L26.0108 23.0967L18.6475 29.863ZM23.8804 35.5565C25.0559 36.792 26.723 37.5597 28.5466 37.5425L28.452 27.5429C29.5327 27.5327 30.4841 27.9897 31.1252 28.6635L23.8804 35.5565ZM28.5466 37.5425C30.3695 37.5252 32.0194 36.7269 33.1703 35.4743L25.8071 28.7081C26.4327 28.0273 27.372 27.5531 28.452 27.5429L28.5466 37.5425ZM33.1703 35.4743C34.3088 34.2354 34.8907 32.6416 34.9034 31.0544L24.9037 30.9746C24.91 30.1958 25.1939 29.3754 25.8071 28.7081L33.1703 35.4743ZM34.9034 31.0544C34.9161 29.4673 34.3599 27.8667 33.2455 26.6111L25.7664 33.249C25.1681 32.575 24.8975 31.7532 24.9037 30.9746L34.9034 31.0544ZM33.1876 26.5469L28.0139 20.9168L20.6507 27.683L25.8243 33.3132L33.1876 26.5469ZM28.3816 27.233C30.3163 24.562 31.494 21.3932 31.8224 18.0948L21.8716 17.104C21.7129 18.6978 21.1476 20.1732 20.283 21.3668L28.3816 27.233ZM31.8224 18.0948C32.1508 14.7967 31.6224 11.4518 30.2764 8.43247L21.1428 12.504C21.7705 13.912 22.0304 15.5098 21.8716 17.104L31.8224 18.0948ZM30.2764 8.43247C28.9297 5.41134 26.8015 2.80304 24.083 0.950226L18.4511 9.21348C19.5649 9.97263 20.5159 11.0977 21.1428 12.504L30.2764 8.43247ZM24.083 0.950226C21.3593 -0.90617 18.167 -1.91674 14.8743 -1.9165L14.875 8.0835C16.1042 8.08341 17.3425 8.45791 18.4511 9.21348L24.083 0.950226ZM10.6663 16.1877C10.6663 14.726 11.2038 13.4005 12.045 12.485L4.68171 5.71874C2.06916 8.56181 0.666294 12.3339 0.666294 16.1877H10.6663ZM12.045 12.485C12.8732 11.5837 13.9015 11.1668 14.8746 11.1668V1.16683C10.9634 1.16683 7.3073 2.86148 4.68171 5.71874L12.045 12.485ZM14.8746 11.1668C15.8478 11.1668 16.8761 11.5837 17.7043 12.485L25.0675 5.71874C22.442 2.86148 18.7859 1.16683 14.8746 1.16683V11.1668ZM17.7043 12.485C18.5455 13.4005 19.083 14.726 19.083 16.1877H29.083C29.083 12.3339 27.6801 8.56181 25.0675 5.71874L17.7043 12.485ZM19.083 16.1877C19.083 17.6493 18.5455 18.9749 17.7043 19.8903L25.0675 26.6566C27.6801 23.8135 29.083 20.0414 29.083 16.1877H19.083ZM17.7043 19.8903C16.8761 20.7916 15.8478 21.2085 14.8746 21.2085V31.2085C18.7859 31.2085 22.442 29.5138 25.0675 26.6566L17.7043 19.8903ZM14.8746 21.2085C13.9015 21.2085 12.8732 20.7916 12.045 19.8903L4.68171 26.6566C7.3073 29.5138 10.9634 31.2085 14.8746 31.2085V21.2085ZM12.045 19.8903C11.2038 18.9749 10.6663 17.6493 10.6663 16.1877H0.666294C0.666294 20.0414 2.06916 23.8135 4.68171 26.6566L12.045 19.8903Z" fill="#E6E5E7" mask="url(#path-2-inside-1_964_5589)"/>
</svg>
