<svg width="20" height="20" viewBox="0 0 20 20" fill="none" xmlns="http://www.w3.org/2000/svg">
<path d="M10.1282 19.3783L10.1142 19.3154L10.1282 19.3783ZM10.1282 19.3783L10.1305 19.3888L10.1282 19.3783Z" fill="#E6E5E7" stroke="#E6E5E7"/>
<mask id="path-2-inside-1_636_194" fill="white">
<path fill-rule="evenodd" clip-rule="evenodd" d="M8.7507 1.66699C7.62119 1.66709 6.50809 1.9373 5.50425 2.45507C4.50041 2.97285 3.63494 3.72317 2.98006 4.64345C2.32518 5.56373 1.89987 6.62728 1.73962 7.74536C1.57937 8.86344 1.68882 10.0036 2.05885 11.0708C2.42887 12.138 3.04874 13.1012 3.86673 13.8801C4.68472 14.659 5.67712 15.231 6.76113 15.5483C7.84514 15.8657 8.98932 15.9192 10.0982 15.7044C11.2071 15.4896 12.2486 15.0128 13.1357 14.3137L16.179 17.357C16.3362 17.5088 16.5467 17.5928 16.7652 17.5909C16.9837 17.589 17.1927 17.5013 17.3472 17.3468C17.5017 17.1923 17.5894 16.9833 17.5913 16.7648C17.5932 16.5463 17.5092 16.3358 17.3574 16.1787L14.314 13.1353C15.1374 12.0908 15.65 10.8357 15.7933 9.51343C15.9366 8.1912 15.7047 6.85534 15.1242 5.65874C14.5437 4.46213 13.6381 3.45312 12.511 2.74718C11.3838 2.04125 10.0807 1.6669 8.7507 1.66699ZM3.33403 8.75033C3.33403 7.31374 3.90472 5.93599 4.92054 4.92016C5.93636 3.90434 7.31411 3.33366 8.7507 3.33366C10.1873 3.33366 11.565 3.90434 12.5809 4.92016C13.5967 5.93599 14.1674 7.31374 14.1674 8.75033C14.1674 10.1869 13.5967 11.5647 12.5809 12.5805C11.565 13.5963 10.1873 14.167 8.7507 14.167C7.31411 14.167 5.93636 13.5963 4.92054 12.5805C3.90472 11.5647 3.33403 10.1869 3.33403 8.75033Z"/>
</mask>
<path fill-rule="evenodd" clip-rule="evenodd" d="M8.7507 1.66699C7.62119 1.66709 6.50809 1.9373 5.50425 2.45507C4.50041 2.97285 3.63494 3.72317 2.98006 4.64345C2.32518 5.56373 1.89987 6.62728 1.73962 7.74536C1.57937 8.86344 1.68882 10.0036 2.05885 11.0708C2.42887 12.138 3.04874 13.1012 3.86673 13.8801C4.68472 14.659 5.67712 15.231 6.76113 15.5483C7.84514 15.8657 8.98932 15.9192 10.0982 15.7044C11.2071 15.4896 12.2486 15.0128 13.1357 14.3137L16.179 17.357C16.3362 17.5088 16.5467 17.5928 16.7652 17.5909C16.9837 17.589 17.1927 17.5013 17.3472 17.3468C17.5017 17.1923 17.5894 16.9833 17.5913 16.7648C17.5932 16.5463 17.5092 16.3358 17.3574 16.1787L14.314 13.1353C15.1374 12.0908 15.65 10.8357 15.7933 9.51343C15.9366 8.1912 15.7047 6.85534 15.1242 5.65874C14.5437 4.46213 13.6381 3.45312 12.511 2.74718C11.3838 2.04125 10.0807 1.6669 8.7507 1.66699ZM3.33403 8.75033C3.33403 7.31374 3.90472 5.93599 4.92054 4.92016C5.93636 3.90434 7.31411 3.33366 8.7507 3.33366C10.1873 3.33366 11.565 3.90434 12.5809 4.92016C13.5967 5.93599 14.1674 7.31374 14.1674 8.75033C14.1674 10.1869 13.5967 11.5647 12.5809 12.5805C11.565 13.5963 10.1873 14.167 8.7507 14.167C7.31411 14.167 5.93636 13.5963 4.92054 12.5805C3.90472 11.5647 3.33403 10.1869 3.33403 8.75033Z" fill="#E6E5E7"/>
<path d="M8.7507 1.66699L8.7505 -1.33301H8.75044L8.7507 1.66699ZM13.1357 14.3137L15.257 12.1923L13.3723 10.3076L11.2788 11.9574L13.1357 14.3137ZM16.179 17.357L14.0577 19.4783L14.0761 19.4967L14.0949 19.5149L16.179 17.357ZM17.3574 16.1787L19.5152 14.0945L19.4971 14.0758L19.4787 14.0573L17.3574 16.1787ZM14.314 13.1353L11.958 11.2781L10.3077 13.3717L12.1927 15.2566L14.314 13.1353ZM3.33403 8.75033H0.334033H3.33403ZM8.7507 3.33366V0.333659V3.33366ZM14.1674 8.75033H17.1674H14.1674ZM8.75044 -1.33301C7.14256 -1.33287 5.55802 -0.948223 4.12902 -0.211155L6.87947 5.1213C7.45816 4.82281 8.09983 4.66705 8.75096 4.66699L8.75044 -1.33301ZM4.12902 -0.211155C2.70003 0.525912 1.46802 1.59403 0.535773 2.90407L5.42435 6.38283C5.80187 5.85232 6.30079 5.41978 6.87947 5.1213L4.12902 -0.211155ZM0.535773 2.90407C-0.396469 4.21412 -1.00191 5.72811 -1.23003 7.31973L4.70928 8.17099C4.80166 7.52645 5.04683 6.91335 5.42435 6.38283L0.535773 2.90407ZM-1.23003 7.31973C-1.45815 8.91135 -1.30234 10.5344 -0.775603 12.0536L4.8933 10.088C4.67999 9.47282 4.6169 8.81553 4.70928 8.17099L-1.23003 7.31973ZM-0.775603 12.0536C-0.248863 13.5728 0.633535 14.9439 1.79797 16.0527L5.93549 11.7075C5.46394 11.2585 5.10661 10.7032 4.8933 10.088L-0.775603 12.0536ZM1.79797 16.0527C2.96241 17.1615 4.37511 17.9757 5.91823 18.4275L7.60403 12.6692C6.97913 12.4862 6.40704 12.1565 5.93549 11.7075L1.79797 16.0527ZM5.91823 18.4275C7.46135 18.8792 9.09012 18.9554 10.6687 18.6497L9.52776 12.7592C8.88851 12.883 8.22892 12.8521 7.60403 12.6692L5.91823 18.4275ZM10.6687 18.6497C12.2472 18.3439 13.7298 17.6651 14.9926 16.6699L11.2788 11.9574C10.7674 12.3605 10.167 12.6353 9.52776 12.7592L10.6687 18.6497ZM11.0144 16.435L14.0577 19.4783L18.3004 15.2357L15.257 12.1923L11.0144 16.435ZM14.0949 19.5149C14.8179 20.2131 15.7862 20.5995 16.7913 20.5908L16.7391 14.591C17.3072 14.5861 17.8545 14.8045 18.2632 15.1991L14.0949 19.5149ZM16.7913 20.5908C17.7963 20.582 18.7578 20.1789 19.4685 19.4682L15.2259 15.2255C15.6276 14.8238 16.1711 14.5959 16.7391 14.591L16.7913 20.5908ZM19.4685 19.4682C20.1793 18.7574 20.5824 17.796 20.5911 16.7909L14.5914 16.7388C14.5963 16.1707 14.8242 15.6272 15.2259 15.2255L19.4685 19.4682ZM20.5911 16.7909C20.5999 15.7858 20.2135 14.8175 19.5152 14.0945L15.1995 18.2628C14.8048 17.8542 14.5864 17.3069 14.5914 16.7388L20.5911 16.7909ZM19.4787 14.0573L16.4354 11.014L12.1927 15.2566L15.236 18.3L19.4787 14.0573ZM16.6701 14.9925C17.8421 13.5056 18.5719 11.7189 18.7758 9.83663L12.8107 9.19023C12.7281 9.95246 12.4326 10.676 11.958 11.2781L16.6701 14.9925ZM18.7758 9.83663C18.9798 7.9544 18.6497 6.05276 17.8234 4.34936L12.425 6.96812C12.7597 7.65792 12.8933 8.42801 12.8107 9.19023L18.7758 9.83663ZM17.8234 4.34936C16.9971 2.64595 15.7079 1.2096 14.1033 0.204678L10.9186 5.28969C11.5683 5.69664 12.0904 6.27831 12.425 6.96812L17.8234 4.34936ZM14.1033 0.204678C12.4988 -0.800244 10.6438 -1.33313 8.7505 -1.33301L8.7509 4.66699C9.51759 4.66694 10.2688 4.88274 10.9186 5.28969L14.1033 0.204678ZM6.33403 8.75033C6.33403 8.10939 6.58865 7.4947 7.04186 7.04148L2.79922 2.79884C1.22079 4.37727 0.334033 6.51809 0.334033 8.75033H6.33403ZM7.04186 7.04148C7.49507 6.58827 8.10976 6.33366 8.7507 6.33366V0.333659C6.51846 0.333659 4.37765 1.22041 2.79922 2.79884L7.04186 7.04148ZM8.7507 6.33366C9.39164 6.33366 10.0063 6.58827 10.4595 7.04148L14.7022 2.79884C13.1238 1.22041 10.9829 0.333659 8.7507 0.333659V6.33366ZM10.4595 7.04148C10.9128 7.4947 11.1674 8.10939 11.1674 8.75033H17.1674C17.1674 6.51809 16.2806 4.37727 14.7022 2.79884L10.4595 7.04148ZM11.1674 8.75033C11.1674 9.39127 10.9128 10.006 10.4595 10.4592L14.7022 14.7018C16.2806 13.1234 17.1674 10.9826 17.1674 8.75033H11.1674ZM10.4595 10.4592C10.0063 10.9124 9.39164 11.167 8.7507 11.167V17.167C10.9829 17.167 13.1238 16.2802 14.7022 14.7018L10.4595 10.4592ZM8.7507 11.167C8.10976 11.167 7.49507 10.9124 7.04186 10.4592L2.79922 14.7018C4.37765 16.2802 6.51846 17.167 8.7507 17.167V11.167ZM7.04186 10.4592C6.58865 10.006 6.33403 9.39127 6.33403 8.75033H0.334033C0.334033 10.9826 1.22079 13.1234 2.79922 14.7018L7.04186 10.4592Z" fill="#E6E5E7" mask="url(#path-2-inside-1_636_194)"/>
</svg>
