<?xml version="1.0" encoding="UTF-8"?>
<svg id="Layer_1" data-name="Layer 1" xmlns="http://www.w3.org/2000/svg" xmlns:xlink="http://www.w3.org/1999/xlink" viewBox="0 0 37.07 41.16">
  <defs>
    <style>
      .cls-1, .cls-2 {
        fill: #e6e5e7;
      }

      .cls-1, .cls-2, .cls-3 {
        stroke-width: 0px;
      }

      .cls-1, .cls-3 {
        fill-rule: evenodd;
      }

      .cls-3 {
        fill: #fff;
      }

      .cls-4 {
        mask: url(#mask);
      }
    </style>
    <mask id="mask" x="0" y="0" width="37.07" height="39.46" maskUnits="userSpaceOnUse">
      <g id="path-2-inside-1_964_5589" data-name="path-2-inside-1 964 5589">
        <path class="cls-3" d="M17.04,5c-1.92,0-3.81.5-5.52,1.46-1.71.96-3.18,2.35-4.29,4.05-1.11,1.7-1.84,3.67-2.11,5.74-.27,2.07-.09,4.18.54,6.15.63,1.97,1.68,3.76,3.07,5.2,1.39,1.44,3.08,2.5,4.92,3.09,1.84.59,3.79.69,5.67.29,1.89-.4,3.66-1.28,5.16-2.57l5.17,5.63c.27.28.62.44,1,.43.37,0,.73-.17.99-.45.26-.29.41-.67.41-1.08,0-.4-.14-.79-.4-1.08l-5.17-5.63c1.4-1.93,2.27-4.25,2.51-6.7.24-2.45-.15-4.92-1.14-7.13-.99-2.21-2.53-4.08-4.44-5.39-1.92-1.31-4.13-2-6.39-2ZM7.83,18.1c0-2.66.97-5.21,2.7-7.09,1.73-1.88,4.07-2.94,6.51-2.94s4.78,1.06,6.51,2.94c1.73,1.88,2.7,4.43,2.7,7.09s-.97,5.21-2.7,7.09c-1.73,1.88-4.07,2.93-6.51,2.93s-4.78-1.06-6.51-2.93c-1.73-1.88-2.7-4.43-2.7-7.09Z"/>
      </g>
    </mask>
  </defs>
  <path class="cls-1" d="M17.04,5c-1.92,0-3.81.5-5.52,1.46-1.71.96-3.18,2.35-4.29,4.05-1.11,1.7-1.84,3.67-2.11,5.74-.27,2.07-.09,4.18.54,6.15.63,1.97,1.68,3.76,3.07,5.2,1.39,1.44,3.08,2.5,4.92,3.09,1.84.59,3.79.69,5.67.29,1.89-.4,3.66-1.28,5.16-2.57l5.17,5.63c.27.28.62.44,1,.43.37,0,.73-.17.99-.45.26-.29.41-.67.41-1.08,0-.4-.14-.79-.4-1.08l-5.17-5.63c1.4-1.93,2.27-4.25,2.51-6.7.24-2.45-.15-4.92-1.14-7.13-.99-2.21-2.53-4.08-4.44-5.39-1.92-1.31-4.13-2-6.39-2ZM7.83,18.1c0-2.66.97-5.21,2.7-7.09,1.73-1.88,4.07-2.94,6.51-2.94s4.78,1.06,6.51,2.94c1.73,1.88,2.7,4.43,2.7,7.09s-.97,5.21-2.7,7.09c-1.73,1.88-4.07,2.93-6.51,2.93s-4.78-1.06-6.51-2.93c-1.73-1.88-2.7-4.43-2.7-7.09Z"/>
  <g class="cls-4">
    <path class="cls-2" d="M17.04,5V0h0v5ZM24.5,28.4l3.68-3.38-3.27-3.56-3.67,3.15,3.25,3.8ZM29.67,34.03l-3.68,3.38.03.03.03.03,3.62-3.45ZM31.67,31.85l3.74-3.32-.03-.03-.03-.03-3.68,3.38ZM26.5,26.22l-4.05-2.93-2.4,3.31,2.76,3.01,3.68-3.38ZM7.83,18.1H2.83h5ZM17.04,8.08V3.08v5ZM26.25,18.1h5-5ZM17.04,0c-2.79,0-5.53.73-7.97,2.1l4.89,8.72c.97-.55,2.03-.82,3.07-.82V0ZM9.07,2.1c-2.44,1.37-4.49,3.32-6.03,5.67l8.37,5.47c.69-1.06,1.58-1.88,2.55-2.42L9.07,2.1ZM3.05,7.77C1.51,10.12.53,12.8.16,15.59l9.91,1.31c.18-1.34.64-2.6,1.34-3.65L3.05,7.77ZM.16,15.59c-.37,2.79-.12,5.64.74,8.32l9.53-3.04c-.4-1.27-.53-2.64-.35-3.98L.16,15.59ZM.9,23.92c.85,2.68,2.3,5.14,4.24,7.15l7.2-6.94c-.84-.87-1.5-1.97-1.91-3.24L.9,23.92ZM5.14,31.07c1.94,2.02,4.34,3.53,7,4.38l3.04-9.53c-1.02-.33-2-.93-2.84-1.79l-7.2,6.94ZM12.14,35.44c2.66.85,5.49.99,8.22.42l-2.06-9.79c-1.04.22-2.1.17-3.12-.16l-3.04,9.53ZM20.36,35.86c2.73-.58,5.26-1.85,7.39-3.67l-6.51-7.59c-.89.76-1.9,1.26-2.94,1.48l2.06,9.79ZM20.81,31.78l5.17,5.63,7.36-6.77-5.17-5.63-7.36,6.77ZM26.05,37.47c1.18,1.24,2.84,2,4.67,1.99l-.09-10c1.08-.01,2.03.45,2.67,1.12l-7.24,6.89ZM30.71,39.46c1.82-.02,3.47-.82,4.62-2.07l-7.36-6.77c.63-.68,1.56-1.15,2.64-1.17l.09,10ZM35.34,37.39c1.14-1.24,1.72-2.83,1.73-4.42l-10-.08c0-.78.29-1.6.9-2.27l7.36,6.77ZM37.07,32.97c.01-1.59-.54-3.19-1.66-4.44l-7.48,6.64c-.6-.67-.87-1.5-.86-2.27l10,.08ZM35.35,28.46l-5.17-5.63-7.36,6.77,5.17,5.63,7.36-6.77ZM30.55,29.15c1.93-2.67,3.11-5.84,3.44-9.14l-9.95-.99c-.16,1.59-.72,3.07-1.59,4.26l8.1,5.87ZM33.99,20.01c.33-3.3-.2-6.64-1.55-9.66l-9.13,4.07c.63,1.41.89,3.01.73,4.6l9.95.99ZM32.44,10.35c-1.35-3.02-3.47-5.63-6.19-7.48l-5.63,8.26c1.11.76,2.06,1.88,2.69,3.29l9.13-4.07ZM26.25,2.87C23.53,1.01,20.33,0,17.04,0v10c1.23,0,2.47.37,3.58,1.13l5.63-8.26ZM12.83,18.1c0-1.46.54-2.79,1.38-3.7l-7.36-6.77c-2.61,2.84-4.02,6.62-4.02,10.47h10ZM14.21,14.4c.83-.9,1.86-1.32,2.83-1.32V3.08c-3.91,0-7.57,1.69-10.19,4.55l7.36,6.77ZM17.04,13.08c.97,0,2,.42,2.83,1.32l7.36-6.77c-2.63-2.86-6.28-4.55-10.19-4.55v10ZM19.87,14.4c.84.92,1.38,2.24,1.38,3.7h10c0-3.85-1.4-7.63-4.02-10.47l-7.36,6.77ZM21.25,18.1c0,1.46-.54,2.79-1.38,3.7l7.36,6.77c2.61-2.84,4.02-6.62,4.02-10.47h-10ZM19.87,21.81c-.83.9-1.86,1.32-2.83,1.32v10c3.91,0,7.57-1.69,10.19-4.55l-7.36-6.77ZM17.04,23.12c-.97,0-2-.42-2.83-1.32l-7.36,6.77c2.63,2.86,6.28,4.55,10.19,4.55v-10ZM14.21,21.81c-.84-.92-1.38-2.24-1.38-3.7H2.83c0,3.85,1.4,7.63,4.02,10.47l7.36-6.77Z"/>
  </g>
</svg>