<svg width="21" height="23" viewBox="0 0 21 23" fill="none" xmlns="http://www.w3.org/2000/svg">
<path fill-rule="evenodd" clip-rule="evenodd" d="M6 5.45833C6 4.17645 6.47411 2.94708 7.31802 2.04065C8.16193 1.13422 9.30653 0.625 10.5 0.625C11.6935 0.625 12.8381 1.13422 13.682 2.04065C14.5259 2.94708 15 4.17645 15 5.45833C15 6.74021 14.5259 7.96959 13.682 8.87602C12.8381 9.78244 11.6935 10.2917 10.5 10.2917C9.30653 10.2917 8.16193 9.78244 7.31802 8.87602C6.47411 7.96959 6 6.74021 6 5.45833ZM6 12.7083C4.50816 12.7083 3.07742 13.3449 2.02252 14.4779C0.967632 15.6109 0.375 17.1476 0.375 18.75C0.375 19.7114 0.730579 20.6334 1.36351 21.3133C1.99645 21.9931 2.85489 22.375 3.75 22.375H17.25C18.1451 22.375 19.0035 21.9931 19.6365 21.3133C20.2694 20.6334 20.625 19.7114 20.625 18.75C20.625 17.1476 20.0324 15.6109 18.9775 14.4779C17.9226 13.3449 16.4918 12.7083 15 12.7083H6Z" fill="#B8B0B9"/>
</svg>
