<svg width="23" height="22" viewBox="0 0 23 22" fill="none" xmlns="http://www.w3.org/2000/svg">
<path opacity="0.85" d="M20.991 11.81C24.561 6.35 20.091 4.62001 20.171 0.850006L20.541 0.360016L20.061 0L8.24099 15.68V15.71C8.19099 15.4 8.08099 15.09 7.90099 14.81C7.65099 14.4 7.30099 14.04 6.91099 13.74C6.12099 13.14 5.17099 12.77 4.23099 12.63C3.28099 12.49 2.321 12.62 1.531 13.01C0.760998 13.39 0.050999 14.01 0.000998969 14.9C-0.029001 15.78 0.620994 16.63 1.37099 17.23C2.14099 17.84 3.08099 18.23 4.02099 18.37C4.96099 18.51 5.93099 18.42 6.74099 18.05C7.15099 17.87 7.51099 17.61 7.79099 17.29C7.88099 17.19 7.95099 17.07 8.02099 16.95L13.181 10.11C13.201 12.33 17.461 12.92 12.861 21.6C14.091 20.34 20.411 12.71 20.991 11.81ZM19.871 11.43C20.161 8.49999 17.781 6.82002 17.701 4.11002L18.241 3.39001C18.241 5.61001 21.511 6.43999 19.871 11.43ZM15.231 7.38L15.731 6.72C15.621 8.86 19.391 9.61001 17.171 15.07C17.891 11.83 15.371 10.21 15.231 7.38Z" fill="#CCCCCC"/>
</svg>
