<svg width="29" height="47" viewBox="0 0 29 47" fill="none" xmlns="http://www.w3.org/2000/svg">
<path d="M9.3421 1.21001L9.11209 0L7.88211 0.240005L14.2221 33.42C13.6721 33.03 12.9921 32.76 12.2821 32.64C11.2721 32.46 10.2121 32.5 9.17209 32.68C7.10209 33.06 5.1621 34.04 3.5921 35.32C2.0221 36.61 0.842111 38.31 0.322111 40.12C-0.187889 41.88 -0.207901 43.89 1.1221 45.23C2.4721 46.55 4.7421 46.73 6.7521 46.4C8.8121 46.07 10.7721 45.13 12.3421 43.85C13.9021 42.56 15.1521 40.91 15.7321 39.1C16.0221 38.2 16.1521 37.26 16.0321 36.35C16.0321 36.24 15.9921 36.14 15.9721 36.03L15.9921 36.07L10.7221 8.48C14.6721 13.75 24.0721 6.21 28.1621 22.76C24.4021 -3.14001 19.5521 10.92 9.33209 1.22002L9.3421 1.21001Z" fill="#A34E4E" fill-opacity="0.5"/>
</svg>
