<svg width="45" height="40" viewBox="0 0 45 40" fill="none" xmlns="http://www.w3.org/2000/svg">
<path d="M36.62 0H36.6L35.98 0.25L0.019989 14.66H0L6.82999 31.7C6.49999 31.55 6.10999 31.47 5.70999 31.49C5.14999 31.49 4.59 31.63 4.06 31.84C2.99 32.25 2.05999 32.98 1.35999 33.83C0.649985 34.68 0.199985 35.71 0.109985 36.73C0.0199853 37.72 0.219977 38.8 1.06998 39.37C1.92998 39.93 3.15997 39.79 4.18997 39.41C5.24997 39.02 6.19997 38.31 6.90997 37.47C7.60997 36.62 8.10998 35.61 8.22998 34.58C8.28998 34.07 8.25998 33.56 8.10999 33.08C8.08998 33.02 8.05998 32.97 8.03998 32.92L8.06 32.94L3.29999 21.06L20.66 14.11L24.83 24.52C24.5 24.37 24.11 24.29 23.71 24.3C23.15 24.3 22.59 24.44 22.06 24.65C20.99 25.06 20.06 25.79 19.36 26.64C18.65 27.49 18.2 28.52 18.11 29.54C18.02 30.53 18.22 31.61 19.07 32.18C19.93 32.74 21.16 32.6 22.19 32.22C23.25 31.83 24.2 31.13 24.91 30.28C25.61 29.43 26.1 28.42 26.23 27.39C26.29 26.88 26.26 26.37 26.11 25.89C26.09 25.83 26.07 25.78 26.04 25.73L26.06 25.75L21.3 13.87L38.66 6.92L42.83 17.33C42.5 17.18 42.11 17.1 41.71 17.12C41.15 17.12 40.59 17.26 40.06 17.46C38.99 17.88 38.06 18.6 37.36 19.45C36.66 20.3 36.2 21.33 36.12 22.35C36.03 23.34 36.23 24.42 37.08 24.99C37.94 25.55 39.16 25.41 40.2 25.03C41.26 24.64 42.21 23.93 42.92 23.09C43.62 22.24 44.11 21.23 44.24 20.2C44.3 19.69 44.27 19.18 44.12 18.7C44.1 18.64 44.07 18.59 44.05 18.54L44.07 18.56L36.65 0.0500031L36.62 0ZM2.95999 20.22L2.06998 18L19.43 11.05L20.32 13.27L2.95999 20.22ZM20.95 13.02L20.06 10.8L37.42 3.84999L38.31 6.06999L20.95 13.02Z" fill="#F8BFB5" fill-opacity="0.25"/>
</svg>
