<svg width="20" height="21" viewBox="0 0 20 21" fill="none" xmlns="http://www.w3.org/2000/svg">
<path opacity="0.85" d="M18.3973 10.48C20.6273 4.92 16.2873 4.17 15.6773 0.75L15.9173 0.239998L15.4173 0L7.59736 16.27V16.3C7.50736 16.03 7.34735 15.77 7.12736 15.55C6.82735 15.23 6.44736 14.97 6.03736 14.77C5.21736 14.37 4.29733 14.21 3.41733 14.25C2.53733 14.3 1.69734 14.58 1.04734 15.08C0.417338 15.56 -0.102661 16.25 0.0173393 17.06C0.147339 17.86 0.887333 18.51 1.66733 18.91C2.46733 19.32 3.38734 19.5 4.26734 19.46C5.13734 19.41 5.99733 19.16 6.66733 18.68C6.99733 18.44 7.28736 18.15 7.47736 17.8C7.54736 17.69 7.58735 17.57 7.61735 17.45L11.0273 10.36C11.4473 12.36 15.3874 12.12 12.8174 20.77C13.6974 19.41 18.0074 11.39 18.3774 10.48H18.3973ZM17.3174 10.34C17.0574 7.65 14.5974 6.57 14.0374 4.14L14.3973 3.4C14.7973 5.4 17.8973 5.56 17.3273 10.35L17.3174 10.34ZM12.4074 7.53L12.7373 6.85C13.0273 8.79 16.5573 8.79 15.5473 14.11C15.6073 11.06 13.0474 10.05 12.4074 7.53Z" fill="#CCCCCC"/>
</svg>
