<svg width="31" height="24" viewBox="0 0 31 24" fill="none" xmlns="http://www.w3.org/2000/svg">
<path opacity="0.85" d="M29.4632 6.91L29.5832 6.07999H29.4632L29.7932 3.82999H29.8332L30.3932 0L10.7532 2.01001L10.5232 1.98999L8.09317 18.54L8.1232 18.64C7.9432 18.39 7.69318 18.17 7.41318 18C6.98318 17.74 6.49318 17.58 5.99318 17.48C4.98318 17.29 3.92318 17.4 2.99318 17.72C2.05318 18.04 1.22319 18.61 0.673186 19.34C0.133186 20.06 -0.216819 20.97 0.153181 21.81C0.543181 22.65 1.54318 23.12 2.52318 23.32C3.52318 23.52 4.58318 23.44 5.52318 23.12C6.46318 22.8 7.31319 22.27 7.89319 21.54C8.18319 21.18 8.40317 20.77 8.50317 20.34C8.56317 20.14 8.57319 19.94 8.55319 19.74L10.1532 8.89999L28.7232 7L27.2432 17.05L27.2732 17.15C27.0932 16.9 26.8432 16.68 26.5632 16.51C26.1332 16.25 25.6432 16.09 25.1432 15.99C24.1332 15.8 23.0832 15.91 22.1432 16.23C21.2032 16.55 20.3732 17.12 19.8232 17.85C19.2832 18.57 18.9332 19.48 19.3032 20.32C19.6932 21.16 20.6932 21.63 21.6732 21.83C22.6732 22.03 23.7232 21.95 24.6632 21.63C25.6032 21.31 26.4532 20.77 27.0332 20.05C27.3232 19.69 27.5432 19.28 27.6432 18.85C27.6932 18.65 27.7032 18.45 27.6932 18.25L29.3632 6.94H29.4832L29.4632 6.91ZM10.2732 7.98999L10.5932 5.79001L29.1632 3.89001L28.8332 6.14999L10.2732 7.98999Z" fill="#CCCCCC"/>
</svg>
