<svg width="18" height="22" viewBox="0 0 18 22" fill="none" xmlns="http://www.w3.org/2000/svg">
<path opacity="0.85" d="M10.62 2.31C6.64999 -2.13 4.06999 1.4 0.769989 0.440002L0.429993 0L0 0.339996L11.02 14.47H11.05C10.77 14.45 10.46 14.47 10.17 14.57C9.74998 14.7 9.34999 14.92 8.98999 15.19C8.26999 15.74 7.71997 16.49 7.37997 17.29C7.02997 18.09 6.91998 18.97 7.06998 19.76C7.21998 20.53 7.60999 21.3 8.37 21.55C9.14 21.79 10.04 21.42 10.74 20.9C11.46 20.37 12.03 19.63 12.37 18.83C12.71 18.03 12.87 17.16 12.73 16.36C12.66 15.96 12.53 15.58 12.31 15.25C12.24 15.14 12.16 15.05 12.06 14.97L7.25998 8.81C9.21998 9.32 10.75 5.71 17.31 11.81C16.49 10.43 11.26 3.06 10.61 2.33L10.62 2.31ZM10.02 3.2C7.50999 2.25 5.47 3.95 3.06 3.38L2.56 2.73999C4.52 3.26999 6.02 0.579997 10.03 3.2H10.02ZM5.34998 6.33L4.88998 5.73999C6.74998 6.33999 8.3 3.2 12.59 6.44C9.91 5.04 7.87999 6.88 5.35999 6.33H5.34998Z" fill="#CCCCCC"/>
</svg>
