<svg width="31" height="49" viewBox="0 0 31 49" fill="none" xmlns="http://www.w3.org/2000/svg">
<path d="M22.9465 2.22L23.4365 0.18L22.4565 0L12.9965 39.58C12.7765 39.08 12.4365 38.63 12.0365 38.3C11.4365 37.78 10.7065 37.45 9.95647 37.26C8.44647 36.88 6.80649 37.09 5.29648 37.7C3.78648 38.32 2.39649 39.43 1.40649 40.88C0.436486 42.29 -0.293523 44.09 0.116477 45.75C0.536477 47.4 1.98648 48.35 3.43648 48.76C4.92648 49.17 6.56648 49.01 8.07648 48.4C9.57648 47.78 10.9965 46.74 12.0365 45.3C12.5465 44.59 12.9765 43.79 13.2265 42.93C13.2765 42.77 13.3065 42.61 13.3365 42.44L19.1965 17.95C19.5165 24.43 26.9565 24.09 25.4865 36.61L30.6665 14.94C30.5065 8.26 24.7365 8.63001 22.9665 2.21001L22.9465 2.22ZM20.6165 11.99L21.3765 8.83C21.9765 13.18 27.5165 11.52 27.6665 21.93C26.1865 17.29 22.0165 16.68 20.6265 11.99H20.6165Z" fill="#DE897C" fill-opacity="0.25"/>
</svg>
