<?xml version="1.0" encoding="UTF-8"?>
<svg id="Layer_1" data-name="Layer 1" xmlns="http://www.w3.org/2000/svg" viewBox="0 0 566.91 618.77">
  <defs>
    <style>
      .cls-1 {
        fill: #ccc;
        isolation: isolate;
        opacity: .85;
        stroke-width: 0px;
      }
    </style>
  </defs>
  <path class="cls-1" d="M548.08,312.22c66.44-165.64-62.86-187.98-81.03-289.87l7.15-15.19-14.9-7.15-232.97,484.71v.89c-2.68-8.04-7.45-15.79-14-22.34-8.94-9.53-20.26-17.28-32.47-23.24-24.43-11.92-51.84-16.68-78.05-15.49-26.22,1.49-51.24,9.83-70.61,24.73-18.77,14.3-34.26,34.86-30.69,58.99,3.87,23.83,25.92,43.2,49.16,55.11,23.83,12.21,51.24,17.58,77.46,16.39,25.92-1.49,51.54-8.94,71.5-23.24,9.83-7.15,18.47-15.79,24.13-26.22,2.09-3.28,3.28-6.85,4.17-10.43l101.59-211.22c12.51,59.58,129.89,52.43,53.33,310.13,26.22-40.52,154.62-279.44,165.64-306.55h.59ZM515.91,308.04c-7.75-80.14-81.03-112.31-97.72-184.71l10.72-22.05c11.92,59.58,104.27,64.35,87.29,207.05l-.29-.3ZM369.64,224.33l9.83-20.26c8.64,57.8,113.8,57.8,83.71,216.29,1.79-90.86-74.48-120.95-93.54-196.03Z"/>
</svg>