<svg width="29" height="36" viewBox="0 0 29 36" fill="none" xmlns="http://www.w3.org/2000/svg">
<path opacity="0.85" d="M27.05 11.59L15.82 2.60999L12.56 0L0 15.72L3.26001 18.32L13.85 26.78L13.96 26.81C13.64 26.84 13.31 26.94 13.02 27.11C12.56 27.36 12.16 27.71 11.81 28.11C11.11 28.92 10.66 29.92 10.46 30.93C10.25 31.94 10.33 32.98 10.7 33.85C11.06 34.7 11.69 35.5 12.64 35.6C13.59 35.69 14.54 35.04 15.22 34.27C15.92 33.48 16.39 32.49 16.6 31.49C16.8 30.49 16.77 29.44 16.42 28.54C16.25 28.09 16 27.68 15.66 27.36C15.51 27.21 15.33 27.09 15.14 27L3.64999 17.81L15.4 3.10001L25.73 11.35L25.84 11.38C25.52 11.41 25.2 11.51 24.9 11.68C24.44 11.93 24.04 12.28 23.69 12.69C22.99 13.5 22.55 14.5 22.34 15.5C22.13 16.51 22.21 17.55 22.58 18.42C22.94 19.27 23.57 20.07 24.52 20.17C25.47 20.26 26.42 19.61 27.1 18.84C27.8 18.05 28.27 17.06 28.48 16.06C28.68 15.06 28.65 14.01 28.3 13.11C28.13 12.66 27.88 12.25 27.54 11.93C27.39 11.78 27.21 11.66 27.03 11.57L27.05 11.59Z" fill="#F8BFB5" fill-opacity="0.25"/>
</svg>
