<svg width="54" height="47" viewBox="0 0 54 47" fill="none" xmlns="http://www.w3.org/2000/svg">
<path d="M8.26684 46.0303H8.28683L9.03683 45.7503L52.6168 30.0503H52.6368L45.1968 9.41031C45.5868 9.61031 46.0468 9.71031 46.5168 9.71031C47.1868 9.73031 47.8568 9.5903 48.5068 9.3703C49.7968 8.9203 50.9468 8.09031 51.8168 7.1103C52.6968 6.12031 53.2768 4.9103 53.4268 3.7003C53.5768 2.5203 53.3868 1.2303 52.3968 0.510299C51.3968 -0.199701 49.9168 -0.0796939 48.6668 0.330306C47.3768 0.750306 46.2168 1.55031 45.3368 2.54031C44.4668 3.53031 43.8268 4.71031 43.6468 5.93031C43.5568 6.54031 43.5668 7.15031 43.7268 7.72031C43.7468 7.79031 43.7768 7.85031 43.7968 7.91031L43.7768 7.8903L50.2968 25.9803L29.2668 33.5603L23.3968 17.2603C23.7868 17.4603 24.2468 17.5603 24.7168 17.5603C25.3868 17.5803 26.0568 17.4403 26.7068 17.2203C27.9968 16.7703 29.1368 15.9403 30.0168 14.9603C30.8968 13.9703 31.4768 12.7603 31.6268 11.5503C31.7768 10.3703 31.5868 9.08031 30.5968 8.35031C29.5968 7.64031 28.1268 7.7603 26.8668 8.1703C25.5768 8.5903 24.4168 9.39031 23.5368 10.3803C22.6668 11.3703 22.0268 12.5503 21.8468 13.7703C21.7568 14.3803 21.7668 14.9903 21.9368 15.5603C21.9568 15.6303 21.9868 15.6903 22.0068 15.7603L21.9868 15.7403L28.5068 33.8303L7.47683 41.4103L1.60684 25.1103C1.99684 25.3103 2.45684 25.4103 2.92684 25.4103C3.59684 25.4303 4.27683 25.2903 4.91683 25.0703C6.20683 24.6203 7.35683 23.7903 8.22683 22.8103C9.10683 21.8203 9.68682 20.6103 9.83682 19.4003C9.98682 18.2203 9.79682 16.9303 8.80682 16.2103C7.80682 15.5003 6.33684 15.6203 5.07684 16.0303C3.78684 16.4503 2.62682 17.2503 1.74682 18.2403C0.876821 19.2303 0.246819 20.4103 0.0568187 21.6303C-0.0331813 22.2403 -0.0231642 22.8503 0.136836 23.4203C0.156836 23.4903 0.186843 23.5503 0.206843 23.6203L0.186824 23.6003L8.26684 46.0303Z" fill="#E15F27" fill-opacity="0.25"/>
</svg>
