<svg width="29" height="20" viewBox="0 0 29 20" fill="none" xmlns="http://www.w3.org/2000/svg">
<path opacity="0.85" d="M14.9504 19.07L25.8604 14.14L25.8804 14.16L28.7704 12.85L18.6604 0.169998L18.5704 0L6.05037 5.67L5.99037 5.74C6.08037 5.51 6.13037 5.24 6.12037 4.97C6.11037 4.56 6.00037 4.14999 5.85037 3.75999C5.53037 2.97999 4.98037 2.3 4.35037 1.79C3.71037 1.28 2.95038 0.959996 2.20038 0.909996C1.47038 0.859996 0.680374 1.01 0.260374 1.65C-0.139626 2.29 -0.0296263 3.2 0.260374 3.96C0.560374 4.74 1.09037 5.42999 1.73037 5.93999C2.37037 6.45 3.12037 6.79999 3.88037 6.87C4.26037 6.91 4.64037 6.87999 4.98037 6.75999C5.14037 6.70999 5.29038 6.63 5.42038 6.52L15.9704 1.75L25.5304 13.74L15.5804 18.24L15.5204 18.31C15.6104 18.07 15.6604 17.81 15.6504 17.54C15.6404 17.13 15.5304 16.72 15.3804 16.33C15.0604 15.55 14.5104 14.87 13.8804 14.36C13.2404 13.85 12.4804 13.53 11.7304 13.48C11.0004 13.43 10.2104 13.59 9.79037 14.22C9.38037 14.86 9.50037 15.76 9.79037 16.53C10.0904 17.31 10.6204 18 11.2604 18.51C11.9004 19.02 12.6504 19.37 13.4104 19.44C13.7904 19.48 14.1704 19.45 14.5104 19.33C14.6704 19.28 14.8204 19.2 14.9504 19.09V19.07Z" fill="#CCCCCC"/>
</svg>
