<svg width="408" height="378" viewBox="0 0 408 378" fill="none" xmlns="http://www.w3.org/2000/svg">
<path d="M107.094 195.451L124.964 183.266C124.964 183.266 136.851 203.041 138.237 206.446C139.639 209.851 140.079 213.831 135.498 211C130.932 208.169 123.171 198.917 123.171 198.917L108.724 200.784L107.094 195.451Z" fill="#D3985E"/>
<path d="M76.3411 167.204L78.9989 210.446L106.539 194.507L109.963 201.954L71.7267 230.611L67.2754 202.897" fill="#1B1F2B"/>
<path d="M76.3424 167.205C76.3424 167.205 61.9611 145.358 53.8084 138.178C45.6721 130.999 35.3508 138.855 30.4755 168.907C25.5839 198.96 22.3391 212.95 22.3391 212.95C22.3391 212.95 9.034 247.104 7.14258 255.638C7.14258 255.638 23.6925 248.13 32.3832 246.756C41.074 245.381 57.6239 246.756 57.6239 246.756C57.6239 246.756 71.9236 216.375 74.6792 206.467C77.4348 196.56 76.3587 167.205 76.3587 167.205H76.3424Z" fill="#292E3D"/>
<path d="M107.189 94.894L104.058 116.823L108.754 131.572L101.204 128.29L97.5521 143.367L73.3387 130.013L66.0502 153.521L58.7617 144.68L83.7578 78.832L107.189 94.894Z" fill="#ECB579"/>
<path d="M73.3418 106.691L82.1956 101.132L86.1089 84.4338L108.757 95.5725C108.757 95.5725 125.682 101.132 114.741 93.275C123.334 92.6186 113.437 88.0441 113.437 88.0441C113.437 88.0441 117.594 86.7312 108.757 82.8132C99.9032 78.8746 98.8596 78.8747 98.8596 78.8747C98.8596 78.8747 109.018 80.1875 106.931 77.5618C104.844 74.9361 80.1085 72.9668 80.1085 72.9668L73.3418 106.711V106.691Z" fill="#292E3D"/>
<path d="M78.2973 104.065C78.2973 104.065 78.5582 96.2087 73.3568 96.8651C68.1554 97.5216 72.3132 113.891 75.8352 111.922C79.3571 109.953 78.3136 104.065 78.3136 104.065H78.2973Z" fill="#ECB579"/>
<path d="M63.443 150.343C63.2474 149.851 65.3671 145.83 64.7964 145.358C64.2257 144.886 57.7525 135.717 57.7525 135.717L56.0078 140.312L61.5679 155.184L64.8942 192.354L68.302 155.615L70.9109 150.158L68.0248 147.225L66.0682 153.522L63.4593 150.363L63.443 150.343Z" fill="white"/>
<path d="M52.2091 147.04C52.4048 147.758 60.59 200.99 60.59 200.99L111.088 195.677L112.229 205.298L53.7255 219.452L36.1973 162.138" fill="#292E3D"/>
<path d="M112.245 205.297L97.652 209.092L83.0425 212.723C73.2919 215.123 63.5739 217.625 53.807 219.923L53.4972 220.005L53.3831 219.636L44.7249 190.938C41.8063 181.378 39.0018 171.778 36.1973 162.178C39.2464 171.675 42.2628 181.173 45.1978 190.712L54.0842 219.308L53.6603 219.02C63.3945 216.6 73.1777 214.384 82.9283 212.066L97.5705 208.62L112.229 205.338L112.245 205.297Z" fill="#1B1F2B"/>
<path d="M52.2123 147.04C53.7287 155.984 55.2451 164.928 56.68 173.913L60.9683 200.888L60.5443 200.498L85.8013 197.934C94.2311 197.134 102.645 196.375 111.075 195.698C102.677 196.785 94.2637 197.79 85.8502 198.754L60.6095 201.482L60.2508 201.524L60.1856 201.093L56.093 174.118C54.7396 165.112 53.4515 156.086 52.1797 147.061L52.2123 147.04Z" fill="#1B1F2B"/>
<path d="M58.8943 246.982L113.452 245.73L131.795 356.585L125.518 363.785L97.5705 270.223L49.959 270.018L58.8943 246.982Z" fill="#0F1219"/>
<path d="M9.21251 278.919H49.5519C54.6391 278.919 58.7644 284.109 58.7644 290.509V306.243H0V290.509C0 284.109 4.12524 278.919 9.21251 278.919Z" fill="#0F1219"/>
<path d="M7.12396 255.657C7.12396 255.657 0.177895 284.909 15.244 284.909C30.3101 284.909 84.2318 275.084 84.4275 274.837C84.6232 274.591 70.8941 351.557 70.8941 351.557L78.3293 354.204L112.261 255.657L57.6216 246.775C57.6216 246.775 30.6689 241.257 7.14027 255.657H7.12396Z" fill="#1B1F2B"/>
<path d="M78.3321 354.205L111.106 377.98L64.5215 366.103L70.8969 351.559L78.3321 354.205Z" fill="#0F1219"/>
<path d="M125.518 363.783L124.246 377.978H170.358L131.795 356.583L125.518 363.783Z" fill="#0F1219"/>
<path d="M111.367 197.893C111.367 197.893 129.597 188.868 131.798 189.586C133.999 190.324 143.277 209.278 143.277 209.278C143.277 209.278 146.179 215.843 143.277 214.632C140.374 213.422 136.314 207.822 136.314 207.822L139.217 215.843C139.217 215.843 135.157 215.843 132.841 211.72C130.526 207.596 129.368 203.699 129.368 203.699C129.368 203.699 125.031 212.95 112.117 204.191L111.367 197.893Z" fill="#ECB579"/>
<path d="M127.963 289.813V217.872H167.634V195.677H390.25V294.449H157.59V289.813H127.963Z" fill="#0F1219"/>
<path d="M180.385 294.449H170.357V377.98H180.385V294.449Z" fill="#0F1219"/>
<path d="M370.393 294.449H360.365V377.98H370.393V294.449Z" fill="#0F1219"/>
<path d="M167.635 215.781H133.035V217.874H167.635V215.781Z" fill="white"/>
<path d="M167.637 195.677L242.837 0H296.856C296.856 0 280.649 52.8424 298.063 65.4377C315.461 78.0329 456.942 92.2487 390.253 195.677H167.637Z" fill="#292E3D"/>
<path d="M291.982 195.677L260.578 34.5645H262.372L295.553 195.677" fill="#0F1219"/>
<path d="M10.793 306.243H3.91211V377.999H10.793V306.243Z" fill="#0F1219"/>
<path d="M53.1738 306.243H46.293V377.999H53.1738V306.243Z" fill="#0F1219"/>
<path d="M100.947 110.671C100.752 111.676 100.263 112.394 99.8713 112.271C99.48 112.148 99.3169 111.224 99.5126 110.219C99.7083 109.214 100.197 108.496 100.589 108.619C100.98 108.742 101.143 109.665 100.947 110.671Z" fill="#0F1219"/>
<path d="M94.6554 133.44C93.6444 133.255 92.6987 132.701 91.8345 131.963C90.9703 131.224 90.2366 130.281 89.6659 129.173C89.1279 128.065 88.655 126.855 88.4756 125.563C88.3452 124.927 88.3289 124.291 88.2637 123.655C88.2637 123.019 88.28 122.362 88.3452 121.747C88.6224 122.978 88.8344 124.188 89.1931 125.316C89.5192 126.465 89.9757 127.511 90.4812 128.516C90.9867 129.522 91.6226 130.404 92.3074 131.245C93.0085 132.065 93.7912 132.804 94.6554 133.44Z" fill="#CC8A4A"/>
<path d="M73.3457 100.455C73.9164 100.107 74.699 100.086 75.3186 100.558C75.9382 101.03 76.3785 101.789 76.6231 102.589C77.0959 104.209 77.1122 105.891 76.9655 107.512L76.884 108.456L76.297 107.902C75.8893 107.512 75.4328 107.04 75.0415 106.938C74.8947 106.897 74.7643 106.938 74.699 107.307C74.6501 107.615 74.6501 107.984 74.6664 108.333C74.5197 108.025 74.4219 107.676 74.4056 107.286C74.4056 107.102 74.4056 106.856 74.5197 106.63C74.6338 106.384 74.8784 106.281 75.0578 106.261C75.4328 106.261 75.7263 106.384 76.0035 106.527C76.297 106.671 76.5416 106.835 76.8024 107.04L76.1502 107.45C76.1339 105.912 76.1176 104.373 75.8078 102.958C75.6285 102.281 75.4165 101.625 75.0088 101.153C74.6012 100.702 74.0142 100.414 73.3783 100.455H73.3457Z" fill="#CC8A4A"/>
<path d="M103.981 103.592C103.981 103.592 101.747 99.4894 97.3613 101.746" stroke="#292E3D" stroke-width="0.99" stroke-miterlimit="10"/>
</svg>
