<svg width="274" height="371" viewBox="0 0 274 371" fill="none" xmlns="http://www.w3.org/2000/svg">
<path d="M84.2914 233.288C84.2914 233.288 83.4125 241.292 82.2069 243.386C81.0013 245.481 75.8972 248.072 73.993 252.437C72.0888 256.802 54.5567 293.534 52.9906 297.448C51.4357 301.361 48.2245 304.205 47.278 305.649C46.3315 307.105 47.6611 310.687 47.6611 310.687C47.6611 310.687 41.7119 318.966 39.2781 326.187C36.8444 333.408 19.4701 368.673 15.7744 374.351C12.0786 380.028 0 395.55 0 395.55C0 395.55 10.704 410.873 19.0419 414.676C27.3798 418.468 45.4301 417.653 45.4301 417.653C45.4301 417.653 63.6044 382.508 66.7931 372.146C69.9818 361.783 71.6268 356.845 75.0296 349.249C78.4323 341.643 82.9956 336.88 85.1477 331.699C87.2998 326.518 87.4575 325.371 88.28 323.299C89.1026 321.215 95.6489 316.74 101.621 306.906C107.592 297.073 130.307 273.89 130.307 273.89L141.654 277.494C141.654 277.494 143.693 286.843 148.256 291.153C152.831 295.452 174.228 318.448 177.743 324.258C181.259 330.067 187.411 345.666 187.726 348.852C188.042 352.049 185.608 354 190.025 359.457C194.441 364.914 205.45 384.393 207.399 389.916C209.348 395.439 213.089 413.221 213.089 413.221C213.089 413.221 221.213 420.574 229.956 419.835C238.7 419.097 251.86 403.299 251.86 403.299C251.86 403.299 234.114 364.087 230.982 351.222C227.849 338.357 227.759 336.836 224.954 330.85C222.148 324.864 207.455 292.619 206.216 287.703C204.976 282.786 202.655 285.343 203.095 279.225C203.534 273.107 201.112 269.094 199.309 266.36C197.506 263.626 196.56 261.807 195.422 258.82C194.284 255.832 192.549 253.639 190.712 248.755C188.875 243.871 184.323 231.304 183.816 229.584C183.309 227.876 125.722 229 115.187 228.107C104.64 227.214 84.2688 233.288 84.2688 233.288H84.2914Z" fill="#221D31"/>
<path d="M100.393 255.656C100.28 255.766 100.28 255.943 100.393 256.042C107.908 263.384 117.97 268.565 127.626 272.589C127.773 272.644 127.931 272.589 127.998 272.445C128.055 272.302 127.998 272.148 127.852 272.093C118.218 268.08 108.224 262.91 100.799 255.656C100.686 255.546 100.506 255.546 100.404 255.656H100.393Z" fill="white"/>
<path d="M100.832 266.846C100.697 266.78 100.528 266.846 100.46 266.979C100.393 267.111 100.46 267.276 100.595 267.342C109.305 271.388 118.015 275.687 128.077 275.269C128.234 275.269 128.358 275.136 128.347 274.982C128.347 274.817 128.212 274.706 128.054 274.706C118.172 275.114 109.553 270.892 100.843 266.835L100.832 266.846Z" fill="white"/>
<path d="M108.776 275.874C108.618 275.863 108.483 275.973 108.471 276.117C108.46 276.271 108.573 276.403 108.719 276.414C111.209 276.657 113.767 277.285 116.347 277.054C116.505 277.043 116.618 276.911 116.607 276.756C116.595 276.602 116.46 276.481 116.302 276.503C113.846 276.723 111.322 276.106 108.787 275.863L108.776 275.874Z" fill="white"/>
<path d="M131.536 245.228C131.378 245.228 131.265 245.36 131.265 245.503C131.265 248.27 129.936 254.179 129.71 259.68C129.598 262.425 129.755 265.082 130.522 267.242C131.288 269.392 132.685 271.057 134.983 271.685C135.13 271.729 135.288 271.641 135.333 271.498C135.378 271.354 135.288 271.2 135.141 271.156C133.023 270.572 131.784 269.094 131.062 267.055C130.341 265.015 130.172 262.414 130.285 259.702C130.51 254.278 131.84 248.447 131.84 245.514C131.84 245.36 131.716 245.239 131.558 245.239L131.536 245.228Z" fill="white"/>
<path d="M168.932 259.062C168.865 259.04 168.786 259.04 168.718 259.073C159.693 263.273 149.496 266.492 143.006 274.474C142.905 274.595 142.927 274.76 143.04 274.86C143.164 274.959 143.344 274.937 143.434 274.815C149.789 266.999 159.885 263.792 168.955 259.569C169.09 259.503 169.158 259.338 169.09 259.206C169.056 259.139 169 259.084 168.921 259.062H168.932Z" fill="white"/>
<path d="M156.955 269.976C154.871 271.354 156.302 270.395 152.64 272.897C152.516 272.986 152.482 273.151 152.572 273.283C152.663 273.405 152.832 273.438 152.967 273.36C156.629 270.858 155.186 271.817 157.271 270.439C157.395 270.351 157.429 270.186 157.35 270.053C157.26 269.932 157.091 269.899 156.955 269.976Z" fill="white"/>
<path d="M150.917 281.583C150.849 281.605 150.793 281.661 150.759 281.716C150.691 281.848 150.759 282.013 150.894 282.079C155.457 284.152 160.573 287.514 165.767 290.568C170.961 293.622 176.235 296.377 181.192 297.204C181.35 297.226 181.485 297.127 181.519 296.973C181.541 296.818 181.44 296.675 181.282 296.653C176.46 295.848 171.232 293.136 166.049 290.094C160.866 287.051 155.762 283.678 151.131 281.583C151.063 281.55 150.984 281.55 150.917 281.583Z" fill="white"/>
<path d="M113.329 282.62C103.943 290.833 91.9321 293.523 79.6732 294.196C79.5267 294.207 79.4141 294.328 79.4141 294.482C79.4141 294.637 79.5493 294.747 79.707 294.747C92.0336 294.074 104.18 291.373 113.701 283.039C113.813 282.94 113.825 282.764 113.723 282.654C113.622 282.543 113.442 282.532 113.329 282.631V282.62Z" fill="white"/>
<path d="M244.579 188.046C239.441 188.09 235.959 191.199 234.404 192.885C234.168 193.139 233.942 193.393 233.706 193.635C232.387 193.811 231.216 193.811 230.37 193.47C227.261 192.202 224.185 199.709 224.241 203.942C224.297 208.176 227.666 212.188 227.666 212.188C227.666 212.188 232.703 213.346 234.021 213.489C235.351 213.632 250.595 209.686 252.364 209.708C254.133 209.73 255.925 210.061 257.592 209.476C259.26 208.881 260.409 207.812 262.009 207.845C263.621 207.867 265.209 207.757 266.528 207.062C267.846 206.368 267.282 205.684 269.074 205.309C270.865 204.935 271.992 203.986 272.06 203.049C272.127 202.101 271.97 197.934 271.023 194.804C270.077 191.662 269.942 190.372 267.609 189.688C265.277 189.005 258.438 190.581 255.091 191.419C253.04 191.926 250.911 191.926 248.725 191.805C248.894 190.802 248.894 189.854 248.646 189.325C248.162 188.277 244.669 188.134 244.669 188.134L245.041 188.057C244.872 188.057 244.703 188.057 244.534 188.057L244.579 188.046Z" fill="#DE897C"/>
<path d="M200.041 155.526C200.041 155.526 201.315 163.155 201.315 167.498C201.315 171.83 199.861 176.438 199.861 176.438C199.861 176.438 205.709 178.687 208.503 180.451C211.297 182.215 219.917 188.829 222.768 190.207C225.618 191.585 230.384 193.459 230.384 193.459L227.691 212.178C227.691 212.178 200.864 209.003 191.906 207.118C182.949 205.233 180.414 204.693 177.664 201.54C174.915 198.376 172.785 192.247 172.177 190.946C171.569 189.645 168.47 170.1 168.414 164.092C168.357 158.084 168.909 152.627 174.171 152.098C179.422 151.568 184.999 148.548 189.518 149.65C194.047 150.753 200.041 155.526 200.041 155.526Z" fill="#DE897C"/>
<path d="M173.765 102.687C177.934 103.25 188.188 106.127 190.689 107.185C193.179 108.243 197.021 111.694 198.531 113.193C200.041 114.681 201.156 117.052 201.427 118.562C201.686 120.072 201.979 122.927 201.979 126.554C201.979 130.181 202.182 131.559 203.139 133.852C204.097 136.145 205.81 138.394 206.565 141.095C207.32 143.785 207.804 153.067 208.255 154.257C208.705 155.448 201.314 157.829 199.376 158.579C197.427 159.339 191.049 158.976 187.095 158.502C183.14 158.028 175.523 156.539 175.523 156.539C175.523 156.539 159.343 119.885 160.718 115.111C162.092 110.338 163.658 107.119 164.526 105.741C165.394 104.363 171.072 102.004 173.788 102.698L173.765 102.687Z" fill="#5D6CAF"/>
<path d="M84.4594 105.565C84.4594 105.565 94.3071 103.548 98.2958 103.801C102.284 104.055 152.019 98.157 157.078 98.5318C162.148 98.9176 172.954 102.258 174.542 103.096C176.131 103.934 179.432 138.813 179.793 149.694C180.153 160.563 177.235 173.142 177.494 183.945C177.753 194.749 177.404 202.928 180.244 207.636C183.083 212.343 187.15 220.622 188.131 225.108C189.111 229.595 188.852 232.032 188.852 232.032C188.852 232.032 183.297 234.258 178.689 237.025C174.08 239.792 165.427 247.311 160.796 248.832C156.165 250.353 142.881 249.284 141.315 248.171C139.749 247.057 136.729 242.89 135.591 242.714C134.453 242.537 130.363 243.022 127.771 243.166C125.18 243.309 114.498 246.627 112.121 245.547C109.743 244.467 103.997 238.944 101.394 238.492C98.7915 238.04 88.8424 237.709 84.865 236.199C80.8877 234.688 73.1582 229.077 73.1582 229.077C73.1582 229.077 88.3129 213.996 90.1382 209.554C91.9635 205.111 95.4339 190.703 95.231 187.241C95.017 183.78 94.5775 179.921 93.1466 177.165C91.7269 174.409 90.1156 171.742 90.1044 168.931C90.0931 166.119 90.9607 166.373 89.203 164.466C87.4453 162.57 83.727 160.652 82.7468 159.34C81.7665 158.028 82.4763 157.951 79.806 151.524C77.1469 145.097 77.1581 124.394 77.4736 118.606C77.8004 112.819 80.8313 106.017 84.4481 105.554L84.4594 105.565Z" fill="#5D6CAF"/>
<path d="M101.406 104.198C99.0394 103.294 97.124 103.239 96.493 103.338C95.862 103.437 96.831 104.418 97.2366 104.925C97.6535 105.433 106.205 116.115 108.977 117.548C111.749 118.981 128.278 121.042 132.684 121.064C137.078 121.097 150.227 114.152 152.853 112.014C155.478 109.886 158.126 97.8039 158.126 97.8039L154.182 96.8779L101.406 104.187V104.198Z" fill="#344388"/>
<path d="M136.955 69.0654C136.955 69.0654 143.423 88.6219 144.425 90.6503C145.417 92.6787 154.498 97.1544 154.498 97.1544C154.498 97.1544 153.203 103.074 150.972 107.958C148.752 112.852 137.349 117.163 134.183 117.56C131.028 117.957 118.905 117.328 113.361 115.785C107.818 114.241 100.584 104.133 100.584 104.133C100.584 104.133 107.942 100.263 109.068 99.0395C110.195 97.8158 109.102 94.5197 109.102 94.5197L136.944 69.0654H136.955Z" fill="#DE897C"/>
<path d="M270.551 204.846C272.523 204.372 273.774 203.711 273.988 201.782C274.202 199.852 271.16 188.354 270.393 186.943C269.627 185.532 264.658 185.003 261.233 184.397C257.808 183.779 255.892 185.4 255.475 186.227C255.047 187.065 254.89 188.068 257.661 189.369C260.433 190.669 264.546 194.318 264.748 196.81C264.963 199.29 265.763 202.972 267.858 204.273C269.954 205.574 270.551 204.846 270.551 204.846Z" fill="#DE897C"/>
<path d="M269.358 199.412C269.358 199.412 267.758 189.92 266.53 188.288C265.313 186.657 255.612 186.084 254.079 186.172C252.558 186.249 250.305 188.31 250.226 189.832C250.147 191.342 253.651 192.246 255.871 193.139C258.102 194.032 258.496 197.251 258.981 199.147C259.465 201.043 260.141 202.664 262.936 203.16C265.73 203.645 267.578 203.237 268.333 202.024C269.088 200.812 269.347 199.434 269.347 199.434L269.358 199.412Z" fill="#DE897C"/>
<path d="M262.215 201.605C262.215 201.605 259.939 191.419 258.632 190.372C257.314 189.325 252.626 189.567 250.046 189.391C247.477 189.214 246.057 190.041 245.055 191.353C244.041 192.676 244.818 194.462 244.818 194.462C244.818 194.462 247.398 195.311 248.705 197.427C250.012 199.533 251.421 204.769 251.421 204.769C251.421 204.769 254.147 205.971 256.818 205.695C259.488 205.42 262.215 201.616 262.215 201.616V201.605Z" fill="#DE897C"/>
<path d="M254.982 204.042C254.982 204.042 254.103 196.766 252.863 195.377C251.624 193.988 247.962 192.467 246.576 192.654C245.19 192.853 243.286 194.209 242.745 194.595C242.204 194.98 241.956 196.744 242.272 198.155C242.587 199.566 242.914 202.256 243.354 203.039C243.793 203.822 246.542 203.7 246.542 203.7C246.542 203.7 247.151 205.288 247.601 206.302C248.052 207.316 250.384 208.386 252.142 207.768C253.9 207.151 254.79 205.63 254.97 204.031L254.982 204.042Z" fill="#DE897C"/>
<path d="M257.595 184.43C256.727 182.688 253.876 180.649 252.502 180.803C251.127 180.958 249.967 180.825 248.558 182.699C247.15 184.573 245.347 187.043 244.074 187.914C242.801 188.785 243.364 190.063 244.288 191.188C245.212 192.312 247.826 192.841 248.738 192.125C249.651 191.408 253.099 188.674 254.395 187.693C255.679 186.712 258.102 186.04 257.617 184.43H257.595Z" fill="#DE897C"/>
<path d="M70.0591 153.597C67.8845 153.078 68.831 153.85 67.5352 152.505C66.2395 151.149 63.6367 144.755 63.6367 144.755C63.6367 144.755 64.5043 142.033 69.1352 142.242C73.7661 142.462 75.5013 141.911 76.797 144.447C78.0815 146.971 76.121 150.609 75.1745 151.899C74.2281 153.178 70.0591 153.597 70.0591 153.597Z" fill="#344388"/>
<path d="M62.0025 106.789C59.1067 107.836 58.7687 109.71 55.6927 110.702C52.6167 111.695 46.8929 112.268 45.9577 112.323C45.0225 112.367 38.7578 146.85 38.7578 146.85C38.7578 146.85 44.3352 149.143 49.5971 149.242C54.8589 149.341 64.6052 147.137 67.9291 146.993C71.253 146.85 76.7515 147.787 76.7515 147.787C76.7515 147.787 84.0753 131.394 83.9513 124.24C83.8274 117.085 86.6104 117.791 81.5965 113.536C76.5825 109.28 75.6923 106.8 72.053 105.565C68.4136 104.331 62.0137 106.811 62.0137 106.811L62.0025 106.789Z" fill="#DE897C"/>
<path d="M90.6803 105.201C90.6803 105.201 87.6043 103.316 84.5959 102.004C81.5875 100.692 79.0861 100.968 78.7594 101.607C78.4326 102.247 75.627 102.952 73.5426 102.941C71.4581 102.941 69.3736 103.448 68.1342 103.812C66.8948 104.176 64.1568 104.727 62.8047 105.3C61.4527 105.874 60.8555 107.031 60.8555 107.031C60.8555 107.031 67.3342 106.59 69.2497 107.703C71.1651 108.817 79.3791 120.535 79.7171 121.803C80.0551 123.071 77.4298 134.933 75.8298 138.912C74.2299 142.892 73.0693 147.985 72.5623 150.609C72.0553 153.232 69.3962 153.343 68.4159 153.067C67.4469 152.791 70.1849 154.687 72.0327 154.103C73.8806 153.519 74.489 151.887 76.3932 152.582C78.2974 153.287 77.9368 155.283 78.7932 155.9C79.6382 156.517 82.579 156.297 82.579 156.297C82.579 156.297 85.5987 154.07 87.0634 152.813C88.5282 151.568 90.9619 141.911 92.5845 134.624C94.2182 127.326 95.8745 121.781 95.0295 116.842C94.1844 111.904 90.669 105.201 90.669 105.201H90.6803Z" fill="#5D6CAF"/>
<path d="M53.3278 136.035C56.7756 127.954 58.6235 120.987 57.4291 114.186C56.2348 107.395 55.4235 100.141 56.0207 96.0842C56.6179 92.0384 60.629 81.1689 60.629 81.1689C60.629 81.1689 58.5446 78.5782 52.6855 75.9435C46.8265 73.3088 41.3505 76.5388 41.3505 76.5388C41.3505 76.5388 30.3986 99.4135 27.886 107.318C25.3734 115.222 23.041 119.124 23.041 121.549C23.041 123.975 25.948 133.4 26.0381 136.74C26.1396 140.081 25.272 141.547 25.8691 143.068C26.4663 144.589 27.255 144.942 29.0578 145.956C30.8606 146.971 31.638 146.309 35.2774 147.015C38.9168 147.72 44.911 148.646 46.9166 148.668C48.9222 148.69 49.6546 144.876 49.587 143.686C49.5194 142.495 53.3165 136.024 53.3165 136.024L53.3278 136.035Z" fill="#DE897C"/>
<path d="M41.5875 77.3881C41.5875 77.3881 39.5932 72.1297 39.4467 70.0683C39.3002 68.0068 40.2579 58.3057 40.8326 56.3986C41.4072 54.4915 47.8071 46.0912 48.9 45.9148C49.993 45.7385 58.2069 50.589 61.7223 53.1686C65.2378 55.7482 66.6236 58.5703 67.1419 60.3231C67.6602 62.0759 66.4772 63.8838 66.3194 67.2902C66.1729 70.6856 66.511 74.2353 65.9476 76.0763C65.3842 77.9283 60.8998 81.1693 60.8998 81.1693C60.8998 81.1693 54.2746 81.489 50.1394 80.6292C46.0156 79.7693 41.5875 77.3881 41.5875 77.3881Z" fill="#DE897C"/>
<path d="M33.34 50.4343L64.6183 78.9973C64.6183 78.9973 67.3338 79.5705 71.2774 75.183C75.2209 70.8065 76.2801 65.956 76.2801 65.956L39.2442 44.5255C39.2442 44.5255 36.4048 43.3349 34.5231 45.683C32.6415 48.0311 32.6302 49.6957 33.34 50.4343Z" fill="#C0772A"/>
<path d="M73.8575 85.6446C80.3728 85.6446 85.6545 80.4771 85.6545 74.1026C85.6545 67.7281 80.3728 62.5605 73.8575 62.5605C67.3422 62.5605 62.0605 67.7281 62.0605 74.1026C62.0605 80.4771 67.3422 85.6446 73.8575 85.6446Z" fill="#221D31"/>
<path d="M69.4171 51.8456C71.6368 51.7463 73.5297 53.6314 74.1945 54.7779C74.848 55.9244 71.5805 65.5593 71.3439 65.9121C71.1073 66.2648 65.9806 70.2224 64.437 70.2004C62.8821 70.1894 61.3159 68.2712 62.6905 65.6696C64.0539 63.0679 67.5355 61.4254 67.896 58.2174C68.2566 55.0094 69.4284 51.8456 69.4284 51.8456H69.4171Z" fill="#DE897C"/>
<path d="M61.9347 80.7715C61.9347 80.7715 69.4275 77.6958 71.2641 76.0533C73.0894 74.4107 75.2753 69.7586 75.8161 68.4798C76.3569 67.201 75.9513 63.3316 75.6471 61.678C75.3542 60.0245 74.8133 56.7283 74.1598 56.0999C73.5063 55.4716 70.3627 57.985 70.2613 60.2229C70.1599 62.4607 70.9824 64.5332 70.3289 65.4372C69.6754 66.3412 67.0276 66.9916 65.3374 66.9805C63.6473 66.9805 60.2221 67.5207 58.577 71.2248C56.932 74.9288 56.8756 79.2061 57.7996 80.5951C58.7235 81.9841 61.946 80.7715 61.946 80.7715H61.9347Z" fill="#DE897C"/>
<path d="M64.211 49.0344C65.9237 48.3399 69.0447 49.5415 69.8335 50.8754C70.6222 52.2092 69.2814 60.0803 68.6729 61.2489C68.0532 62.4174 64.1885 66.0443 61.6984 66.2978C59.2083 66.5514 57.89 65.0411 58.228 63.7513C58.5661 62.4725 61.2139 58.8236 62.1942 56.1999C63.1744 53.5762 64.2223 49.0233 64.2223 49.0233L64.211 49.0344Z" fill="#DE897C"/>
<path d="M57.5869 46.9723C57.5869 46.9723 59.277 46.4322 61.215 46.9503C63.1642 47.4684 64.3248 48.6259 64.6177 49.3976C64.9107 50.1693 64.8318 55.8466 64.9445 56.497C65.0571 57.1474 59.5136 62.3287 58.4319 63.1444C57.3502 63.9602 53.5193 62.7586 53.463 61.1822C53.3954 59.6058 55.0179 58.1175 55.4799 55.8356C55.9418 53.5646 56.7756 47.1377 57.5981 46.9723H57.5869Z" fill="#DE897C"/>
<path d="M48.4268 45.9363C48.4268 45.9363 50.1957 45.1095 51.2661 44.9883C52.3366 44.867 55.5816 46.0355 56.4942 46.5206C57.4069 47.0056 57.8914 48.7254 58.1167 50.2797C58.3533 51.8341 58.6576 54.1822 58.466 55.3287C58.2745 56.4752 54.9055 59.6611 53.4407 60.1462C51.976 60.6312 51.007 59.9036 50.5338 58.5256C50.0605 57.1476 50.9056 55.5602 51.4802 54.4468C52.0549 53.3334 52.3253 52.5397 52.3253 52.5397L52.0887 50.0372C52.0887 50.0372 51.007 50.5113 49.4408 49.2655C47.8747 48.0198 47.593 46.8954 48.438 45.9473L48.4268 45.9363Z" fill="#DE897C"/>
<path d="M39.0857 44.2941C40.3252 45.639 39.8745 48.1304 37.9027 49.6738C35.9309 51.2171 34.0492 51.4376 32.8323 49.8612C31.6155 48.2847 33.5535 45.628 35.4464 44.5697C37.3393 43.5003 38.1505 43.7098 39.0857 44.2941Z" fill="#7B450C"/>
<path d="M136.954 69.0647L109.112 94.519C109.112 94.519 110.205 97.8151 109.079 99.0388C108.763 99.3805 107.974 99.9207 106.994 100.527C108.188 101.21 109.912 101.993 112.211 102.633C117.338 104.055 121.856 102.434 125.518 100.373C129.18 98.3112 136.379 82.1171 138.194 79.7139C138.712 79.0194 139.061 77.6413 139.275 76.0098C137.979 72.1625 136.954 69.0537 136.954 69.0537V69.0647Z" fill="#B85748"/>
<path d="M94.8028 131.99C94.5211 131.956 94.2732 132.144 94.2394 132.419C93.7436 136.388 93.2141 141.261 91.6254 145.351C90.0479 149.44 87.4902 152.692 82.848 153.696C82.5776 153.751 82.3973 154.015 82.4537 154.28C82.51 154.545 82.7917 154.71 83.0621 154.655C88.0874 153.563 90.9155 149.948 92.5718 145.692C94.2169 141.437 94.7464 136.498 95.2422 132.53C95.276 132.254 95.0844 132.012 94.8028 131.979V131.99Z" fill="#242E5E"/>
<path d="M85.9695 105.586C85.8343 105.586 85.7103 105.63 85.6089 105.719C85.4061 105.906 85.3836 106.215 85.5751 106.413C91.0736 112.256 93.9693 118.958 94.8482 126.697C94.882 126.973 95.1411 127.16 95.4115 127.127C95.6819 127.094 95.8848 126.851 95.851 126.587C94.9496 118.672 91.9637 111.749 86.3187 105.741C86.2286 105.641 86.0934 105.586 85.9582 105.575L85.9695 105.586Z" fill="#242E5E"/>
<path d="M74.0026 104.76C73.7548 104.639 73.4506 104.727 73.3153 104.97C73.1914 105.212 73.2815 105.51 73.5182 105.631C83.5349 110.867 88.0531 118.893 89.3826 129.795C89.4164 130.071 89.6756 130.258 89.946 130.225C90.2277 130.192 90.4192 129.95 90.3854 129.674C89.0334 118.562 84.2785 110.129 73.9914 104.76H74.0026Z" fill="#242E5E"/>
<path d="M82.5336 124.217C82.2519 124.261 82.0716 124.515 82.1167 124.791C83.6603 133.522 79.559 141.723 75.2999 149.22C75.1647 149.462 75.2436 149.76 75.4915 149.892C75.7393 150.024 76.0436 149.936 76.1788 149.705C80.4491 142.175 84.7195 133.753 83.1082 124.625C83.0631 124.361 82.804 124.173 82.5223 124.217H82.5336Z" fill="#242E5E"/>
<path d="M97.3717 147.401C97.2477 147.445 97.1351 147.534 97.0787 147.655C94.6562 152.803 94.1041 154.391 93.5746 155.416C93.045 156.441 92.4816 157.025 89.9577 160.277C89.7887 160.498 89.8338 160.806 90.0591 160.972C90.2845 161.137 90.6 161.093 90.769 160.873C93.2816 157.632 93.9013 157.003 94.4872 155.868C95.0731 154.732 95.5914 153.2 98.0026 148.085C98.1153 147.842 98.0026 147.545 97.7548 147.434C97.6308 147.379 97.4956 147.379 97.3717 147.423V147.401Z" fill="#242E5E"/>
<path d="M179.172 115.85C178.913 115.938 178.767 116.214 178.857 116.479C183.42 129.145 183.837 141.878 179.353 154.445C179.262 154.699 179.398 154.985 179.657 155.084C179.916 155.173 180.209 155.04 180.299 154.776C184.851 141.999 184.423 129.002 179.803 116.159C179.713 115.905 179.42 115.773 179.161 115.861L179.172 115.85Z" fill="#242E5E"/>
<path d="M188.264 124.306C187.983 124.306 187.757 124.526 187.757 124.802C187.859 136.608 188.343 130.203 185.842 143.531C185.786 143.796 185.977 144.061 186.248 144.105C186.518 144.149 186.788 143.972 186.833 143.708C189.324 130.402 188.862 136.564 188.76 124.791C188.76 124.515 188.535 124.306 188.253 124.306H188.264Z" fill="#242E5E"/>
<path d="M178.137 132.541C177.866 132.607 177.697 132.872 177.765 133.136C178.576 136.565 179.387 139.993 180.199 143.422C180.255 143.686 180.537 143.851 180.807 143.796C181.078 143.741 181.247 143.466 181.19 143.201C180.379 139.773 179.568 136.333 178.756 132.905C178.689 132.64 178.418 132.475 178.148 132.541H178.137Z" fill="#242E5E"/>
<path d="M169.09 150.488C168.808 150.477 168.571 150.686 168.56 150.962C167.118 178.764 145.631 199.004 122.105 212.475C121.868 212.608 121.778 212.916 121.924 213.148C122.06 213.379 122.375 213.467 122.612 213.335C146.285 199.776 168.098 179.293 169.563 151.017C169.574 150.741 169.36 150.51 169.079 150.499L169.09 150.488Z" fill="#242E5E"/>
<path d="M155.984 173.815C155.86 173.859 155.759 173.958 155.702 174.079C151.646 183.317 143.759 189.733 134.497 193.955C125.247 198.189 114.633 200.217 105.258 200.702C104.977 200.713 104.763 200.945 104.774 201.22C104.785 201.496 105.022 201.705 105.303 201.694C114.791 201.198 125.517 199.148 134.925 194.848C144.334 190.549 152.446 183.979 156.626 174.465C156.739 174.212 156.626 173.925 156.356 173.815C156.232 173.76 156.097 173.76 155.973 173.815H155.984Z" fill="#242E5E"/>
<path d="M157.969 220.379C157.755 220.203 157.439 220.225 157.259 220.434C146.814 232.451 152.132 225.979 141.327 240.123C141.158 240.344 141.214 240.652 141.439 240.818C141.665 240.983 141.98 240.939 142.149 240.718C152.955 226.553 147.58 233.101 158.025 221.074C158.205 220.864 158.183 220.556 157.98 220.379H157.969Z" fill="#242E5E"/>
<path d="M92.2229 232.395C91.9412 232.384 91.7046 232.593 91.6934 232.869C91.6934 233.144 91.9074 233.376 92.1778 233.376C100.11 233.718 107.051 235.294 113.665 239.825C113.89 239.979 114.206 239.924 114.375 239.704C114.532 239.483 114.476 239.164 114.251 239.009C107.456 234.357 100.268 232.726 92.2229 232.384V232.395Z" fill="#242E5E"/>
<path d="M56.5827 110.569C56.3123 110.613 56.1207 110.856 56.1545 111.132C57.3827 118.749 58.3968 126.289 55.8053 133.653C55.7151 133.907 55.8503 134.194 56.1095 134.293C56.3686 134.381 56.6616 134.249 56.7517 133.995C59.4446 126.356 58.3742 118.639 57.1461 110.999C57.101 110.735 56.8419 110.547 56.5714 110.591L56.5827 110.569Z" fill="#8D4237"/>
<path d="M57.3965 46.9954C57.1148 46.9954 56.9008 47.2269 56.9008 47.5025C56.9233 48.6931 57.5092 49.7293 58.0162 50.6994C58.5233 51.6696 58.9289 52.5735 58.8613 53.4113C58.7824 54.4255 57.9599 56.0791 56.8332 57.402C55.7064 58.7249 54.2755 59.706 53.2614 59.728C52.9797 59.728 52.7656 59.9595 52.7656 60.2351C52.7656 60.5107 53.0022 60.7312 53.2839 60.7202C54.8614 60.6761 56.3937 59.4745 57.6219 58.0304C58.85 56.5862 59.7739 54.8885 59.8866 53.4775C59.9767 52.2869 59.4359 51.2286 58.9289 50.2475C58.4219 49.2663 57.9374 48.3403 57.9261 47.4694C57.9261 47.1938 57.6782 46.9844 57.4078 46.9844L57.3965 46.9954Z" fill="#8D4237"/>
<path d="M64.5056 49.2107C64.2239 49.1886 63.9873 49.387 63.9535 49.6626C63.8746 50.6217 64.1563 51.5147 64.4155 52.3525C64.6746 53.1903 64.9 53.984 64.8437 54.7447C64.8211 54.9982 64.5282 55.7148 64.0324 56.5085C63.5366 57.3022 62.8606 58.2172 62.1282 59.0881C61.3958 59.959 60.6071 60.7968 59.8973 61.4362C59.1874 62.0756 58.5226 62.4945 58.2297 62.5716C57.9593 62.6378 57.8015 62.9134 57.8691 63.178C57.9367 63.4425 58.2184 63.5969 58.4888 63.5307C59.1536 63.3544 59.8184 62.8472 60.5733 62.1748C61.3282 61.4913 62.1395 60.6425 62.9057 59.7385C63.6606 58.8345 64.3591 57.8865 64.8887 57.0377C65.4183 56.1888 65.7901 55.4833 65.8352 54.8329C65.914 53.8407 65.6324 52.9257 65.3732 52.0769C65.1141 51.2391 64.8774 50.4564 64.9451 49.7508C64.9676 49.4863 64.7648 49.2437 64.4831 49.2217L64.5056 49.2107Z" fill="#8D4237"/>
<path d="M66.5228 61.248C66.3876 61.2701 66.2637 61.3473 66.1848 61.4465C65.013 63.067 63.9877 64.8529 62.2638 65.4592C62.0046 65.5584 61.8694 65.834 61.9596 66.0986C62.061 66.3521 62.3426 66.4844 62.6131 66.3962C64.7877 65.6245 65.8919 63.5741 67.0186 62.0308C67.1763 61.8103 67.12 61.5016 66.8947 61.3362C66.782 61.2591 66.6468 61.237 66.5228 61.2591V61.248Z" fill="#8D4237"/>
<path d="M71.3556 66.1219C68.2458 65.5266 65.1134 65.7361 62.1389 67.103C61.891 67.2243 61.7783 67.5109 61.9023 67.7645C62.0262 68.007 62.3191 68.1172 62.5783 67.996C65.3388 66.7172 68.212 66.5298 71.1641 67.092C71.4345 67.1471 71.7049 66.9707 71.7612 66.7062C71.8176 66.4416 71.6373 66.177 71.3669 66.1219H71.3556Z" fill="#8D4237"/>
<path d="M71.7832 64.049C70.6903 64.3246 69.6875 64.7876 68.8312 65.6365C68.6396 65.8349 68.6396 66.1436 68.8312 66.331C69.034 66.5184 69.3495 66.5184 69.541 66.331C70.2509 65.6365 71.0396 65.2617 72.0311 65.0081C72.3015 64.942 72.4593 64.6664 72.3917 64.4018C72.3241 64.1372 72.0424 63.9719 71.772 64.038L71.7832 64.049Z" fill="#8D4237"/>
<path d="M72.3478 56.4644C72.2238 56.4313 72.0773 56.4423 71.9647 56.5084C70.5562 57.247 70.0717 58.7573 69.914 60.2455C69.7563 61.7338 69.9027 63.2992 69.8802 64.3354C69.8802 64.611 70.0943 64.8315 70.376 64.8425C70.6577 64.8425 70.883 64.6331 70.8943 64.3575C70.9168 63.222 70.7816 61.7007 70.9168 60.3558C71.0633 58.9999 71.4576 57.9085 72.4379 57.3904C72.6858 57.2581 72.7759 56.9604 72.6407 56.7179C72.5731 56.6077 72.4717 56.5195 72.3365 56.4864L72.3478 56.4644Z" fill="#8D4237"/>
<path d="M199.624 175.964C196.491 175.964 194.069 176.923 191.984 178.4C189.9 179.866 188.142 181.829 186.272 183.802C186.08 184 186.091 184.309 186.294 184.496C186.497 184.684 186.824 184.673 187.015 184.474C188.897 182.479 190.621 180.583 192.57 179.205C194.531 177.827 196.705 176.956 199.624 176.956C199.905 176.956 200.131 176.736 200.131 176.46C200.131 176.184 199.905 175.964 199.624 175.964Z" fill="#8D4237"/>
<path d="M250.215 192.996C248.198 191.97 245.719 191.871 243.499 193.315C243.274 193.47 243.218 193.778 243.364 193.999C243.522 194.219 243.826 194.285 244.063 194.142C245.978 192.896 247.995 192.985 249.742 193.877C251.499 194.77 252.942 196.501 253.55 198.497C254.08 200.238 254.001 202.366 254.08 204.317C254.08 204.593 254.316 204.802 254.598 204.802C254.879 204.791 255.094 204.56 255.082 204.284C255.003 202.399 255.105 200.194 254.508 198.221C253.82 195.961 252.209 194.043 250.192 193.018L250.215 192.996Z" fill="#8D4237"/>
<path d="M253.098 188.928C252.817 188.917 252.58 189.126 252.569 189.402C252.558 189.678 252.772 189.909 253.053 189.92C254.822 190.008 256.242 189.975 257.673 190.714C258.845 191.32 259.611 193.095 260.14 195.09C260.67 197.086 260.974 199.224 261.594 200.591C261.707 200.834 262 200.955 262.259 200.845C262.518 200.735 262.631 200.437 262.518 200.194C262.022 199.092 261.673 196.909 261.121 194.837C260.569 192.764 259.825 190.703 258.146 189.832C256.456 188.961 254.822 189.005 253.098 188.917V188.928Z" fill="#8D4237"/>
<path d="M256.467 185.643C256.186 185.632 255.949 185.841 255.938 186.117C255.927 186.393 256.141 186.624 256.422 186.635C261.065 186.856 263.814 187.33 265.436 188.752C267.048 190.174 267.735 192.72 268.017 197.406C268.039 197.681 268.276 197.88 268.546 197.869C268.828 197.846 269.031 197.615 269.019 197.35C268.726 192.599 268.05 189.744 266.101 188.024C264.152 186.304 261.166 185.874 256.467 185.643Z" fill="#8D4237"/>
<path d="M258.012 184.496C257.809 184.309 257.482 184.32 257.291 184.518C255.781 186.117 253.843 188.41 251.725 189.997C250.666 190.791 249.561 191.397 248.468 191.662C247.375 191.926 246.294 191.882 245.178 191.331C244.671 191.089 244.345 190.901 244.119 190.681C243.894 190.46 243.736 190.196 243.623 189.666C243.567 189.402 243.285 189.237 243.015 189.292C242.745 189.358 242.576 189.611 242.632 189.876C242.778 190.515 243.026 191 243.398 191.364C243.759 191.728 244.209 191.959 244.728 192.213C246.068 192.863 247.432 192.93 248.716 192.61C250.001 192.29 251.218 191.618 252.344 190.769C254.609 189.082 256.57 186.734 258.046 185.18C258.237 184.981 258.226 184.673 258.023 184.474L258.012 184.496Z" fill="#8D4237"/>
<path d="M242.88 195.013C242.632 194.891 242.328 194.991 242.204 195.233C240.863 197.912 241.224 200.172 242.621 201.682C244.018 203.192 246.328 203.964 248.829 204.096C249.111 204.107 249.348 203.898 249.359 203.622C249.37 203.347 249.167 203.115 248.886 203.104C246.576 202.972 244.514 202.233 243.376 201.01C242.238 199.786 241.9 198.099 243.117 195.663C243.241 195.421 243.128 195.123 242.88 195.002V195.013Z" fill="#8D4237"/>
<path d="M246.246 202.675C245.965 202.697 245.751 202.929 245.773 203.204C245.852 204.494 246.494 205.597 246.934 206.589C247.046 206.842 247.339 206.953 247.598 206.842C247.858 206.732 247.97 206.445 247.869 206.192C247.396 205.134 246.843 204.13 246.776 203.149C246.765 202.874 246.528 202.664 246.246 202.675Z" fill="#8D4237"/>
<path d="M242.371 194.165C239.115 194.076 235.723 194.903 233.143 196.921C232.929 197.097 232.895 197.406 233.064 197.615C233.233 197.824 233.549 197.869 233.774 197.692C236.118 195.851 239.284 195.058 242.337 195.146C242.619 195.146 242.856 194.936 242.856 194.672C242.856 194.396 242.642 194.176 242.36 194.165H242.371Z" fill="#8D4237"/>
<path d="M85.6636 41.8256C85.6636 41.8256 83.6806 46.7092 84.458 54.1945C85.2355 61.6797 87.9284 64.8656 89.1227 66.3649C90.3171 67.8641 91.6354 69.6169 92.1424 71.1713C92.6494 72.7147 93.5283 79.1857 95.3649 82.4157C97.2014 85.6457 102.08 89.5041 103.996 91.0805C105.911 92.657 108.841 96.6146 110.531 97.6949C112.21 98.7752 114.136 99.0508 116.615 98.8524C119.094 98.654 121.888 98.1028 123.376 96.2508C124.863 94.3987 134.609 80.5306 135.849 77.3778C137.088 74.2249 137.065 69.6059 137.065 69.6059C137.065 69.6059 138.373 71.7887 139.905 71.6454C141.437 71.502 143.33 69.0217 143.612 65.3397C143.894 61.6467 143.905 57.667 143.048 55.0433C142.192 52.4306 140.063 52.0448 140.063 52.0448C140.063 52.0448 139.263 40.635 134.812 33.26C130.361 25.885 121.798 23.3936 115.793 22.8535C109.787 22.3243 88.1875 26.7008 85.6749 41.8367L85.6636 41.8256Z" fill="#DE897C"/>
<path d="M107.648 34.9899C107.648 34.9899 108.053 39.0798 107.941 39.7412C107.828 40.3917 106.104 43.4563 105.552 44.3272C105 45.1981 102.882 47.7115 101.518 48.8911C100.155 50.0596 97.1015 50.3793 97.1015 50.3793C97.1015 50.3793 89.1692 46.1682 87.6707 44.3933C86.1721 42.6185 84.3693 36.8309 84.8538 33.8324C85.3383 30.8449 86.6341 23.7566 87.6594 21.2321C88.6847 18.7076 92.2339 11.7184 92.2339 11.7184C92.2339 11.7184 91.0058 14.3311 91.2762 16.7343C91.5466 19.1375 94.555 22.8085 94.555 22.8085C94.555 22.8085 93.1466 18.7627 93.7325 15.1028C94.3184 11.4428 95.3888 10.6381 95.5804 8.67582C95.7606 6.71356 95.9184 5.22534 94.5438 2.94339C93.1691 0.661434 91.3889 0 91.3889 0C91.3889 0 93.879 0.275595 96.3916 2.70086C98.9042 5.12612 99.6141 8.16873 99.6141 8.16873C99.6141 8.16873 99.9859 7.15452 100.448 5.00485C100.91 2.85519 102.33 2.37014 102.33 2.37014C102.33 2.37014 102.217 4.79541 102.791 7.65061C103.366 10.5058 104.775 12.0712 106.262 12.8429C107.749 13.6145 109.89 15.0587 109.89 15.0587C109.89 15.0587 107.67 13.5704 107.941 11.0901C108.211 8.60968 110.431 6.76869 110.431 6.76869C110.431 6.76869 109.394 7.9703 109.27 9.27112C109.146 10.5719 109.518 12.0271 109.518 12.0271C109.518 12.0271 109.811 9.09473 110.96 7.05531C112.121 5.0269 115.884 3.0426 115.884 3.0426C115.884 3.0426 112.065 7.83801 113.09 11.0901C114.115 14.3421 115.974 16.7233 115.974 16.7233C115.974 16.7233 114.386 14.739 116.448 11.8838C118.51 9.02859 119.986 10.1641 119.986 10.1641C119.986 10.1641 117.619 11.2554 118.07 14.9264C118.521 18.5974 120.391 20.8462 120.391 20.8462C120.391 20.8462 120.301 20.0525 121.653 18.432C123.005 16.8115 123.208 18.3659 123.208 18.3659C123.208 18.3659 122.16 19.6226 122.769 21.2541C123.377 22.8857 126.34 25.6196 126.34 25.6196C126.34 25.6196 122.25 24.5723 120.188 24.9802C118.138 25.3881 117.777 28.6732 117.191 30.0071C116.605 31.341 112.853 32.9064 110.758 33.5568C108.662 34.1962 107.614 34.9899 107.614 34.9899H107.648Z" fill="#CE1D3F"/>
<path d="M140.085 51.6362C138.462 51.3716 137.234 52.0551 136.411 53.1024C135.6 54.1496 135.138 55.5386 134.879 56.7843C134.845 56.9607 134.958 57.1371 135.138 57.1702C135.318 57.2033 135.487 57.093 135.533 56.9166C135.769 55.7261 136.22 54.4252 136.93 53.5102C137.64 52.5953 138.563 52.0551 139.961 52.2866C140.141 52.3197 140.321 52.2094 140.355 52.022C140.389 51.8456 140.265 51.6803 140.085 51.6472V51.6362Z" fill="#9E3A3B"/>
<path d="M141.313 56.3541C139.938 56.0785 138.856 56.5304 138.18 57.3903C137.504 58.2502 137.189 59.4628 137.087 60.7857C136.884 63.4314 137.549 66.485 138.529 68.0394C138.631 68.1938 138.834 68.2378 138.991 68.1496C139.149 68.0504 139.194 67.852 139.104 67.6977C138.27 66.3858 137.572 63.3322 137.763 60.8408C137.853 59.5951 138.18 58.4817 138.721 57.7872C139.262 57.0927 139.994 56.7619 141.189 56.9934C141.369 57.0265 141.538 56.9163 141.583 56.7399C141.617 56.5635 141.504 56.3981 141.324 56.3541H141.313Z" fill="#9E3A3B"/>
<path d="M139.217 59.8715C138.688 59.8274 138.113 59.9597 137.482 60.3014C137.324 60.3896 137.257 60.588 137.347 60.7424C137.437 60.8967 137.64 60.9518 137.798 60.8636C138.339 60.566 138.789 60.4778 139.15 60.5109C139.51 60.5439 139.815 60.6983 140.085 60.9518C140.626 61.4589 141.02 62.418 141.212 63.4212C141.246 63.5976 141.415 63.7078 141.595 63.6858C141.775 63.6527 141.899 63.4873 141.865 63.3109C141.662 62.2306 141.279 61.1613 140.558 60.4888C140.198 60.1471 139.736 59.9156 139.206 59.8715H139.217Z" fill="#9E3A3B"/>
<path d="M94.9151 67.411C93.7207 67.7307 93.1461 68.7449 92.932 69.5276C92.7179 70.3103 92.7743 71.0159 92.7743 71.0159C92.8081 71.4127 93.1574 71.7214 93.563 71.6883C93.9686 71.6553 94.2841 71.3135 94.2503 70.9167C94.2503 70.9167 94.2165 70.4206 94.3517 69.9025C94.4869 69.3843 94.7235 68.9654 95.2982 68.8111C96.7404 68.4252 97.946 69.1859 98.4418 69.5717C98.7573 69.8143 99.2192 69.7702 99.4784 69.4615C99.7375 69.1528 99.6812 68.6898 99.3657 68.4363C98.7009 67.9071 97.0108 66.8488 94.9038 67.411H94.9151Z" fill="black"/>
<path d="M117.37 61.9437C114.012 62.3186 112.975 65.5706 112.975 65.5706C112.852 65.9564 113.077 66.3643 113.471 66.4746C113.854 66.5848 114.271 66.3754 114.395 66.0005C114.395 66.0005 115.105 63.6635 117.55 63.3879C120.164 63.0902 120.987 64.0493 121.741 64.821C122.023 65.1076 122.496 65.1186 122.789 64.843C123.082 64.5674 123.094 64.1044 122.812 63.8178C122.034 63.0241 120.446 61.613 117.37 61.9548V61.9437Z" fill="black"/>
<path d="M100.391 76.0758C100.684 76.616 102.002 78.005 102.362 78.3358C102.723 78.6775 104.481 78.6555 105.157 78.6775C105.822 78.7106 107.5 77.3877 107.5 77.3877C107.5 77.3877 106.171 77.983 105.619 77.994C105.067 78.005 103.151 77.972 102.7 77.7735C102.25 77.5751 101.303 76.3955 100.943 75.8884C100.571 75.3813 100.402 76.0648 100.402 76.0648L100.391 76.0758Z" fill="#A14639"/>
<path d="M108.029 76.6597C108.165 76.3621 109.404 76.2078 109.663 76.1747C109.922 76.1416 110.418 75.5133 110.452 75.3148C110.486 75.1164 110.598 74.0912 110.305 73.7605C110.012 73.4297 109.404 72.625 109.404 72.625C109.404 72.625 111.071 74.2565 111.252 74.5432C111.432 74.8298 110.677 76.1747 110.508 76.4613C110.35 76.7479 109.911 76.8582 109.415 76.7149C108.919 76.5716 108.029 76.6487 108.029 76.6487V76.6597Z" fill="#A14639"/>
<path d="M103.625 84.0797C103.298 83.3411 102.701 81.886 102.893 81.2576C103.095 80.6292 105.935 79.4717 108.177 79.2733C110.419 79.0748 114.047 78.9867 114.791 79.1851C115.535 79.3835 119.005 81.7096 119.929 82.8009C120.853 83.8923 118.768 92.0831 117.258 93.3178C115.749 94.5525 111.016 94.1887 110.092 93.8249C109.157 93.4611 109.045 92.7445 108.605 91.5209C108.166 90.2972 107.58 88.346 106.476 87.3318C105.371 86.3176 104.042 84.7081 103.625 84.0687V84.0797Z" fill="#611D12"/>
<path d="M114.442 87.1995C113.158 87.1995 112.234 87.7066 112.234 87.7066C109.687 90.0216 108.944 91.7413 109.699 93.0973C109.935 93.5272 110.375 93.8359 110.927 94.0233C112.628 94.2768 116.02 94.332 117.259 93.3288C117.912 92.7886 118.679 90.9366 119.265 88.9192C119.107 88.6987 118.893 88.5223 118.611 88.4011C117.428 87.905 117.112 87.6294 115.377 87.2767C115.051 87.2105 114.735 87.1885 114.442 87.1885V87.1995Z" fill="white"/>
<path d="M115.365 79.4505C112.064 85.9215 111.703 90.0004 111.703 90.0004C111.703 90.0004 111.906 90.6949 113.235 91.0146C115.635 91.5988 117.235 91.0035 118.926 90.0114C119.872 87.1672 120.525 83.5073 119.928 82.8017C119.162 81.8868 116.616 80.1229 115.365 79.4395V79.4505Z" fill="#FFA0B8"/>
<path d="M112.965 79.0859C111.523 79.0859 109.585 79.1631 108.176 79.2844C106.329 79.4497 104.064 80.2655 103.219 80.8938C103.557 81.7647 104.424 83.7931 105.191 83.8924C106.16 84.0246 115.095 82.0073 116.052 81.4671C116.469 81.2356 116.717 80.8057 116.875 80.3868C115.951 79.7694 115.106 79.2734 114.79 79.1962C114.509 79.119 113.833 79.0859 112.965 79.0859Z" fill="white"/>
<path d="M99.7822 63.7287C99.478 65.2389 98.5654 65.4815 97.9344 65.5917C97.3034 65.702 94.1485 64.5334 92.8077 64.2799C91.4782 64.0263 89.619 65.8453 89.3261 65.9886C89.0331 66.1319 88.0078 64.5334 88.0078 64.5334C88.0078 64.5334 89.1346 61.4908 90.7233 60.6861C92.312 59.8813 93.0105 60.5869 94.5316 61.1491C96.0527 61.7113 98.0583 62.3397 98.6104 62.505C99.1625 62.6704 99.8611 63.1334 99.771 63.7176L99.7822 63.7287Z" fill="#221D31"/>
<path d="M118.69 53.4111C117.27 53.4222 115.681 53.9072 114.217 54.9435C112.098 56.4427 108.594 60.1247 107.828 60.8633C106.983 61.6791 107.265 62.1421 107.873 62.6051C109.214 63.3878 109.924 63.961 110.87 63.9941C111.817 64.0272 115.828 58.6475 117.372 57.501C118.915 56.3435 120.436 56.1781 122.07 56.3545C123.704 56.5309 124.684 56.6522 125.315 56.4648C125.946 56.2884 122.262 54.26 120.493 53.6867C119.941 53.5103 119.321 53.4111 118.679 53.4222L118.69 53.4111Z" fill="#221D31"/>
<path d="M101.832 67.1694L101.246 72.9349C101.246 72.9349 101.99 69.1206 102.125 68.2387C102.26 67.3568 102.271 66.6182 102.271 66.6182C102.271 66.6182 101.956 66.6843 101.832 67.1804V67.1694Z" fill="#A14639"/>
</svg>
