<svg width="36" height="39" viewBox="0 0 36 39" fill="none" xmlns="http://www.w3.org/2000/svg">
<path fill-rule="evenodd" clip-rule="evenodd" d="M18 35.75C26.2845 35.75 33 28.4749 33 19.5C33 10.5251 26.2845 3.25 18 3.25C9.7155 3.25 3 10.5251 3 19.5C3 28.4749 9.7155 35.75 18 35.75ZM18.705 13.7638C18.9159 13.5355 19.2019 13.4073 19.5 13.4073C19.7981 13.4073 20.0841 13.5355 20.295 13.7638L24.795 18.6388C25.0057 18.8673 25.124 19.177 25.124 19.5C25.124 19.823 25.0057 20.1327 24.795 20.3612L20.295 25.2362C20.192 25.356 20.0678 25.452 19.9298 25.5186C19.7918 25.5853 19.6428 25.6211 19.4918 25.624C19.3407 25.6268 19.1907 25.5967 19.0506 25.5354C18.9105 25.4742 18.7833 25.3829 18.6764 25.2672C18.5696 25.1515 18.4854 25.0136 18.4288 24.8618C18.3722 24.7101 18.3444 24.5475 18.3471 24.3839C18.3498 24.2203 18.3828 24.0589 18.4443 23.9094C18.5058 23.7599 18.5945 23.6253 18.705 23.5138L21.285 20.7188H12C11.7016 20.7188 11.4155 20.5903 11.2045 20.3618C10.9935 20.1332 10.875 19.8232 10.875 19.5C10.875 19.1768 10.9935 18.8668 11.2045 18.6382C11.4155 18.4097 11.7016 18.2812 12 18.2812H21.285L18.705 15.4862C18.4943 15.2577 18.376 14.948 18.376 14.625C18.376 14.302 18.4943 13.9923 18.705 13.7638Z" fill="#D4C6D6" fill-opacity="0.75"/>
</svg>
