<svg width="173" height="340" viewBox="0 0 173 340" fill="none" xmlns="http://www.w3.org/2000/svg">
<path d="M106.978 24.5206C106.978 24.5206 112.242 20.3767 115.713 15.0607C97.8425 4.21397 65.057 0.746978 55.1775 0.0535807C45.3171 -0.639817 42.914 5.36963 43.715 19.6668C44.5161 33.9805 50.3904 57.523 53.5755 60.99C64.2369 62.6079 96.7744 63.9947 107.703 62.3768C103.698 56.5985 101.562 43.6881 101.562 43.6881L106.959 24.5206H106.978Z" fill="#E86153"/>
<path d="M73.1253 210.648L36.163 326.528L30.2696 322.945C30.2696 322.945 17.3004 278.75 40.8929 264.254C39.329 233.101 40.8929 201.997 40.8929 201.997L73.1253 210.648Z" fill="#ECB579"/>
<path d="M102.21 212.679C101.809 213.703 73.1246 326.512 73.1246 326.512C73.1246 326.512 66.4492 323.606 66.4492 322.599C66.4492 321.592 52.1068 282.861 74.021 265.295C68.8142 241.95 67.8987 209.229 67.8987 209.229L102.229 212.679H102.21Z" fill="#ECB579"/>
<path d="M68.4121 148.853C68.4121 148.853 45.201 153.871 23.1914 201.997C28.3028 205.876 45.8113 207.577 45.8113 207.577V210.647C45.8113 210.647 64.0826 214.725 72.341 215.419V218.143C72.341 218.143 97.4975 219.497 109.303 218.143L108.903 215.765C108.903 215.765 119.126 213.718 137.206 207.94C132.877 174.244 107.091 148.869 107.091 148.869H68.4311L68.4121 148.853Z" fill="#005860"/>
<path d="M145.084 90.9205L146.458 86.8922C146.458 86.8922 153.286 89.996 155.918 85.3403C158.55 80.6846 159.904 70.8285 152.828 67.4441C145.752 64.0761 140.641 85.9677 140.641 85.9677L145.084 90.9205Z" fill="#D39557"/>
<path d="M56.2447 75.4677C56.2447 75.4677 36.562 77.2672 39.4228 85.3238C42.2837 93.3804 68.4129 148.852 68.4129 148.852C68.4129 148.852 96.6973 151.956 107.073 148.852C103.849 124.369 100.645 101.536 100.645 101.536L126.412 130.263L146.457 92.4559L138.943 84.0856C138.943 84.0856 125.344 106.093 124.619 105.152C123.894 104.227 100.645 72.6115 100.645 72.6115L93.0354 72.2979L56.2447 75.4512V75.4677Z" fill="#13A367"/>
<path d="M147.43 77.4668H140.641V340H147.43V77.4668Z" fill="#292E3D"/>
<path d="M102.916 15.523C102.916 15.523 114.169 36.9027 109.362 55.5914C87.2383 55.1292 80.2387 54.5348 80.2387 54.5348L83.7099 72.3155H93.0363L89.5651 97.7071L56.2266 75.4688L73.8304 72.5467L68.2231 30.2989C68.2231 30.2989 85.2929 6.5253 102.897 15.523H102.916Z" fill="#ECB579"/>
<path d="M100.646 13.4923C100.646 13.4923 98.9106 22.1763 90.8621 26.5018C82.8135 30.8273 85.4264 27.2612 87.8105 24.0584C79.7619 30.4475 78.4841 34.9711 67.1741 36.4735C55.8642 37.9759 66.0679 16.5301 66.0679 16.5301L88.6687 8.44043L100.627 13.4923H100.646Z" fill="#E86153"/>
<path d="M76.4437 35.2687C76.4437 35.2687 69.3106 29.0941 65.5724 35.2687C61.8342 41.4432 69.3106 47.9149 76.787 44.3984" fill="#ECB579"/>
<path d="M30.2679 322.945L0 338.596L39.1366 333.478L36.1613 326.511L30.2679 322.945Z" fill="#005860"/>
<path d="M66.4285 322.599L61.832 334.502L104.955 338.596L73.1229 326.511L66.4285 322.599Z" fill="#005860"/>
<path d="M51.2485 80.4229C51.2485 80.4229 87.7721 109.083 87.4669 108.291C87.1618 107.498 124.925 82.8332 124.925 82.8332L131.124 88.7271L89.0309 127.31L49.7227 103.734" fill="#13A367"/>
<path d="M131.082 88.7256C124.369 95.4119 117.484 101.933 110.579 108.471L100.128 118.178C96.6565 121.414 93.1663 124.65 89.6188 127.837L89.0848 128.315L88.4744 127.952C81.9708 123.973 75.3908 120.061 68.9443 115.999C62.4597 111.987 56.0132 107.91 49.6621 103.749C56.3947 107.447 63.0509 111.244 69.6881 115.075C76.3444 118.872 82.8862 122.818 89.4662 126.697L88.3409 126.796C91.8121 123.544 95.3405 120.358 98.8689 117.155L109.473 107.563C116.625 101.24 123.758 94.9001 131.063 88.7256H131.082Z" fill="#0E7244"/>
<path d="M51.2461 80.4229C57.4446 84.8309 63.4906 89.371 69.5556 93.9111C75.6206 98.4182 81.5712 103.156 87.6744 107.482L87.8079 107.564H87.846C87.846 107.564 87.8842 107.597 87.846 107.581C87.7888 107.548 87.7316 107.531 87.6744 107.531C87.5409 107.531 87.827 107.531 87.3692 107.531C86.3202 107.564 86.6254 109.017 86.6063 108.505C86.5682 108.357 86.5682 108.175 86.6254 108.027C86.7398 107.796 86.7207 107.862 86.778 107.763C86.8733 107.63 86.9115 107.63 86.9687 107.548C87.1785 107.35 87.3692 107.185 87.5599 107.036L88.7234 106.161L91.0693 104.51L95.7992 101.291C98.9843 99.1776 102.131 97.0314 105.374 94.9842C111.82 90.8568 118.305 86.779 124.923 82.8497C118.762 87.2908 112.488 91.6163 106.232 95.9418L96.8291 102.413L92.1755 105.682L89.8868 107.35L88.7996 108.192C88.628 108.324 88.4563 108.472 88.3419 108.605C88.3419 108.605 88.2656 108.687 88.3038 108.654C88.3228 108.605 88.2847 108.72 88.361 108.538C88.4182 108.406 88.4182 108.258 88.361 108.126C88.3419 107.614 88.628 109.083 87.579 109.133C87.1213 109.133 87.3692 109.133 87.2357 109.116C87.1404 109.1 87.0641 109.067 86.9687 109.017L86.8924 108.968L86.778 108.902L86.6063 108.786C83.4403 106.508 80.5413 104.196 77.5279 101.869C74.5526 99.5408 71.5582 97.2295 68.6592 94.8521C62.804 90.1304 56.9678 85.3592 51.2842 80.4724L51.2461 80.4229Z" fill="#0E7244"/>
<path d="M155.688 90.9209L160.017 97.7063L157.862 98.6638L153.094 92.4728L155.688 90.9209Z" fill="#292E3D"/>
<path d="M157.041 90.9215L141.402 56.1855L129.119 61.8153L152.597 93.4639L157.041 90.9215Z" fill="#292E3D"/>
<path d="M130.016 87.6867L134.384 84.9792C134.384 84.9792 141.154 85.6891 147.219 82.2386C153.284 78.7716 155.096 77.2197 155.096 77.2197C155.096 77.2197 153.571 67.5452 151.377 64.0782C149.165 60.6112 135.032 69.6914 135.032 69.6914L132.553 66.406C132.553 66.406 127.861 72.4485 130.436 80.3235L126.221 84.0546L130.035 87.6867H130.016Z" fill="#ECB579"/>
<path d="M169.785 338.598H117.24V340.001H169.785V338.598Z" fill="#292E3D"/>
<path d="M142.014 52.9503C142.014 58.0682 137.227 62.2121 131.315 62.2121C125.402 62.2121 120.615 58.0682 120.615 52.9503C120.615 47.8324 125.402 43.6885 131.315 43.6885C137.227 43.6885 142.014 47.8324 142.014 52.9503Z" fill="#292E3D"/>
<path d="M158.34 97.4111C158.34 97.4111 176.058 120.789 171.138 133.781C166.217 146.774 132.974 161.699 136.178 177.053C139.382 192.407 160.514 244.907 153.973 264.256C147.45 283.621 130.838 323.228 140.641 338.598" stroke="#292E3D" stroke-width="0.57" stroke-miterlimit="10"/>
<path d="M99.8052 34.8555C100.244 35.6809 100.644 36.5064 100.988 37.3484L100.568 37.1503C101.77 36.7706 102.99 36.4074 104.211 36.0937L105.222 35.846L104.859 36.7045C104.554 37.3979 104.211 38.0253 103.734 38.6361C103.276 39.247 102.704 39.8083 101.922 40.221C101.121 40.6338 100.129 40.6668 99.3093 40.4357C98.4702 40.188 97.8026 39.6102 97.5547 38.9498C98.0506 39.5111 98.7372 39.8578 99.4429 39.9404C100.168 40.0229 100.892 39.9074 101.407 39.5277C102.514 38.8177 103.257 37.5465 103.849 36.3743L104.497 36.9687C103.257 37.2493 102.018 37.497 100.759 37.7116L100.396 37.7776L100.32 37.5135C100.091 36.6385 99.9387 35.747 99.8052 34.8555Z" fill="#CC8A4A"/>
<path d="M68.2598 37.5637C68.6984 37.0354 69.3469 36.5566 70.1479 36.3585C70.949 36.1439 71.9026 36.276 72.6273 36.6887C73.3712 37.085 73.8671 37.6628 74.2867 38.2571C74.7062 38.8515 74.9923 39.4788 75.2784 40.1062L75.6599 40.9317L74.649 40.7005C74.2104 40.6015 73.7717 40.4694 73.3521 40.4199C72.9325 40.3208 72.4748 40.2878 72.1315 40.3208C71.9598 40.3538 71.8835 40.3868 71.8263 40.4859C71.8072 40.6015 71.7882 40.7831 71.8644 40.9482C71.9789 41.3114 72.2078 41.6746 72.4366 42.0213C72.0552 41.7736 71.7309 41.46 71.4639 41.0802C71.3304 40.8986 71.216 40.6675 71.2541 40.3703C71.2923 40.0567 71.6165 39.809 71.9026 39.7265C73.0279 39.4293 73.9624 39.6604 74.916 39.809L74.2867 40.4034C74.0006 39.8255 73.6954 39.2477 73.3521 38.7194C72.9897 38.1911 72.5892 37.6958 72.0742 37.3491C71.5784 37.0024 70.949 36.7878 70.2624 36.8538C69.5758 36.9033 68.8892 37.1675 68.2598 37.5472V37.5637Z" fill="#CC8A4A"/>
<path d="M102.054 45.0411C102.054 45.0411 87.9026 37.0835 83.0392 34.7227C79.5299 44.1661 86.6057 53.659 102.054 45.0411Z" fill="#292E3D"/>
<path d="M82.1641 38.95L96.5447 44.299L97.6699 42.5655C93.0926 40.0231 86.1693 36.2259 83.0414 34.707C82.5074 36.1434 82.2213 37.5632 82.1641 38.95Z" fill="white"/>
<path d="M94.6564 34.8554C95.2357 34.8554 95.7054 34.2272 95.7054 33.4521C95.7054 32.6771 95.2357 32.0488 94.6564 32.0488C94.0771 32.0488 93.6074 32.6771 93.6074 33.4521C93.6074 34.2272 94.0771 34.8554 94.6564 34.8554Z" fill="#292E3D"/>
<path d="M103.108 33.9307C103.108 34.7066 102.65 35.334 102.059 35.334C101.467 35.334 101.01 34.7066 101.01 33.9307C101.01 33.1547 101.467 32.5273 102.059 32.5273C102.65 32.5273 103.108 33.1547 103.108 33.9307Z" fill="#292E3D"/>
<path d="M97.5389 27.8877C96.0512 28.0858 94.8687 28.1188 93.7435 28.2839C93.1904 28.35 92.6754 28.4986 92.1414 28.6472C91.5883 28.8122 91.0924 29.0929 90.3867 29.4066C90.4249 28.7627 90.7491 28.0858 91.3403 27.6236C91.9125 27.1448 92.6754 26.8476 93.4383 26.7155C94.2012 26.6165 94.9832 26.666 95.6888 26.8641C96.3945 27.0622 97.043 27.3594 97.5579 27.8712L97.5389 27.8877Z" fill="#292E3D"/>
<path d="M101.011 28.4332C101.183 27.9214 101.679 27.5912 102.232 27.4096C102.785 27.228 103.414 27.2445 103.967 27.3766C105.074 27.6903 105.913 28.4332 106.027 29.4568C105.417 29.3907 104.978 29.2752 104.559 29.1761C104.139 29.0936 103.796 28.9615 103.433 28.8955C102.747 28.7139 102.156 28.5323 100.992 28.4332H101.011Z" fill="#292E3D"/>
</svg>
