<svg width="50" height="50" viewBox="0 0 50 50" fill="none" xmlns="http://www.w3.org/2000/svg">
<path fill-rule="evenodd" clip-rule="evenodd" d="M24.9993 45.8337C36.5056 45.8337 45.8327 36.5066 45.8327 25.0003C45.8327 13.4941 36.5056 4.16699 24.9993 4.16699C13.4931 4.16699 4.16602 13.4941 4.16602 25.0003C4.16602 36.5066 13.4931 45.8337 24.9993 45.8337ZM25.9785 17.6462C26.2715 17.3536 26.6686 17.1892 27.0827 17.1892C27.4967 17.1892 27.8939 17.3536 28.1868 17.6462L34.4368 23.8962C34.7295 24.1891 34.8938 24.5863 34.8938 25.0003C34.8938 25.4144 34.7295 25.8115 34.4368 26.1045L28.1868 32.3545C28.0438 32.508 27.8713 32.6311 27.6796 32.7165C27.488 32.8019 27.2811 32.8479 27.0713 32.8516C26.8615 32.8553 26.6531 32.8167 26.4585 32.7381C26.264 32.6595 26.0872 32.5425 25.9389 32.3942C25.7905 32.2458 25.6735 32.069 25.5949 31.8745C25.5163 31.6799 25.4777 31.4715 25.4814 31.2617C25.4851 31.0519 25.5311 30.845 25.6165 30.6534C25.7019 30.4617 25.825 30.2892 25.9785 30.1462L29.5618 26.5628H16.666C16.2516 26.5628 15.8542 26.3982 15.5612 26.1052C15.2681 25.8122 15.1035 25.4147 15.1035 25.0003C15.1035 24.5859 15.2681 24.1885 15.5612 23.8955C15.8542 23.6024 16.2516 23.4378 16.666 23.4378H29.5618L25.9785 19.8545C25.6859 19.5615 25.5216 19.1644 25.5216 18.7503C25.5216 18.3363 25.6859 17.9391 25.9785 17.6462Z" fill="#D4C6D6" fill-opacity="0.75"/>
</svg>
