<svg width="21" height="23" viewBox="0 0 21 23" fill="none" xmlns="http://www.w3.org/2000/svg">
<g clip-path="url(#clip0_747_95)">
<path fill-rule="evenodd" clip-rule="evenodd" d="M0 11.5C0 8.45001 1.10625 5.52494 3.07538 3.36827C5.04451 1.2116 7.71523 0 10.5 0C13.2848 0 15.9555 1.2116 17.9246 3.36827C19.8938 5.52494 21 8.45001 21 11.5C21 14.55 19.8938 17.4751 17.9246 19.6317C15.9555 21.7884 13.2848 23 10.5 23C7.71523 23 5.04451 21.7884 3.07538 19.6317C1.10625 17.4751 0 14.55 0 11.5ZM9.9008 16.422L15.946 8.14507L14.854 7.18827L9.6992 14.2431L6.048 10.9112L5.152 12.0888L9.9008 16.422Z" fill="#D4C6D6" fill-opacity="0.75"/>
</g>
<defs>
<clipPath id="clip0_747_95">
<rect width="21" height="23" fill="white"/>
</clipPath>
</defs>
</svg>
